<svg xmlns="http://www.w3.org/2000/svg" xmlns:xlink="http://www.w3.org/1999/xlink" preserveAspectRatio="xMidYMid" width="30" height="36" viewBox="0 0 30 36">
  <defs>
    <style>

      .cls-2 {
        fill: #2a1e30;
      }
    </style>
  </defs>
  <path d="M29.988,22.913 C29.988,21.144 28.546,19.705 26.772,19.705 C24.999,19.705 23.557,21.144 23.557,22.913 C23.557,24.074 24.183,25.083 25.110,25.647 C24.073,29.609 20.458,33.322 16.008,33.892 C16.008,33.892 16.008,12.314 16.008,12.314 C16.008,12.314 20.048,12.314 20.048,12.314 C20.605,12.314 21.058,11.864 21.058,11.307 C21.058,10.749 20.605,10.299 20.048,10.299 C20.048,10.299 16.008,10.299 16.008,10.299 C16.008,10.299 16.008,7.779 16.008,7.779 C17.705,7.329 18.965,5.798 18.965,3.965 C18.965,1.782 17.186,0.007 14.998,0.007 C12.810,0.007 11.031,1.782 11.031,3.965 C11.031,5.798 12.291,7.329 13.988,7.779 C13.988,7.779 13.988,10.299 13.988,10.299 C13.988,10.299 9.948,10.299 9.948,10.299 C9.391,10.299 8.938,10.749 8.938,11.307 C8.938,11.864 9.391,12.314 9.948,12.314 C9.948,12.314 13.988,12.314 13.988,12.314 C13.988,12.314 13.988,33.930 13.988,33.930 C9.445,33.515 5.714,29.807 4.595,25.805 C5.681,25.289 6.439,24.192 6.439,22.913 C6.439,21.144 4.997,19.705 3.224,19.705 C1.450,19.705 0.008,21.144 0.008,22.913 C0.008,24.463 1.114,25.759 2.580,26.058 C3.910,31.218 8.889,35.991 14.830,35.991 C20.758,35.991 25.730,31.240 27.074,26.093 C28.704,25.938 29.988,24.580 29.988,22.913 ZM13.051,3.965 C13.051,2.894 13.924,2.022 14.998,2.022 C16.072,2.022 16.945,2.894 16.945,3.965 C16.945,5.037 16.072,5.909 14.998,5.909 C13.924,5.909 13.051,5.037 13.051,3.965 ZM3.224,21.721 C3.883,21.721 4.419,22.256 4.419,22.913 C4.419,23.572 3.883,24.107 3.224,24.107 C2.564,24.107 2.028,23.572 2.028,22.913 C2.028,22.256 2.564,21.721 3.224,21.721 ZM26.772,24.107 C26.113,24.107 25.577,23.572 25.577,22.913 C25.577,22.256 26.113,21.721 26.772,21.721 C27.432,21.721 27.968,22.256 27.968,22.913 C27.968,23.572 27.432,24.107 26.772,24.107 Z" id="path-1" class="cls-2" fill-rule="evenodd"/>
</svg>
