<svg xmlns="http://www.w3.org/2000/svg" xmlns:xlink="http://www.w3.org/1999/xlink" preserveAspectRatio="xMidYMid" width="36" height="36" viewBox="0 0 36 36">
  <defs>
    <style>

      .cls-2 {
        fill: #2a1e30;
      }
    </style>
  </defs>
  <path d="M34.555,33.955 C34.339,33.941 32.873,33.804 32.067,32.830 C32.317,32.626 32.480,32.322 32.455,31.975 C32.420,31.475 32.020,31.099 31.544,31.048 C31.595,29.776 32.126,27.688 32.687,25.484 C33.642,21.737 34.725,17.491 34.318,14.323 C34.077,12.445 33.155,11.581 32.424,11.188 C30.959,10.399 29.163,10.840 28.185,11.194 C28.185,11.194 27.282,10.290 27.282,10.290 C27.282,10.290 30.676,6.895 30.676,6.895 C31.338,7.515 32.018,8.003 32.871,8.003 C33.504,8.003 34.105,7.723 34.658,7.169 C36.107,5.720 36.035,1.770 36.006,0.993 C35.985,0.457 35.555,0.026 35.019,0.006 C35.019,0.006 34.823,-0.002 34.500,-0.002 C32.537,-0.002 29.963,0.234 28.845,1.353 C28.290,1.908 28.010,2.511 28.011,3.145 C28.012,4.043 28.555,4.750 29.224,5.447 C29.224,5.447 25.832,8.840 25.832,8.840 C25.832,8.840 24.797,7.805 24.797,7.805 C25.150,6.826 25.591,5.031 24.803,3.565 C24.410,2.834 23.547,1.911 21.669,1.670 C18.499,1.263 14.257,2.347 10.513,3.301 C8.700,3.763 6.961,4.204 5.695,4.375 C5.607,3.943 5.261,3.595 4.800,3.553 C4.309,3.502 3.890,3.819 3.748,4.268 C2.242,3.656 2.059,1.687 2.043,1.437 C2.011,0.872 1.536,0.440 0.961,0.472 C0.395,0.504 -0.037,0.989 -0.004,1.554 C0.079,3.012 0.940,5.684 3.513,6.346 C3.513,6.346 0.965,34.049 0.965,34.049 C0.963,34.064 0.971,34.078 0.970,34.093 C0.965,34.190 0.983,34.283 1.006,34.378 C1.016,34.421 1.015,34.464 1.030,34.505 C1.070,34.609 1.135,34.702 1.209,34.791 C1.227,34.813 1.233,34.841 1.253,34.862 C1.254,34.863 1.257,34.864 1.258,34.865 C1.259,34.866 1.260,34.868 1.261,34.869 C1.301,34.909 1.351,34.927 1.396,34.959 C1.461,35.006 1.521,35.060 1.594,35.091 C1.720,35.142 1.852,35.169 1.985,35.169 C2.009,35.169 2.034,35.168 2.058,35.166 C2.058,35.166 29.883,33.187 29.883,33.187 C30.805,35.221 33.117,35.928 34.434,36.002 C34.454,36.003 34.474,36.004 34.494,36.004 C35.031,36.004 35.480,35.586 35.513,35.042 C35.548,34.478 35.119,33.992 34.555,33.955 ZM28.394,13.324 C28.896,13.082 30.538,12.500 31.456,12.996 C31.622,13.086 32.128,13.359 32.285,14.584 C32.641,17.364 31.610,21.409 30.700,24.977 C30.066,27.467 29.515,29.642 29.493,31.159 C29.493,31.159 4.652,32.926 4.652,32.926 C4.652,32.926 9.271,28.306 9.271,28.306 C9.271,28.306 9.662,29.993 9.662,29.993 C9.772,30.467 10.193,30.787 10.659,30.787 C10.736,30.787 10.814,30.779 10.892,30.761 C11.444,30.632 11.787,30.081 11.659,29.530 C11.659,29.530 10.979,26.597 10.979,26.597 C10.979,26.597 25.832,11.740 25.832,11.740 C25.832,11.740 27.219,13.128 27.219,13.128 C27.528,13.436 28.000,13.516 28.394,13.324 ZM30.294,2.803 C30.629,2.469 31.904,2.110 33.958,2.056 C33.916,3.531 33.677,5.250 33.209,5.719 C33.024,5.903 32.907,5.952 32.871,5.952 C32.616,5.952 31.965,5.298 31.535,4.865 C31.535,4.865 31.149,4.479 31.149,4.479 C30.716,4.048 30.062,3.397 30.061,3.141 C30.061,3.105 30.110,2.989 30.294,2.803 ZM11.019,5.288 C14.587,4.379 18.632,3.343 21.408,3.705 C22.632,3.861 22.906,4.367 22.996,4.533 C23.493,5.452 22.911,7.094 22.669,7.595 C22.476,7.988 22.554,8.461 22.864,8.771 C22.864,8.771 24.382,10.290 24.382,10.290 C24.382,10.290 9.479,25.198 9.479,25.198 C9.479,25.198 6.678,24.547 6.678,24.547 C6.128,24.412 5.576,24.761 5.448,25.314 C5.320,25.865 5.663,26.417 6.215,26.544 C6.215,26.544 7.771,26.906 7.771,26.906 C7.771,26.906 3.266,31.413 3.266,31.413 C3.266,31.413 5.562,6.449 5.562,6.449 C7.014,6.301 8.903,5.828 11.019,5.288 Z" id="path-1" class="cls-2" fill-rule="evenodd"/>
</svg>
