<svg xmlns="http://www.w3.org/2000/svg" xmlns:xlink="http://www.w3.org/1999/xlink" preserveAspectRatio="xMidYMid" width="38" height="36" viewBox="0 0 38 36">
  <defs>
    <style>

      .cls-2 {
        fill: #2a1e30;
      }
    </style>
  </defs>
  <path d="M37.040,25.036 C37.040,25.036 19.931,25.036 19.931,25.036 C19.931,25.036 19.931,3.820 19.931,3.820 C19.931,3.820 32.375,20.218 32.375,20.218 C32.375,20.218 27.333,20.218 27.333,20.218 C26.945,19.100 25.889,18.290 24.636,18.290 C23.056,18.290 21.770,19.569 21.770,21.141 C21.770,22.713 23.056,23.992 24.636,23.992 C25.859,23.992 26.898,23.222 27.308,22.145 C27.308,22.145 34.320,22.145 34.320,22.145 C34.688,22.145 35.023,21.938 35.187,21.610 C35.351,21.284 35.315,20.892 35.093,20.601 C35.093,20.601 19.736,0.364 19.736,0.364 C19.485,0.034 19.051,-0.101 18.655,0.031 C18.261,0.163 17.995,0.531 17.995,0.945 C17.995,0.945 17.995,25.036 17.995,25.036 C17.995,25.036 0.965,25.036 0.965,25.036 C0.430,25.036 -0.004,25.467 -0.004,26.000 C-0.004,31.709 8.167,36.014 19.002,36.014 C29.837,36.014 38.008,31.709 38.008,26.000 C38.008,25.467 37.575,25.036 37.040,25.036 ZM24.636,22.065 C24.124,22.065 23.707,21.650 23.707,21.141 C23.707,20.632 24.124,20.218 24.636,20.218 C25.147,20.218 25.564,20.632 25.564,21.141 C25.564,21.650 25.147,22.065 24.636,22.065 ZM19.002,34.087 C10.279,34.087 3.062,30.970 2.054,26.963 C2.054,26.963 35.951,26.963 35.951,26.963 C34.942,30.970 27.726,34.087 19.002,34.087 Z" id="path-1" class="cls-2" fill-rule="evenodd"/>
</svg>
