<svg xmlns="http://www.w3.org/2000/svg" xmlns:xlink="http://www.w3.org/1999/xlink" preserveAspectRatio="xMidYMid" width="38" height="33" viewBox="0 0 38 33">
  <defs>
    <style>

      .cls-2 {
        fill: #2a1e30;
      }
    </style>
  </defs>
  <path d="M37.990,11.002 C38.012,10.906 38.021,10.810 38.017,10.711 C38.016,10.682 38.020,10.654 38.016,10.625 C38.002,10.513 37.975,10.403 37.925,10.297 C37.919,10.283 37.908,10.274 37.901,10.260 C37.896,10.252 37.897,10.242 37.892,10.233 C37.892,10.233 32.528,0.554 32.528,0.554 C32.495,0.494 32.450,0.443 32.406,0.391 C32.392,0.374 32.382,0.354 32.367,0.338 C32.282,0.248 32.182,0.176 32.072,0.119 C32.044,0.105 32.016,0.095 31.987,0.083 C31.887,0.041 31.783,0.015 31.673,0.004 C31.654,0.002 31.639,-0.009 31.619,-0.010 C31.612,-0.010 31.605,-0.006 31.598,-0.006 C31.586,-0.007 31.576,-0.011 31.564,-0.011 C31.564,-0.011 6.456,-0.011 6.456,-0.011 C6.445,-0.011 6.435,-0.007 6.425,-0.007 C6.416,-0.006 6.408,-0.011 6.399,-0.010 C6.380,-0.009 6.364,0.002 6.345,0.004 C6.235,0.015 6.131,0.042 6.032,0.084 C6.003,0.096 5.974,0.105 5.947,0.119 C5.837,0.177 5.737,0.248 5.652,0.339 C5.637,0.356 5.627,0.375 5.613,0.393 C5.569,0.445 5.525,0.495 5.491,0.555 C5.491,0.555 0.142,10.234 0.142,10.234 C0.138,10.243 0.138,10.252 0.134,10.261 C0.127,10.274 0.116,10.284 0.110,10.297 C0.061,10.403 0.033,10.514 0.019,10.626 C0.016,10.655 0.020,10.683 0.018,10.713 C0.014,10.811 0.023,10.907 0.045,11.003 C0.054,11.040 0.063,11.075 0.076,11.111 C0.110,11.209 0.157,11.300 0.219,11.387 C0.233,11.405 0.241,11.426 0.255,11.444 C0.259,11.449 0.261,11.454 0.264,11.459 C0.264,11.459 18.175,32.618 18.175,32.618 C18.181,32.626 18.192,32.628 18.198,32.636 C18.223,32.664 18.249,32.690 18.277,32.715 C18.303,32.739 18.331,32.758 18.360,32.779 C18.412,32.819 18.466,32.855 18.524,32.884 C18.548,32.896 18.572,32.905 18.597,32.915 C18.614,32.923 18.627,32.937 18.645,32.943 C18.656,32.947 18.668,32.945 18.679,32.949 C18.789,32.984 18.901,33.008 19.018,33.008 C19.134,33.008 19.247,32.984 19.356,32.949 C19.367,32.945 19.379,32.947 19.390,32.943 C19.408,32.937 19.421,32.923 19.438,32.915 C19.463,32.905 19.487,32.896 19.511,32.884 C19.569,32.855 19.623,32.819 19.676,32.779 C19.704,32.758 19.732,32.739 19.758,32.715 C19.786,32.690 19.812,32.664 19.837,32.636 C19.844,32.628 19.854,32.626 19.861,32.618 C19.861,32.618 37.771,11.459 37.771,11.459 C37.775,11.454 37.776,11.449 37.780,11.444 C37.795,11.425 37.804,11.404 37.818,11.384 C37.879,11.298 37.926,11.207 37.960,11.111 C37.972,11.074 37.981,11.040 37.990,11.002 ZM21.890,11.985 C21.890,11.985 19.018,26.420 19.018,26.420 C19.018,26.420 16.145,11.985 16.145,11.985 C16.145,11.985 21.890,11.985 21.890,11.985 ZM15.916,9.804 C15.916,9.804 19.018,3.655 19.018,3.655 C19.018,3.655 22.120,9.804 22.120,9.804 C22.120,9.804 15.916,9.804 15.916,9.804 ZM30.198,6.283 C30.198,6.283 27.605,2.170 27.605,2.170 C27.605,2.170 30.407,2.170 30.407,2.170 C30.407,2.170 30.198,6.283 30.198,6.283 ZM29.737,9.804 C29.737,9.804 24.587,9.804 24.587,9.804 C24.587,9.804 26.059,3.970 26.059,3.970 C26.059,3.970 29.737,9.804 29.737,9.804 ZM23.073,6.679 C23.073,6.679 20.798,2.170 20.798,2.170 C20.798,2.170 24.210,2.170 24.210,2.170 C24.210,2.170 23.073,6.679 23.073,6.679 ZM14.962,6.679 C14.962,6.679 13.825,2.170 13.825,2.170 C13.825,2.170 17.237,2.170 17.237,2.170 C17.237,2.170 14.962,6.679 14.962,6.679 ZM13.448,9.804 C13.448,9.804 8.298,9.804 8.298,9.804 C8.298,9.804 11.977,3.971 11.977,3.971 C11.977,3.971 13.448,9.804 13.448,9.804 ZM7.832,6.292 C7.832,6.292 7.615,2.170 7.615,2.170 C7.615,2.170 10.430,2.170 10.430,2.170 C10.430,2.170 7.832,6.292 7.832,6.292 ZM5.806,9.804 C5.806,9.804 2.964,9.804 2.964,9.804 C2.964,9.804 5.559,5.109 5.559,5.109 C5.559,5.109 5.806,9.804 5.806,9.804 ZM13.902,11.985 C13.902,11.985 16.540,25.240 16.540,25.240 C16.540,25.240 9.285,11.985 9.285,11.985 C9.285,11.985 13.902,11.985 13.902,11.985 ZM24.133,11.985 C24.133,11.985 28.750,11.985 28.750,11.985 C28.750,11.985 21.495,25.240 21.495,25.240 C21.495,25.240 24.133,11.985 24.133,11.985 ZM32.468,5.112 C32.468,5.112 35.068,9.804 35.068,9.804 C35.068,9.804 32.229,9.804 32.229,9.804 C32.229,9.804 32.468,5.112 32.468,5.112 ZM6.782,11.985 C6.782,11.985 12.848,23.069 12.848,23.069 C12.848,23.069 3.467,11.985 3.467,11.985 C3.467,11.985 6.782,11.985 6.782,11.985 ZM25.187,23.069 C25.187,23.069 31.253,11.985 31.253,11.985 C31.253,11.985 34.568,11.985 34.568,11.985 C34.568,11.985 25.187,23.069 25.187,23.069 Z" id="path-1" class="cls-2" fill-rule="evenodd"/>
</svg>
