<svg xmlns="http://www.w3.org/2000/svg" xmlns:xlink="http://www.w3.org/1999/xlink" preserveAspectRatio="xMidYMid" width="29" height="38" viewBox="0 0 29 38">
  <defs>
    <style>

      .cls-2 {
        fill: #2a1e30;
      }
    </style>
  </defs>
  <path d="M17.638,28.589 C17.492,28.663 17.332,28.712 17.161,28.707 C17.106,28.718 17.053,28.761 16.998,28.771 C16.998,28.771 17.006,28.793 17.006,28.793 C17.003,28.793 17.001,28.793 16.998,28.793 C16.441,28.793 16.073,28.101 16.175,27.546 C16.175,27.546 18.369,15.589 18.369,15.589 C16.164,15.747 13.542,15.853 11.189,15.721 C12.163,20.139 13.180,25.963 13.456,27.570 C13.552,28.127 13.177,28.657 12.618,28.752 C12.560,28.762 12.501,28.767 12.444,28.767 C12.410,28.767 12.380,28.753 12.346,28.749 C12.346,28.749 12.345,28.777 12.345,28.777 C5.339,27.765 -0.012,21.731 -0.012,14.462 C-0.012,6.486 6.513,-0.002 14.504,-0.002 C22.495,-0.002 29.008,6.493 29.008,14.469 C29.008,21.376 24.134,27.161 17.638,28.589 ZM14.528,2.045 C7.669,2.045 1.990,7.615 1.990,14.462 C1.990,20.234 5.711,25.094 11.184,26.479 C10.570,23.009 9.741,18.638 9.042,15.519 C6.961,15.223 5.358,14.643 4.892,13.605 C4.079,11.793 4.946,10.208 6.223,9.578 C7.572,8.914 9.067,9.383 9.779,10.695 C10.037,11.170 10.356,12.235 10.699,13.617 C13.088,13.771 16.283,13.726 19.530,13.443 C19.530,13.443 20.872,13.326 20.872,13.326 C20.872,13.326 18.492,26.233 18.492,26.233 C23.415,24.577 26.969,19.927 26.969,14.462 C26.969,7.615 21.388,2.045 14.528,2.045 ZM8.533,13.389 C8.312,12.546 8.122,11.939 7.975,11.670 C7.832,11.406 7.643,11.327 7.470,11.327 C7.341,11.327 7.220,11.370 7.132,11.414 C6.999,11.479 6.354,11.854 6.764,12.768 C6.949,13.025 7.580,13.234 8.533,13.389 ZM11.415,29.816 C11.415,29.816 18.594,29.816 18.594,29.816 C19.160,29.816 19.620,30.274 19.620,30.840 C19.620,31.406 19.160,31.863 18.594,31.863 C18.594,31.863 11.415,31.863 11.415,31.863 C10.849,31.863 10.390,31.406 10.390,30.840 C10.390,30.274 10.849,29.816 11.415,29.816 ZM12.441,32.887 C12.441,32.887 17.568,32.887 17.568,32.887 C18.135,32.887 18.594,33.345 18.594,33.911 C18.594,34.476 18.135,34.934 17.568,34.934 C17.568,34.934 12.441,34.934 12.441,34.934 C11.874,34.934 11.415,34.476 11.415,33.911 C11.415,33.345 11.874,32.887 12.441,32.887 ZM13.466,35.958 C13.466,35.958 16.543,35.958 16.543,35.958 C17.109,35.958 17.568,36.416 17.568,36.981 C17.568,37.547 17.109,38.005 16.543,38.005 C16.543,38.005 13.466,38.005 13.466,38.005 C12.900,38.005 12.441,37.547 12.441,36.981 C12.441,36.416 12.900,35.958 13.466,35.958 Z" id="path-1" class="cls-2" fill-rule="evenodd"/>
</svg>
