<svg xmlns="http://www.w3.org/2000/svg" xmlns:xlink="http://www.w3.org/1999/xlink" preserveAspectRatio="xMidYMid" width="24" height="38" viewBox="0 0 24 38">
  <defs>
    <style>

      .cls-2 {
        fill: #2a1e30;
      }
    </style>
  </defs>
  <path d="M11.999,0.009 C5.377,0.009 -0.011,5.538 -0.011,12.333 C-0.011,15.824 1.452,19.170 3.945,21.454 C3.945,21.454 4.034,21.552 4.034,21.552 C4.119,21.648 4.205,21.743 4.304,21.839 C4.304,21.839 9.591,26.940 9.591,26.940 C8.676,27.219 7.985,28.190 7.985,29.388 C7.985,30.743 9.005,31.805 9.996,31.898 C9.996,31.898 9.996,31.917 9.996,31.917 C9.996,31.917 10.133,31.917 10.133,31.917 C10.163,31.917 10.190,31.917 10.220,31.917 C10.220,31.917 11.978,31.917 11.978,31.917 C11.978,31.917 13.509,31.906 13.509,31.906 C13.555,31.932 13.689,32.112 13.689,32.426 C13.689,32.700 13.587,32.928 13.531,32.928 C13.531,32.928 12.969,32.928 12.969,32.928 C12.969,32.928 12.969,32.928 12.969,32.928 C12.969,32.928 11.978,32.928 11.978,32.928 C11.978,32.928 10.123,32.921 10.123,32.921 C8.941,32.921 8.014,34.035 8.014,35.457 C8.014,36.875 8.941,37.986 10.220,37.986 C10.220,37.986 11.978,37.986 11.978,37.986 C11.978,37.986 11.978,37.981 11.978,37.981 C11.978,37.981 14.545,37.986 14.545,37.986 C14.547,37.986 14.550,37.986 14.552,37.986 C15.096,37.986 15.539,37.542 15.543,36.986 C15.548,36.428 15.107,35.976 14.560,35.971 C14.560,35.971 11.978,35.962 11.978,35.962 C11.976,35.962 11.975,35.963 11.973,35.963 C11.973,35.963 10.173,35.974 10.173,35.974 C10.128,35.947 9.996,35.769 9.996,35.458 C9.996,35.180 10.100,34.951 10.156,34.951 C10.156,34.951 9.996,34.951 9.996,34.951 C9.996,34.951 9.996,34.951 9.996,34.951 C9.996,34.951 11.978,34.951 11.978,34.951 C11.978,34.951 13.561,34.960 13.561,34.960 C14.744,34.960 15.671,33.848 15.671,32.427 C15.671,31.007 14.744,29.894 13.465,29.894 C13.465,29.894 11.978,29.894 11.978,29.894 C11.978,29.894 10.193,29.884 10.193,29.884 C10.193,29.884 10.192,29.894 10.192,29.894 C10.192,29.894 10.173,29.894 10.173,29.894 C10.128,29.894 9.996,29.693 9.996,29.382 C9.996,29.105 10.100,28.933 10.156,28.877 C10.156,28.877 11.978,28.882 11.978,28.882 C11.978,28.882 11.978,28.874 11.978,28.874 C11.992,28.875 12.004,28.881 12.018,28.882 C12.361,28.882 12.663,28.704 12.841,28.433 C13.165,28.104 14.470,26.816 19.688,21.842 C19.793,21.741 19.886,21.639 19.979,21.537 C19.979,21.537 20.012,21.494 20.012,21.494 C22.551,19.154 24.007,15.815 24.007,12.333 C24.007,5.538 18.620,0.009 11.999,0.009 ZM18.629,20.048 C18.629,20.048 18.522,20.165 18.522,20.165 C18.461,20.233 18.401,20.300 18.333,20.365 C14.849,23.687 12.983,25.466 12.006,26.486 C12.006,26.486 5.668,20.371 5.668,20.371 C5.606,20.311 5.552,20.249 5.498,20.189 C5.498,20.189 5.328,20.007 5.328,20.007 C3.195,18.048 1.972,15.251 1.972,12.333 C1.972,6.653 6.470,2.032 11.999,2.032 C17.528,2.032 22.025,6.653 22.025,12.333 C22.025,15.243 20.807,18.036 18.629,20.048 Z" id="path-1" class="cls-2" fill-rule="evenodd"/>
</svg>
