<svg xmlns="http://www.w3.org/2000/svg" xmlns:xlink="http://www.w3.org/1999/xlink" preserveAspectRatio="xMidYMid" width="38" height="30" viewBox="0 0 38 30">
  <defs>
    <style>

      .cls-2 {
        fill: #2a1e30;
      }
    </style>
  </defs>
  <path d="M35.906,26.131 C35.906,26.131 35.662,26.687 35.662,26.687 C35.493,27.074 35.125,27.302 34.740,27.302 C34.600,27.302 34.458,27.272 34.323,27.209 C33.813,26.969 33.588,26.349 33.819,25.822 C33.819,25.822 34.063,25.266 34.063,25.266 C36.521,19.655 36.609,13.178 34.305,7.498 C34.305,7.498 33.807,6.272 33.807,6.272 C33.591,5.739 33.834,5.125 34.349,4.901 C34.867,4.674 35.458,4.929 35.674,5.462 C35.674,5.462 36.171,6.688 36.171,6.688 C38.693,12.903 38.597,19.990 35.906,26.131 ZM32.994,21.003 C32.994,21.003 32.770,21.561 32.770,21.561 C32.608,21.963 32.231,22.205 31.835,22.205 C31.705,22.205 31.573,22.179 31.446,22.124 C30.930,21.902 30.686,21.289 30.901,20.755 C30.901,20.755 31.125,20.198 31.125,20.198 C32.240,17.429 32.293,14.400 31.275,11.670 C31.225,11.535 31.181,11.420 31.141,11.335 C30.946,11.143 30.823,10.872 30.823,10.572 C30.823,9.993 31.276,9.525 31.835,9.525 C32.644,9.525 32.944,10.328 33.164,10.915 C34.370,14.152 34.310,17.734 32.994,21.003 ZM23.976,29.959 C23.976,29.959 13.747,29.959 13.747,29.959 C11.458,29.959 9.597,28.033 9.597,25.665 C9.597,25.665 9.597,4.279 9.597,4.279 C9.597,1.911 11.458,-0.015 13.747,-0.015 C13.747,-0.015 23.976,-0.015 23.976,-0.015 C26.264,-0.015 28.126,1.911 28.126,4.279 C28.126,4.279 28.126,25.665 28.126,25.665 C28.126,28.033 26.264,29.959 23.976,29.959 ZM26.102,4.279 C26.102,3.066 25.148,2.079 23.976,2.079 C23.976,2.079 13.747,2.079 13.747,2.079 C12.575,2.079 11.621,3.066 11.621,4.279 C11.621,4.279 11.621,25.665 11.621,25.665 C11.621,26.878 12.575,27.865 13.747,27.865 C13.747,27.865 23.976,27.865 23.976,27.865 C25.148,27.865 26.102,26.878 26.102,25.665 C26.102,25.665 26.102,4.279 26.102,4.279 ZM18.861,26.568 C16.804,26.568 15.129,24.836 15.129,22.707 C15.129,20.578 16.804,18.846 18.861,18.846 C20.919,18.846 22.594,20.578 22.594,22.707 C22.594,24.836 20.919,26.568 18.861,26.568 ZM18.861,20.940 C17.919,20.940 17.153,21.732 17.153,22.707 C17.153,23.682 17.919,24.474 18.861,24.474 C19.803,24.474 20.569,23.682 20.569,22.707 C20.569,21.732 19.803,20.940 18.861,20.940 ZM7.101,20.755 C7.315,21.289 7.072,21.902 6.555,22.124 C6.428,22.179 6.296,22.205 6.167,22.205 C5.770,22.205 5.394,21.963 5.232,21.561 C5.232,21.561 5.007,21.003 5.007,21.003 C3.692,17.735 3.632,14.153 4.838,10.916 C5.057,10.328 5.357,9.525 6.166,9.525 C6.725,9.525 7.178,9.993 7.178,10.572 C7.178,10.872 7.056,11.143 6.860,11.334 C6.821,11.420 6.777,11.535 6.727,11.670 C5.709,14.401 5.762,17.429 6.876,20.198 C6.876,20.198 7.101,20.755 7.101,20.755 ZM3.697,7.498 C1.393,13.178 1.481,19.655 3.939,25.266 C3.939,25.266 4.183,25.822 4.183,25.822 C4.414,26.349 4.189,26.969 3.680,27.208 C3.544,27.272 3.402,27.302 3.262,27.302 C2.877,27.302 2.509,27.074 2.340,26.687 C2.340,26.687 2.096,26.131 2.096,26.131 C-0.595,19.990 -0.691,12.903 1.831,6.688 C1.831,6.688 2.328,5.462 2.328,5.462 C2.545,4.929 3.136,4.673 3.653,4.901 C4.169,5.125 4.411,5.739 4.195,6.272 C4.195,6.272 3.697,7.498 3.697,7.498 Z" id="path-1" class="cls-2" fill-rule="evenodd"/>
</svg>
