<svg xmlns="http://www.w3.org/2000/svg" xmlns:xlink="http://www.w3.org/1999/xlink" preserveAspectRatio="xMidYMid" width="38" height="33" viewBox="0 0 38 33">
  <defs>
    <style>

      .cls-2 {
        fill: #2a1e30;
      }
    </style>
  </defs>
  <path d="M37.187,27.202 C36.491,26.369 35.458,25.892 34.355,25.892 C33.517,25.892 32.698,26.176 32.048,26.693 C31.548,27.090 31.187,27.604 30.962,28.176 C30.962,28.176 25.880,28.176 25.880,28.176 C29.025,26.060 31.096,22.535 31.096,18.537 C31.096,12.069 25.693,6.807 19.053,6.807 C17.248,6.807 15.542,7.207 14.004,7.903 C13.999,7.898 13.994,7.893 13.989,7.889 C14.282,6.035 13.810,4.074 12.500,2.510 C11.158,0.906 9.169,-0.013 7.042,-0.013 C5.429,-0.013 3.851,0.534 2.599,1.529 C1.142,2.686 0.234,4.327 0.044,6.148 C-0.146,7.970 0.404,9.755 1.592,11.174 C2.934,12.777 4.923,13.697 7.049,13.697 C7.409,13.697 7.766,13.661 8.119,13.607 C8.124,13.612 8.129,13.617 8.134,13.622 C7.421,15.119 7.010,16.780 7.010,18.537 C7.010,22.535 9.081,26.060 12.226,28.176 C12.226,28.176 1.307,28.176 1.307,28.176 C0.763,28.176 0.321,28.605 0.321,29.135 C0.321,29.666 0.763,30.095 1.307,30.095 C1.307,30.095 15.468,30.095 15.468,30.095 C15.577,30.676 15.819,31.228 16.213,31.698 C16.910,32.530 17.942,33.008 19.045,33.008 C19.883,33.008 20.702,32.723 21.352,32.208 C22.030,31.669 22.462,30.924 22.619,30.095 C22.619,30.095 30.780,30.095 30.780,30.095 C30.890,30.676 31.132,31.228 31.525,31.698 C32.222,32.530 33.254,33.008 34.358,33.008 C35.195,33.008 36.015,32.723 36.665,32.208 C37.421,31.607 37.892,30.756 37.990,29.810 C38.089,28.865 37.804,27.938 37.187,27.202 ZM9.477,12.232 C9.104,11.787 8.932,11.228 8.992,10.657 C9.051,10.086 9.336,9.572 9.792,9.210 C10.191,8.893 10.672,8.726 11.185,8.726 C11.852,8.726 12.475,9.014 12.896,9.516 C13.268,9.962 13.440,10.521 13.381,11.092 C13.321,11.663 13.037,12.177 12.580,12.539 C11.664,13.269 10.221,13.120 9.477,12.232 ZM3.119,9.961 C2.263,8.939 1.868,7.654 2.005,6.343 C2.142,5.031 2.795,3.849 3.844,3.017 C4.745,2.301 5.882,1.906 7.042,1.906 C8.574,1.906 10.006,2.568 10.973,3.723 C11.756,4.658 12.108,5.786 12.081,6.904 C11.790,6.842 11.490,6.807 11.185,6.807 C10.227,6.807 9.290,7.132 8.547,7.722 C7.682,8.409 7.144,9.381 7.031,10.463 C6.985,10.909 7.030,11.347 7.129,11.772 C7.102,11.773 7.076,11.777 7.049,11.777 C5.518,11.777 4.085,11.116 3.119,9.961 ZM8.981,18.537 C8.981,17.169 9.285,15.873 9.808,14.690 C10.248,14.840 10.708,14.943 11.188,14.943 C12.146,14.943 13.082,14.617 13.825,14.028 C14.690,13.341 15.228,12.368 15.341,11.286 C15.405,10.680 15.316,10.085 15.114,9.527 C16.325,9.020 17.652,8.726 19.053,8.726 C24.606,8.726 29.125,13.127 29.125,18.537 C29.125,22.844 26.257,26.500 22.286,27.815 C22.171,27.600 22.035,27.394 21.875,27.202 C21.178,26.369 20.146,25.892 19.042,25.892 C18.205,25.892 17.385,26.176 16.736,26.693 C16.343,27.004 16.032,27.385 15.806,27.810 C11.843,26.491 8.981,22.839 8.981,18.537 ZM20.107,30.719 C19.409,31.277 18.308,31.164 17.740,30.485 C17.657,30.385 17.591,30.276 17.535,30.163 C17.473,30.041 17.432,29.911 17.403,29.778 C17.398,29.753 17.392,29.728 17.388,29.702 C17.365,29.566 17.356,29.426 17.370,29.284 C17.390,29.094 17.447,28.914 17.530,28.748 C17.533,28.742 17.535,28.736 17.538,28.730 C17.625,28.563 17.740,28.409 17.882,28.276 C17.916,28.245 17.945,28.209 17.982,28.180 C18.285,27.939 18.652,27.812 19.042,27.812 C19.484,27.812 19.893,27.985 20.205,28.279 C20.205,28.279 20.205,28.279 20.205,28.279 C20.253,28.324 20.305,28.364 20.347,28.415 C20.631,28.754 20.763,29.180 20.717,29.616 C20.707,29.715 20.685,29.810 20.658,29.903 C20.630,29.993 20.594,30.081 20.552,30.165 C20.447,30.376 20.299,30.567 20.107,30.719 ZM36.030,29.616 C35.984,30.051 35.768,30.443 35.419,30.719 C34.722,31.277 33.620,31.164 33.053,30.485 C32.769,30.146 32.638,29.719 32.683,29.284 C32.729,28.849 32.945,28.458 33.294,28.180 C33.598,27.939 33.964,27.812 34.355,27.812 C34.864,27.812 35.339,28.031 35.660,28.415 C35.944,28.754 36.075,29.180 36.030,29.616 Z" id="path-1" class="cls-2" fill-rule="evenodd"/>
</svg>
