<svg xmlns="http://www.w3.org/2000/svg" xmlns:xlink="http://www.w3.org/1999/xlink" preserveAspectRatio="xMidYMid" width="38" height="38" viewBox="0 0 38 38">
  <defs>
    <style>

      .cls-2 {
        fill: #2a1e30;
      }
    </style>
  </defs>
  <path d="M37.304,17.298 C36.908,16.717 36.306,16.312 35.622,16.137 C35.415,14.885 35.083,13.646 34.587,12.444 C34.092,11.245 33.460,10.139 32.733,9.114 C32.903,8.825 33.026,8.503 33.090,8.157 C33.382,6.563 32.328,5.025 30.741,4.729 C30.014,4.594 29.319,4.748 28.740,5.087 C28.357,4.813 27.963,4.557 27.559,4.317 C27.559,4.317 28.505,1.357 28.505,1.357 C28.674,0.834 28.389,0.273 27.868,0.102 C27.347,-0.068 26.788,0.220 26.618,0.741 C26.618,0.741 25.770,3.392 25.770,3.392 C24.491,2.827 23.137,2.420 21.731,2.184 C21.647,1.862 21.519,1.546 21.321,1.256 C20.780,0.469 19.867,-0.001 18.879,-0.001 C18.283,-0.001 17.717,0.173 17.242,0.502 C16.638,0.920 16.251,1.529 16.080,2.192 C14.830,2.399 13.600,2.732 12.409,3.227 C12.382,3.238 12.357,3.252 12.330,3.264 C12.330,3.264 11.523,0.741 11.523,0.741 C11.354,0.220 10.797,-0.068 10.273,0.102 C9.752,0.273 9.467,0.834 9.636,1.357 C9.636,1.357 10.534,4.166 10.534,4.166 C10.034,4.453 9.550,4.762 9.085,5.096 C8.799,4.926 8.485,4.794 8.139,4.730 C6.516,4.418 5.011,5.515 4.720,7.088 C4.588,7.811 4.743,8.516 5.088,9.105 C4.354,10.135 3.718,11.245 3.223,12.444 C2.728,13.644 2.396,14.880 2.189,16.130 C1.857,16.211 1.542,16.344 1.262,16.537 C0.616,16.983 0.182,17.654 0.040,18.426 C-0.103,19.200 0.063,19.982 0.506,20.629 C0.912,21.221 1.515,21.634 2.192,21.809 C2.399,23.054 2.730,24.285 3.223,25.481 C3.719,26.682 4.353,27.792 5.083,28.819 C4.914,29.108 4.784,29.423 4.720,29.767 C4.428,31.362 5.482,32.899 7.069,33.195 C7.248,33.229 7.428,33.244 7.605,33.244 C8.139,33.244 8.644,33.099 9.080,32.844 C11.141,34.313 13.525,35.312 16.079,35.740 C16.162,36.062 16.290,36.377 16.488,36.666 C17.036,37.465 17.940,37.942 18.906,37.942 C19.501,37.942 20.075,37.763 20.568,37.422 C21.172,37.005 21.559,36.395 21.729,35.733 C22.980,35.526 24.210,35.193 25.401,34.698 C26.595,34.201 27.699,33.564 28.725,32.829 C29.011,32.998 29.325,33.131 29.670,33.195 C29.850,33.229 30.029,33.244 30.206,33.244 C31.620,33.244 32.832,32.233 33.090,30.837 C33.222,30.114 33.067,29.408 32.722,28.819 C33.456,27.789 34.092,26.680 34.587,25.481 C35.081,24.284 35.412,23.051 35.619,21.805 C35.949,21.720 36.264,21.584 36.548,21.387 C37.194,20.942 37.628,20.270 37.770,19.498 C37.913,18.725 37.747,17.942 37.304,17.298 ZM33.954,18.789 C34.000,18.539 34.140,18.322 34.351,18.176 C34.529,18.054 34.725,18.028 34.859,18.028 C35.191,18.028 35.501,18.179 35.669,18.425 C35.812,18.633 35.866,18.885 35.819,19.136 C35.773,19.386 35.633,19.602 35.422,19.747 C35.009,20.035 34.392,19.919 34.105,19.500 C33.962,19.291 33.908,19.040 33.954,18.789 ZM31.139,7.795 C31.045,8.301 30.576,8.662 30.035,8.559 C29.519,8.462 29.178,7.966 29.273,7.448 C29.355,7.004 29.753,6.669 30.199,6.669 C30.257,6.669 30.316,6.675 30.377,6.686 C30.892,6.783 31.234,7.280 31.139,7.795 ZM18.367,2.141 C18.548,2.017 18.745,1.990 18.879,1.990 C19.210,1.990 19.519,2.142 19.686,2.385 C19.982,2.818 19.873,3.412 19.444,3.709 C19.023,3.998 18.409,3.880 18.124,3.465 C17.828,3.032 17.937,2.438 18.367,2.141 ZM13.169,5.066 C14.174,4.648 15.210,4.363 16.262,4.178 C16.329,4.319 16.398,4.460 16.488,4.593 C17.036,5.392 17.940,5.868 18.906,5.868 C19.501,5.868 20.075,5.689 20.568,5.349 C21.012,5.042 21.334,4.629 21.547,4.171 C22.807,4.395 24.018,4.777 25.160,5.302 C25.160,5.302 20.942,18.490 20.942,18.490 C20.217,18.555 19.526,18.910 19.071,19.485 C18.615,18.910 17.924,18.556 17.199,18.491 C17.199,18.491 12.940,5.173 12.940,5.173 C13.018,5.139 13.091,5.098 13.169,5.066 ZM21.134,20.446 C21.223,20.446 21.310,20.466 21.393,20.503 C21.711,20.647 21.852,21.024 21.709,21.343 C21.569,21.651 21.186,21.801 20.871,21.659 C20.718,21.589 20.600,21.464 20.540,21.305 C20.481,21.147 20.486,20.975 20.557,20.819 C20.659,20.593 20.885,20.446 21.134,20.446 ZM16.417,20.857 C16.476,20.699 16.594,20.573 16.748,20.503 C16.831,20.466 16.919,20.446 17.008,20.446 C17.256,20.446 17.482,20.593 17.585,20.820 C17.654,20.974 17.660,21.146 17.601,21.305 C17.541,21.464 17.424,21.589 17.270,21.659 C17.187,21.697 17.099,21.717 17.010,21.717 C17.010,21.717 17.010,21.717 17.010,21.717 C16.762,21.717 16.535,21.570 16.433,21.343 C16.363,21.189 16.357,21.017 16.417,20.857 ZM7.598,6.669 C7.656,6.669 7.714,6.675 7.775,6.686 C8.291,6.783 8.632,7.279 8.537,7.796 C8.443,8.301 7.976,8.663 7.433,8.559 C6.918,8.462 6.576,7.965 6.671,7.450 C6.753,7.005 7.152,6.669 7.598,6.669 ZM2.387,18.177 C2.565,18.054 2.762,18.029 2.895,18.029 C3.227,18.029 3.538,18.179 3.705,18.424 C3.850,18.636 3.903,18.882 3.856,19.135 C3.810,19.386 3.669,19.602 3.458,19.747 C3.044,20.035 2.427,19.919 2.141,19.500 C1.998,19.292 1.944,19.040 1.991,18.789 C2.037,18.539 2.177,18.322 2.387,18.177 ZM6.671,30.130 C6.753,29.685 7.152,29.349 7.599,29.349 C7.657,29.349 7.715,29.354 7.775,29.366 C8.291,29.462 8.632,29.959 8.537,30.475 C8.443,30.981 7.976,31.341 7.433,31.238 C6.918,31.142 6.576,30.644 6.671,30.130 ZM19.444,35.783 C19.023,36.072 18.409,35.954 18.124,35.539 C17.828,35.106 17.937,34.512 18.367,34.215 C18.548,34.090 18.745,34.064 18.878,34.064 C19.209,34.064 19.519,34.216 19.686,34.459 C19.982,34.891 19.873,35.486 19.444,35.783 ZM30.035,31.238 C29.519,31.142 29.178,30.645 29.273,30.128 C29.355,29.684 29.753,29.348 30.199,29.348 C30.257,29.348 30.316,29.354 30.377,29.366 C30.892,29.462 31.234,29.960 31.139,30.474 C31.045,30.980 30.576,31.342 30.035,31.238 ZM31.194,27.541 C31.047,27.488 30.899,27.438 30.741,27.408 C29.113,27.107 27.610,28.196 27.322,29.766 C27.224,30.297 27.287,30.817 27.458,31.292 C26.585,31.905 25.650,32.440 24.641,32.859 C23.636,33.277 22.600,33.562 21.547,33.747 C21.481,33.605 21.411,33.463 21.320,33.330 C20.780,32.543 19.867,32.073 18.878,32.073 C18.283,32.073 17.717,32.247 17.242,32.576 C16.798,32.882 16.476,33.296 16.263,33.754 C14.115,33.371 12.108,32.531 10.357,31.310 C10.412,31.158 10.458,31.001 10.488,30.838 C10.782,29.243 9.728,27.705 8.139,27.408 C7.602,27.306 7.083,27.370 6.611,27.542 C6.005,26.669 5.474,25.731 5.056,24.718 C4.640,23.710 4.356,22.672 4.171,21.623 C4.314,21.555 4.453,21.478 4.584,21.387 C5.230,20.942 5.664,20.271 5.807,19.497 C5.949,18.725 5.783,17.942 5.339,17.296 C5.045,16.866 4.635,16.543 4.167,16.327 C4.352,15.269 4.637,14.222 5.056,13.206 C5.474,12.195 6.006,11.258 6.616,10.383 C6.763,10.436 6.911,10.486 7.069,10.515 C7.248,10.549 7.428,10.565 7.605,10.565 C9.019,10.565 10.231,9.552 10.488,8.158 C10.586,7.627 10.523,7.108 10.352,6.633 C10.614,6.449 10.879,6.270 11.153,6.102 C11.153,6.102 15.310,19.100 15.310,19.100 C14.980,19.383 14.717,19.738 14.560,20.156 C14.314,20.813 14.337,21.526 14.626,22.166 C15.049,23.102 15.985,23.707 17.010,23.707 C17.010,23.707 17.010,23.707 17.010,23.707 C17.384,23.707 17.746,23.629 18.088,23.473 C18.484,23.293 18.812,23.015 19.070,22.679 C19.329,23.015 19.657,23.293 20.053,23.473 C20.395,23.629 20.758,23.707 21.132,23.707 C22.156,23.707 23.092,23.102 23.516,22.165 C24.005,21.080 23.687,19.841 22.831,19.100 C22.831,19.100 26.937,6.260 26.937,6.260 C27.115,6.373 27.285,6.497 27.458,6.618 C27.403,6.770 27.352,6.924 27.322,7.087 C27.028,8.681 28.082,10.220 29.670,10.515 C29.850,10.549 30.029,10.565 30.206,10.565 C30.555,10.565 30.890,10.502 31.203,10.389 C31.807,11.260 32.337,12.195 32.754,13.206 C33.171,14.215 33.454,15.254 33.639,16.304 C33.495,16.371 33.356,16.447 33.225,16.537 C32.580,16.983 32.145,17.654 32.003,18.426 C31.860,19.200 32.027,19.982 32.470,20.629 C32.769,21.064 33.178,21.393 33.641,21.612 C33.456,22.665 33.171,23.707 32.754,24.718 C32.336,25.729 31.804,26.667 31.194,27.541 Z" id="path-1" class="cls-2" fill-rule="evenodd"/>
</svg>
