<svg xmlns="http://www.w3.org/2000/svg" xmlns:xlink="http://www.w3.org/1999/xlink" preserveAspectRatio="xMidYMid" width="38" height="26" viewBox="0 0 38 26">
  <defs>
    <style>

      .cls-2 {
        fill: #2a1e30;
      }
    </style>
  </defs>
  <path d="M33.594,9.705 C32.690,4.130 28.021,0.003 22.484,0.003 C19.509,0.003 16.651,1.234 14.543,3.403 C14.050,3.261 13.545,3.189 13.034,3.189 C10.692,3.189 8.632,4.666 7.780,6.868 C3.471,6.976 -0.002,10.482 -0.002,14.960 C-0.002,19.507 3.577,23.056 7.976,23.056 C8.009,23.056 14.059,23.056 19.973,23.056 C19.973,23.056 19.973,23.040 19.973,23.040 C19.999,23.043 20.022,23.056 20.049,23.056 C20.585,23.056 21.019,22.607 21.019,22.053 C21.019,21.500 20.585,21.050 20.049,21.050 C20.022,21.050 19.999,21.064 19.973,21.066 C19.973,21.066 19.973,21.050 19.973,21.050 C14.053,21.050 7.995,21.050 7.976,21.050 C4.647,21.050 1.939,18.401 1.939,14.960 C1.939,11.520 4.647,8.796 7.976,8.796 C8.102,8.796 8.225,8.843 8.411,8.857 C8.874,8.868 9.306,8.588 9.419,8.115 C9.832,6.385 11.319,5.186 13.034,5.186 C13.517,5.186 13.993,5.288 14.449,5.482 C14.830,5.645 15.267,5.543 15.541,5.226 C17.314,3.180 19.844,2.008 22.484,2.008 C27.243,2.008 31.228,5.691 31.753,10.574 C31.796,10.983 32.078,11.324 32.462,11.431 C34.583,12.028 36.065,13.880 36.065,16.149 C36.065,18.935 33.873,21.050 31.178,21.050 C31.178,21.050 30.550,21.050 29.514,21.050 C29.015,19.626 27.707,18.600 26.159,18.600 C24.186,18.600 22.581,20.259 22.581,22.298 C22.581,24.338 24.186,25.997 26.159,25.997 C27.881,25.997 29.321,24.733 29.661,23.056 C30.612,23.056 31.178,23.056 31.178,23.056 C34.943,23.056 38.006,20.041 38.006,16.149 C38.006,13.204 36.222,10.732 33.594,9.705 ZM26.159,23.991 C25.256,23.991 24.522,23.232 24.522,22.298 C24.522,21.365 25.256,20.606 26.159,20.606 C27.063,20.606 27.797,21.365 27.797,22.298 C27.797,23.232 27.063,23.991 26.159,23.991 Z" id="path-1" class="cls-2" fill-rule="evenodd"/>
</svg>
