<svg xmlns="http://www.w3.org/2000/svg" xmlns:xlink="http://www.w3.org/1999/xlink" preserveAspectRatio="xMidYMid" width="38" height="38" viewBox="0 0 38 38">
  <defs>
    <style>

      .cls-2 {
        fill: #2a1e30;
      }
    </style>
  </defs>
  <path d="M19.002,38.008 C8.522,38.008 -0.004,29.482 -0.004,19.002 C-0.004,8.522 8.522,-0.004 19.002,-0.004 C29.482,-0.004 38.008,8.522 38.008,19.002 C38.008,29.482 29.482,38.008 19.002,38.008 ZM19.002,1.933 C9.591,1.933 1.933,9.590 1.933,19.002 C1.933,28.414 9.591,36.071 19.002,36.071 C28.414,36.071 36.071,28.414 36.071,19.002 C36.071,9.590 28.414,1.933 19.002,1.933 ZM18.991,32.935 C11.309,32.935 5.059,26.685 5.059,19.002 C5.059,11.320 11.309,5.069 18.991,5.069 C26.674,5.069 32.924,11.320 32.924,19.002 C32.924,26.685 26.674,32.935 18.991,32.935 ZM28.109,11.226 C28.109,11.226 27.181,12.154 27.181,12.154 C26.991,12.343 26.744,12.438 26.496,12.438 C26.248,12.438 26.000,12.343 25.811,12.154 C25.433,11.776 25.433,11.163 25.811,10.785 C25.811,10.785 26.738,9.858 26.738,9.858 C24.870,8.274 22.515,7.256 19.931,7.054 C19.931,7.054 19.931,10.286 19.931,10.286 C19.931,10.821 19.498,11.255 18.963,11.255 C18.428,11.255 17.995,10.821 17.995,10.286 C17.995,10.286 17.995,7.057 17.995,7.057 C15.419,7.270 13.074,8.298 11.215,9.885 C11.215,9.885 12.115,10.785 12.115,10.785 C12.493,11.163 12.493,11.776 12.115,12.154 C11.926,12.343 11.678,12.438 11.430,12.438 C11.182,12.438 10.935,12.343 10.745,12.154 C10.745,12.154 9.847,11.256 9.847,11.256 C8.269,13.116 7.252,15.461 7.044,18.034 C7.044,18.034 8.310,18.034 8.310,18.034 C8.845,18.034 9.278,18.467 9.278,19.002 C9.278,19.538 8.845,19.971 8.310,19.971 C8.310,19.971 7.044,19.971 7.044,19.971 C7.252,22.544 8.269,24.888 9.847,26.748 C9.847,26.748 10.745,25.850 10.745,25.850 C11.124,25.472 11.737,25.472 12.115,25.850 C12.493,26.229 12.493,26.842 12.115,27.220 C12.115,27.220 11.215,28.119 11.215,28.119 C13.074,29.707 15.419,30.734 17.995,30.948 C17.995,30.948 17.995,27.718 17.995,27.718 C17.995,27.183 18.428,26.750 18.963,26.750 C19.498,26.750 19.931,27.183 19.931,27.718 C19.931,27.718 19.931,30.951 19.931,30.951 C22.515,30.749 24.870,29.731 26.738,28.146 C26.738,28.146 25.811,27.220 25.811,27.220 C25.433,26.842 25.433,26.229 25.811,25.850 C26.190,25.472 26.802,25.472 27.181,25.850 C27.181,25.850 28.109,26.778 28.109,26.778 C29.702,24.913 30.730,22.558 30.938,19.971 C30.938,19.971 29.616,19.971 29.616,19.971 C29.081,19.971 28.648,19.538 28.648,19.002 C28.648,18.467 29.081,18.034 29.616,18.034 C29.616,18.034 30.938,18.034 30.938,18.034 C30.730,15.447 29.702,13.091 28.109,11.226 ZM22.510,20.438 C22.504,20.493 22.487,20.547 22.472,20.600 C22.465,20.621 22.464,20.644 22.456,20.664 C22.438,20.713 22.411,20.757 22.386,20.801 C22.373,20.824 22.364,20.850 22.350,20.871 C22.330,20.901 22.303,20.925 22.280,20.952 C22.252,20.985 22.227,21.020 22.194,21.049 C22.193,21.050 22.192,21.051 22.191,21.053 C22.191,21.053 16.143,26.416 16.143,26.416 C15.962,26.577 15.732,26.660 15.500,26.660 C15.348,26.660 15.196,26.624 15.055,26.552 C14.700,26.368 14.494,25.984 14.537,25.587 C14.537,25.587 15.415,17.571 15.415,17.571 C15.415,17.570 15.416,17.568 15.416,17.567 C15.422,17.511 15.439,17.458 15.454,17.404 C15.461,17.383 15.462,17.361 15.470,17.340 C15.488,17.292 15.515,17.248 15.540,17.203 C15.553,17.180 15.562,17.155 15.576,17.133 C15.596,17.104 15.623,17.080 15.646,17.053 C15.674,17.020 15.699,16.985 15.732,16.956 C15.733,16.955 15.734,16.953 15.735,16.952 C15.735,16.952 21.783,11.588 21.783,11.588 C22.083,11.322 22.514,11.271 22.871,11.452 C23.226,11.637 23.432,12.021 23.389,12.418 C23.389,12.418 22.511,20.433 22.511,20.433 C22.511,20.435 22.510,20.436 22.510,20.438 ZM16.736,23.301 C16.736,23.301 19.846,20.544 19.846,20.544 C19.846,20.544 17.187,19.180 17.187,19.180 C17.187,19.180 16.736,23.301 16.736,23.301 ZM18.080,17.461 C18.080,17.461 20.739,18.824 20.739,18.824 C20.739,18.824 21.190,14.704 21.190,14.704 C21.190,14.704 18.080,17.461 18.080,17.461 Z" id="path-1" class="cls-2" fill-rule="evenodd"/>
</svg>
