<svg xmlns="http://www.w3.org/2000/svg" xmlns:xlink="http://www.w3.org/1999/xlink" preserveAspectRatio="xMidYMid" width="38" height="36" viewBox="0 0 38 36">
  <defs>
    <style>

      .cls-2 {
        fill: #2a1e30;
      }
    </style>
  </defs>
  <path d="M37.338,22.372 C36.985,23.545 36.282,24.417 35.305,24.894 C34.639,25.219 33.930,25.328 33.280,25.328 C32.614,25.328 32.017,25.215 31.582,25.102 C31.124,25.852 30.592,26.517 29.967,27.200 C28.934,28.327 27.735,28.879 26.381,29.883 C26.381,29.883 35.227,29.883 35.227,29.883 C36.183,29.883 36.952,30.661 37.097,31.661 C37.245,32.678 36.677,33.700 35.746,33.979 C32.088,35.073 22.163,35.903 17.257,35.903 C17.257,35.903 17.251,35.903 17.251,35.903 C12.923,35.903 3.947,34.845 1.307,33.921 C0.393,33.601 -0.125,32.605 0.045,31.596 C0.210,30.624 0.976,29.883 1.908,29.883 C1.908,29.883 10.596,29.883 10.596,29.883 C9.270,28.879 8.098,28.376 7.086,27.268 C2.244,21.961 2.889,14.021 2.918,13.682 C2.964,13.163 3.396,12.825 3.914,12.825 C3.914,12.825 33.229,12.825 33.229,12.825 C33.751,12.825 34.185,13.169 34.226,13.690 C34.236,13.814 34.318,14.921 34.177,16.604 C35.146,16.715 36.025,17.145 36.648,17.858 C37.630,18.981 37.875,20.585 37.338,22.372 ZM2.015,31.889 C2.013,31.889 1.800,31.995 1.805,32.007 C3.964,32.733 13.042,33.791 17.042,33.791 C22.274,33.791 31.950,32.914 35.156,31.962 C35.154,31.974 35.140,31.889 35.134,31.889 C35.134,31.889 2.015,31.889 2.015,31.889 ZM14.821,14.832 C14.821,14.832 14.821,16.839 14.821,16.839 C14.821,16.839 17.206,16.839 17.206,16.839 C17.496,16.839 17.772,16.808 17.961,17.027 C18.151,17.247 18.237,17.382 18.196,17.669 C18.196,17.669 17.112,25.314 17.112,25.314 C17.098,25.413 17.069,25.510 17.027,25.601 C16.355,27.042 14.952,27.943 13.365,27.943 C11.779,27.943 10.375,27.057 9.703,25.615 C9.661,25.525 9.633,25.450 9.619,25.351 C9.619,25.351 8.534,17.747 8.534,17.747 C8.494,17.459 8.579,17.246 8.769,17.027 C8.959,16.807 9.234,16.839 9.524,16.839 C9.524,16.839 12.821,16.839 12.821,16.839 C12.821,16.839 12.821,14.832 12.821,14.832 C12.821,14.832 4.880,14.832 4.880,14.832 C4.871,16.839 5.208,22.408 8.570,26.084 C10.869,28.597 14.202,29.883 18.477,29.883 C18.477,29.883 18.592,29.883 18.592,29.883 C22.851,29.883 26.183,28.557 28.494,26.033 C31.868,22.349 32.248,16.839 32.256,14.832 C32.256,14.832 14.821,14.832 14.821,14.832 ZM10.677,18.845 C10.677,18.845 11.576,25.064 11.576,25.064 C11.937,25.730 12.597,26.006 13.365,26.006 C14.134,26.006 14.793,25.691 15.155,25.024 C15.155,25.024 16.054,18.845 16.054,18.845 C16.054,18.845 10.677,18.845 10.677,18.845 ZM35.144,19.181 C34.845,18.839 34.417,18.642 33.926,18.594 C33.679,20.036 33.249,21.653 32.542,23.252 C33.134,23.348 33.866,23.367 34.435,23.087 C34.908,22.854 35.231,22.431 35.423,21.792 C35.754,20.692 35.655,19.765 35.144,19.181 ZM20.561,9.325 C20.948,9.707 20.969,10.339 20.597,10.736 C20.398,10.948 20.131,11.057 19.865,11.057 C19.631,11.057 19.398,10.973 19.209,10.804 C19.114,10.718 16.906,8.666 19.013,5.033 C20.253,2.896 19.306,1.861 19.193,1.751 C18.807,1.368 18.786,0.737 19.158,0.340 C19.531,-0.057 20.142,-0.090 20.545,0.272 C20.641,0.357 22.848,2.410 20.742,6.043 C19.501,8.180 20.449,9.214 20.561,9.325 ZM16.913,9.325 C17.299,9.707 17.320,10.339 16.948,10.736 C16.750,10.948 16.483,11.057 16.216,11.057 C15.983,11.057 15.749,10.973 15.561,10.804 C15.465,10.718 13.257,8.666 15.364,5.033 C16.604,2.896 15.657,1.861 15.545,1.751 C15.158,1.368 15.137,0.737 15.509,0.340 C15.882,-0.057 16.493,-0.090 16.897,0.272 C16.992,0.357 19.200,2.410 17.093,6.043 C15.853,8.180 16.800,9.214 16.913,9.325 Z" id="path-1" class="cls-2" fill-rule="evenodd"/>
</svg>
