<svg xmlns="http://www.w3.org/2000/svg" xmlns:xlink="http://www.w3.org/1999/xlink" preserveAspectRatio="xMidYMid" width="38" height="37" viewBox="0 0 38 37">
  <defs>
    <style>

      .cls-2 {
        fill: #2a1e30;
      }
    </style>
  </defs>
  <path d="M35.238,22.605 C35.074,22.717 34.883,22.774 34.692,22.774 C34.549,22.774 34.407,22.743 34.273,22.680 C33.962,22.531 33.751,22.225 33.719,21.877 C33.715,21.834 33.294,17.510 30.478,16.363 C27.409,15.111 22.661,16.386 22.613,16.400 C22.315,16.480 21.995,16.416 21.753,16.223 C20.898,15.541 18.279,13.850 16.494,14.178 C16.106,14.256 15.716,14.079 15.501,13.746 C15.501,13.746 13.187,10.150 13.187,10.150 C12.894,9.694 13.022,9.084 13.473,8.787 C13.925,8.489 14.528,8.619 14.822,9.076 C14.822,9.076 16.811,12.168 16.811,12.168 C19.161,12.080 21.606,13.680 22.573,14.381 C23.967,14.060 28.122,13.279 31.207,14.535 C33.530,15.482 34.656,17.734 35.193,19.466 C35.636,18.513 36.050,17.045 36.050,14.892 C36.050,10.262 33.005,8.683 32.975,8.668 C32.492,8.425 32.295,7.835 32.534,7.347 C32.773,6.861 33.359,6.663 33.840,6.901 C34.010,6.987 38.000,9.052 38.000,14.892 C38.000,20.644 35.350,22.528 35.238,22.605 ZM9.124,36.013 C8.943,36.327 8.616,36.501 8.281,36.501 C8.114,36.501 7.945,36.458 7.791,36.367 C7.326,36.092 7.169,35.489 7.441,35.018 C7.441,35.018 10.395,29.909 10.395,29.909 C9.843,28.786 8.511,25.937 7.800,23.227 C7.040,20.326 8.190,18.369 9.275,17.397 C8.962,16.603 8.486,15.483 8.091,14.855 C7.862,14.805 7.244,15.032 6.794,15.172 C5.933,15.440 4.860,15.774 3.639,15.808 C2.741,15.841 1.934,15.533 1.322,14.942 C0.085,13.748 0.011,11.787 0.007,11.567 C0.001,11.231 0.164,10.914 0.441,10.728 C0.580,10.633 3.701,8.531 5.540,7.359 C5.888,6.266 6.894,4.208 9.584,3.808 C9.584,3.808 9.161,1.130 9.161,1.130 C9.076,0.593 9.438,0.088 9.970,0.002 C10.509,-0.084 11.002,0.283 11.086,0.820 C11.086,0.820 11.678,4.573 11.678,4.573 C11.724,4.863 11.640,5.157 11.449,5.378 C11.258,5.598 10.970,5.699 10.690,5.714 C8.290,5.633 7.551,7.257 7.323,8.222 C7.264,8.475 7.108,8.693 6.890,8.831 C5.532,9.683 3.052,11.341 2.007,12.042 C2.118,12.739 2.451,13.877 3.586,13.837 C4.541,13.811 5.434,13.534 6.221,13.288 C7.464,12.901 8.871,12.464 9.690,13.724 C10.466,14.920 11.332,17.310 11.369,17.411 C11.535,17.872 11.341,18.386 10.914,18.617 C10.717,18.730 8.931,19.847 9.685,22.722 C10.519,25.904 12.350,29.448 12.368,29.484 C12.524,29.785 12.516,30.146 12.347,30.439 C12.347,30.439 9.124,36.013 9.124,36.013 ZM15.584,26.868 C18.220,26.690 19.808,24.742 19.824,24.723 C19.967,24.544 20.167,24.422 20.390,24.377 C20.390,24.377 24.112,23.623 24.112,23.623 C24.385,21.184 26.084,19.610 26.181,19.522 C26.581,19.160 27.198,19.195 27.557,19.599 C27.915,20.005 27.882,20.625 27.483,20.988 C27.385,21.080 25.303,23.051 26.298,25.768 C27.223,28.296 28.934,28.157 29.127,28.130 C29.468,28.089 29.828,28.228 30.039,28.508 C30.039,28.508 31.354,30.250 31.354,30.250 C31.587,30.558 31.619,30.975 31.436,31.317 C31.436,31.317 28.673,36.473 28.673,36.473 C28.497,36.802 28.162,36.989 27.815,36.989 C27.659,36.989 27.500,36.951 27.352,36.870 C26.878,36.611 26.702,36.013 26.959,35.534 C26.959,35.534 29.422,30.939 29.422,30.939 C29.422,30.939 28.795,30.109 28.795,30.109 C27.492,30.048 25.494,29.253 24.469,26.451 C24.364,26.164 24.288,25.884 24.226,25.610 C24.226,25.610 21.089,26.246 21.089,26.246 C20.435,26.935 18.542,28.644 15.714,28.835 C15.692,28.836 15.670,28.837 15.648,28.837 C15.139,28.837 14.711,28.438 14.677,27.917 C14.640,27.374 15.047,26.905 15.584,26.868 Z" id="path-1" class="cls-2" fill-rule="evenodd"/>
</svg>
