<svg xmlns="http://www.w3.org/2000/svg" xmlns:xlink="http://www.w3.org/1999/xlink" preserveAspectRatio="xMidYMid" width="38" height="36" viewBox="0 0 38 36">
  <defs>
    <style>

      .cls-2 {
        fill: #2a1e30;
      }
    </style>
  </defs>
  <path d="M37.031,8.750 C37.457,9.371 37.598,10.139 37.438,10.972 C37.265,11.878 36.791,12.592 36.067,13.037 C34.975,13.708 33.362,13.763 31.151,13.195 C30.851,13.741 30.463,14.404 30.163,14.906 C33.951,18.324 35.417,23.327 33.811,27.610 C31.850,32.837 25.953,35.834 17.828,35.834 C17.099,35.834 16.351,35.810 15.587,35.761 C5.332,35.105 0.875,28.882 0.122,23.277 C-0.414,19.283 0.909,15.781 3.267,14.952 C4.698,14.446 5.971,14.513 7.052,15.146 C7.800,15.583 8.317,16.228 8.679,16.853 C8.777,16.748 8.852,16.630 8.959,16.530 C11.017,14.595 14.217,14.038 16.406,13.898 C15.297,12.173 14.696,9.831 14.834,8.041 C15.015,5.682 16.094,3.556 17.871,2.054 C19.631,0.565 21.885,-0.148 24.215,0.034 C26.679,0.229 28.954,1.498 30.456,3.479 C32.689,2.510 34.346,2.312 35.506,2.868 C36.034,3.121 36.724,3.666 37.006,4.820 C37.196,5.597 37.237,6.830 36.111,7.885 C36.494,8.126 36.800,8.413 37.031,8.750 ZM35.401,9.905 C35.260,9.700 34.830,9.324 33.535,9.110 C33.086,9.035 32.743,8.661 32.704,8.200 C32.665,7.739 32.940,7.311 33.370,7.160 C35.360,6.463 35.162,5.653 35.077,5.307 C34.975,4.893 34.799,4.761 34.656,4.693 C34.337,4.538 33.293,4.325 30.539,5.656 C30.081,5.876 29.534,5.713 29.267,5.276 C28.117,3.394 26.220,2.217 24.060,2.047 C22.248,1.904 20.502,2.457 19.143,3.605 C17.782,4.756 16.955,6.387 16.816,8.199 C16.654,10.301 17.862,13.238 19.211,14.018 C19.255,14.044 19.282,14.085 19.321,14.116 C19.380,14.163 19.440,14.205 19.487,14.263 C19.528,14.315 19.552,14.375 19.582,14.433 C19.611,14.490 19.646,14.541 19.664,14.602 C19.687,14.677 19.688,14.755 19.693,14.834 C19.696,14.881 19.713,14.924 19.709,14.972 C19.709,14.979 19.705,14.984 19.704,14.991 C19.698,15.062 19.668,15.128 19.646,15.198 C19.628,15.256 19.618,15.319 19.590,15.372 C19.586,15.379 19.586,15.388 19.582,15.395 C19.549,15.454 19.498,15.492 19.456,15.541 C19.420,15.583 19.391,15.631 19.349,15.666 C19.278,15.726 19.197,15.764 19.115,15.801 C19.081,15.816 19.053,15.838 19.018,15.850 C18.935,15.877 18.850,15.881 18.762,15.885 C18.722,15.888 18.685,15.904 18.644,15.902 C18.587,15.899 12.975,15.502 10.307,18.015 C9.390,18.878 8.944,19.976 8.944,21.372 C8.944,22.719 9.376,23.763 10.264,24.566 C12.983,27.021 18.872,26.348 18.932,26.340 C19.475,26.278 19.971,26.671 20.035,27.223 C20.100,27.777 19.711,28.278 19.167,28.344 C19.073,28.355 18.251,28.451 17.076,28.451 C14.797,28.451 11.183,28.094 8.947,26.078 C7.626,24.887 6.956,23.303 6.956,21.372 C6.956,20.466 7.116,19.639 7.401,18.880 C7.263,18.408 6.877,17.368 6.052,16.890 C5.487,16.562 4.788,16.552 3.918,16.858 C2.700,17.287 1.656,19.759 2.092,23.005 C2.405,25.340 4.315,33.018 15.712,33.746 C24.068,34.274 30.142,31.718 31.953,26.892 C33.340,23.192 31.855,18.781 28.255,15.917 C27.857,15.600 27.757,15.029 28.023,14.593 C28.579,13.679 29.533,12.060 29.729,11.604 C29.929,11.136 30.443,10.892 30.924,11.039 C33.582,11.841 34.642,11.554 35.037,11.311 C35.201,11.209 35.401,11.036 35.487,10.586 C35.562,10.197 35.473,10.011 35.401,9.905 ZM24.112,11.840 C24.112,11.840 24.112,11.840 24.112,11.840 C24.021,11.840 23.929,11.836 23.837,11.830 C22.901,11.757 22.050,11.326 21.440,10.614 C20.830,9.903 20.534,8.997 20.608,8.065 C20.756,6.163 22.455,4.712 24.384,4.845 C26.315,4.995 27.763,6.684 27.613,8.610 C27.470,10.421 25.932,11.840 24.112,11.840 ZM24.216,6.840 C24.212,6.840 24.209,6.840 24.206,6.840 C23.295,6.840 22.631,7.446 22.569,8.214 C22.537,8.615 22.666,9.001 22.931,9.305 C23.197,9.608 23.568,9.792 23.975,9.823 C23.975,9.823 24.100,9.828 24.100,9.828 C24.891,9.828 25.560,9.223 25.622,8.449 C25.687,7.627 25.057,6.904 24.216,6.840 Z" id="path-1" class="cls-2" fill-rule="evenodd"/>
</svg>
