<svg xmlns="http://www.w3.org/2000/svg" xmlns:xlink="http://www.w3.org/1999/xlink" preserveAspectRatio="xMidYMid" width="38" height="34" viewBox="0 0 38 34">
  <defs>
    <style>

      .cls-2 {
        fill: #2a1e30;
      }
    </style>
  </defs>
  <path d="M37.619,21.383 C37.335,23.792 35.836,25.609 34.131,25.609 C34.052,25.609 33.973,25.606 33.894,25.598 C33.621,25.571 33.363,25.489 33.117,25.373 C30.339,30.211 25.067,33.403 19.023,33.403 C13.328,33.403 8.321,30.567 5.437,26.194 C5.437,26.194 5.641,29.015 5.641,29.015 C6.670,29.361 7.416,30.310 7.416,31.436 C7.416,32.852 6.242,34.005 4.800,34.005 C3.358,34.005 2.184,32.852 2.184,31.436 C2.184,30.439 2.772,29.581 3.621,29.156 C3.621,29.156 3.363,25.574 3.363,25.574 C1.934,25.226 0.682,23.781 0.193,21.819 C-0.178,20.335 -0.013,18.830 0.634,17.795 C0.792,17.542 0.982,17.333 1.185,17.148 C1.316,7.668 9.197,-0.006 18.879,-0.006 C28.639,-0.006 36.581,7.793 36.583,17.379 C36.621,17.421 36.664,17.454 36.700,17.499 C37.453,18.417 37.797,19.869 37.619,21.383 ZM19.023,31.414 C26.170,31.414 32.081,26.422 33.029,19.471 C33.029,19.471 27.417,21.747 27.417,21.747 C27.505,22.068 27.567,22.399 27.567,22.747 C27.567,24.881 25.800,26.618 23.627,26.618 C21.454,26.618 19.687,24.881 19.687,22.747 C19.687,22.657 19.707,22.573 19.713,22.485 C19.713,22.485 18.341,22.485 18.341,22.485 C18.347,22.573 18.368,22.657 18.368,22.747 C18.368,24.900 16.585,26.652 14.393,26.652 C12.201,26.652 10.417,24.900 10.417,22.747 C10.417,22.402 10.478,22.073 10.564,21.754 C10.564,21.754 4.954,19.053 4.954,19.053 C5.714,26.224 11.732,31.414 19.023,31.414 ZM14.393,18.842 C15.730,18.842 16.909,19.499 17.630,20.496 C17.630,20.496 20.435,20.496 20.435,20.496 C21.151,19.520 22.311,18.909 23.627,18.909 C24.710,18.909 25.692,19.373 26.405,20.071 C26.405,20.071 30.419,18.507 30.419,18.507 C30.419,18.507 8.152,18.507 8.152,18.507 C8.152,18.507 11.557,20.082 11.557,20.082 C12.279,19.358 13.282,18.842 14.393,18.842 ZM12.443,22.747 C12.443,23.803 13.318,24.663 14.393,24.663 C15.468,24.663 16.343,23.803 16.343,22.747 C16.343,21.691 15.468,20.831 14.393,20.831 C13.318,20.831 12.443,21.691 12.443,22.747 ZM21.712,22.747 C21.712,23.784 22.570,24.629 23.627,24.629 C24.683,24.629 25.542,23.784 25.542,22.747 C25.542,21.710 24.683,20.866 23.627,20.866 C22.570,20.866 21.712,21.710 21.712,22.747 ZM2.849,18.446 C2.840,18.448 2.830,18.448 2.821,18.450 C2.651,18.488 2.496,18.618 2.360,18.835 C2.074,19.292 1.872,20.192 2.159,21.345 C2.367,22.175 2.771,22.836 3.194,23.240 C3.194,23.240 2.849,18.446 2.849,18.446 ZM18.879,1.983 C17.505,1.983 16.178,2.173 14.907,2.500 C14.910,2.533 14.926,2.561 14.926,2.594 C14.926,2.594 14.926,8.566 14.926,8.566 C14.926,11.075 16.190,12.294 18.790,12.294 C21.720,12.294 23.027,11.144 23.027,8.566 C23.027,8.566 23.027,2.594 23.027,2.594 C23.027,2.577 23.036,2.562 23.037,2.545 C21.711,2.186 20.319,1.983 18.879,1.983 ZM25.052,3.240 C25.052,3.240 25.052,8.566 25.052,8.566 C25.052,12.253 22.828,14.283 18.790,14.283 C15.047,14.283 12.901,12.200 12.901,8.566 C12.901,8.566 12.901,3.151 12.901,3.151 C7.509,5.344 3.621,10.550 3.230,16.518 C3.230,16.518 34.526,16.518 34.526,16.518 C34.141,10.550 30.340,5.476 25.052,3.240 ZM35.138,18.780 C35.005,20.476 34.617,22.088 34.000,23.579 C34.032,23.592 34.061,23.616 34.096,23.620 C34.096,23.620 34.131,23.623 34.131,23.623 C34.614,23.623 35.430,22.665 35.607,21.159 C35.743,20.006 35.442,19.167 35.138,18.780 ZM17.964,27.458 C17.964,27.458 19.989,27.458 19.989,27.458 C20.548,27.458 21.002,27.903 21.002,28.452 C21.002,29.002 20.548,29.447 19.989,29.447 C19.989,29.447 17.964,29.447 17.964,29.447 C17.405,29.447 16.951,29.002 16.951,28.452 C16.951,27.903 17.405,27.458 17.964,27.458 Z" id="path-1" class="cls-2" fill-rule="evenodd"/>
</svg>
