<svg xmlns="http://www.w3.org/2000/svg" xmlns:xlink="http://www.w3.org/1999/xlink" preserveAspectRatio="xMidYMid" width="40" height="37" viewBox="0 0 40 37">
  <defs>
    <style>

      .cls-2 {
        fill: #2a1e30;
      }
    </style>
  </defs>
  <path d="M36.785,24.558 C36.785,24.558 16.986,24.558 16.986,24.558 C15.295,24.558 13.920,23.179 13.920,21.484 C13.920,21.484 13.920,18.084 13.920,18.084 C13.920,17.374 14.171,16.728 14.575,16.207 C14.575,16.207 14.299,9.775 14.299,9.775 C13.691,10.034 13.023,10.177 12.322,10.177 C11.248,10.177 10.253,9.836 9.431,9.262 C9.431,9.262 6.539,13.699 6.539,13.699 C6.807,13.929 7.049,14.194 7.252,14.494 C7.252,14.494 14.176,24.705 14.176,24.705 C14.356,24.888 14.467,25.141 14.467,25.418 C14.467,25.977 14.015,26.430 13.457,26.430 C13.450,26.429 13.444,26.429 13.437,26.430 C13.437,26.430 3.982,26.430 3.982,26.430 C1.791,26.430 0.008,24.616 0.008,22.388 C0.008,22.388 0.008,16.790 0.008,16.790 C0.008,14.771 1.492,13.048 3.460,12.783 C3.881,12.725 4.297,12.744 4.700,12.820 C4.700,12.820 8.010,7.743 8.010,7.743 C7.531,6.966 7.241,6.060 7.241,5.081 C7.241,2.271 9.521,-0.016 12.322,-0.016 C15.124,-0.016 17.404,2.271 17.404,5.081 C17.404,6.293 16.962,7.392 16.255,8.268 C16.255,8.268 16.547,15.054 16.547,15.054 C16.691,15.033 16.836,15.010 16.986,15.010 C16.986,15.010 17.926,15.010 17.926,15.010 C17.926,15.010 17.982,12.329 17.982,12.329 C18.014,10.797 18.684,9.333 19.821,8.311 C19.821,8.311 22.697,5.728 22.697,5.728 C23.713,4.815 25.024,4.313 26.388,4.313 C26.388,4.313 28.458,4.313 28.458,4.313 C31.472,4.313 33.921,6.745 33.979,9.754 C36.125,10.216 37.741,12.129 37.741,14.417 C37.741,14.417 37.741,15.178 37.741,15.178 C38.962,15.583 39.851,16.726 39.851,18.084 C39.851,18.084 39.851,21.484 39.851,21.484 C39.851,23.179 38.476,24.558 36.785,24.558 ZM3.982,14.773 C3.898,14.773 3.813,14.778 3.729,14.790 C2.759,14.920 2.027,15.781 2.027,16.790 C2.027,16.790 2.027,22.388 2.027,22.388 C2.027,23.500 2.904,24.405 3.982,24.405 C3.982,24.405 11.530,24.405 11.530,24.405 C11.530,24.405 5.582,15.633 5.582,15.633 C5.217,15.095 4.619,14.773 3.982,14.773 ZM12.322,2.010 C10.634,2.010 9.260,3.387 9.260,5.081 C9.260,6.774 10.634,8.152 12.322,8.152 C14.011,8.152 15.385,6.774 15.385,5.081 C15.385,3.387 14.011,2.010 12.322,2.010 ZM31.971,10.656 C31.971,10.656 31.971,9.860 31.971,9.860 C31.971,7.918 30.395,6.338 28.458,6.338 C28.458,6.338 26.388,6.338 26.388,6.338 C25.522,6.338 24.689,6.657 24.044,7.237 C24.044,7.237 21.169,9.820 21.169,9.820 C20.447,10.469 20.021,11.398 20.001,12.370 C20.001,12.370 19.947,14.969 19.947,14.969 C19.947,14.969 31.971,14.911 31.971,14.911 C31.971,14.911 31.971,10.656 31.971,10.656 ZM35.722,14.417 C35.722,13.259 35.003,12.266 33.990,11.862 C33.990,11.862 33.990,14.906 33.990,14.906 C33.990,14.906 35.722,14.905 35.722,14.905 C35.722,14.905 35.722,14.417 35.722,14.417 ZM37.831,18.084 C37.831,17.505 37.362,17.035 36.785,17.035 C36.785,17.035 16.986,17.035 16.986,17.035 C16.409,17.035 15.940,17.505 15.940,18.084 C15.940,18.084 15.940,21.484 15.940,21.484 C15.940,22.062 16.409,22.533 16.986,22.533 C16.986,22.533 36.785,22.533 36.785,22.533 C37.362,22.533 37.831,22.062 37.831,21.484 C37.831,21.484 37.831,18.084 37.831,18.084 ZM19.044,26.084 C19.044,26.084 34.642,26.084 34.642,26.084 C37.590,26.084 39.988,28.489 39.988,31.446 C39.988,34.377 37.611,36.782 34.689,36.808 C34.689,36.808 19.091,36.959 19.091,36.959 C19.088,36.959 19.047,36.959 19.044,36.959 C16.106,36.959 13.708,34.562 13.698,31.614 C13.698,31.614 13.698,31.460 13.698,31.460 C13.693,30.028 14.246,28.678 15.257,27.661 C16.267,26.645 17.612,26.084 19.044,26.084 ZM15.878,31.610 C15.883,33.352 17.304,34.773 19.044,34.773 C19.044,34.773 19.072,34.773 19.072,34.773 C19.072,34.773 34.669,34.622 34.669,34.622 C36.401,34.607 37.809,33.182 37.809,31.446 C37.809,29.696 36.388,28.270 34.642,28.270 C34.642,28.270 19.044,28.270 19.044,28.270 C18.196,28.270 17.399,28.602 16.801,29.204 C16.203,29.806 15.875,30.606 15.878,31.457 C15.878,31.457 15.878,31.610 15.878,31.610 ZM19.121,28.941 C20.557,28.941 21.725,30.113 21.725,31.552 C21.725,32.992 20.557,34.163 19.121,34.163 C17.685,34.163 16.518,32.992 16.518,31.552 C16.518,30.113 17.685,28.941 19.121,28.941 ZM19.121,32.138 C19.443,32.138 19.705,31.875 19.705,31.552 C19.705,31.229 19.443,30.966 19.121,30.966 C18.799,30.966 18.537,31.229 18.537,31.552 C18.537,31.875 18.799,32.138 19.121,32.138 ZM26.843,28.941 C28.279,28.941 29.447,30.113 29.447,31.552 C29.447,32.992 28.279,34.163 26.843,34.163 C25.407,34.163 24.239,32.992 24.239,31.552 C24.239,30.113 25.407,28.941 26.843,28.941 ZM26.843,32.138 C27.165,32.138 27.427,31.875 27.427,31.552 C27.427,31.229 27.165,30.966 26.843,30.966 C26.521,30.966 26.259,31.229 26.259,31.552 C26.259,31.875 26.521,32.138 26.843,32.138 ZM34.570,28.941 C36.005,28.941 37.173,30.113 37.173,31.552 C37.173,32.992 36.005,34.163 34.570,34.163 C33.134,34.163 31.966,32.992 31.966,31.552 C31.966,30.113 33.134,28.941 34.570,28.941 ZM34.570,32.138 C34.892,32.138 35.154,31.875 35.154,31.552 C35.154,31.229 34.892,30.966 34.570,30.966 C34.247,30.966 33.985,31.229 33.985,31.552 C33.985,31.875 34.247,32.138 34.570,32.138 Z" id="path-1" class="cls-2" fill-rule="evenodd"/>
</svg>
