<svg xmlns="http://www.w3.org/2000/svg" xmlns:xlink="http://www.w3.org/1999/xlink" preserveAspectRatio="xMidYMid" width="38" height="33" viewBox="0 0 38 33">
  <defs>
    <style>

      .cls-2 {
        fill: #2a1e30;
      }
    </style>
  </defs>
  <path d="M36.617,15.485 C36.617,15.485 36.617,28.906 36.617,28.906 C36.617,31.167 34.761,33.007 32.480,33.007 C32.480,33.007 5.519,33.007 5.519,33.007 C3.238,33.007 1.382,31.167 1.382,28.906 C1.382,28.906 1.382,15.485 1.382,15.485 C0.558,14.976 0.004,14.076 0.004,13.044 C0.004,13.044 0.004,12.225 0.004,12.225 C0.004,8.045 3.435,4.643 7.653,4.643 C7.653,4.643 11.355,4.643 11.355,4.643 C11.798,1.570 14.337,-0.003 18.964,-0.003 C23.592,-0.003 26.131,1.570 26.574,4.643 C26.574,4.643 30.346,4.643 30.346,4.643 C34.564,4.643 37.995,8.045 37.995,12.225 C37.995,12.225 37.995,13.044 37.995,13.044 C37.995,14.076 37.441,14.976 36.617,15.485 ZM3.391,28.906 C3.391,30.069 4.346,31.016 5.519,31.016 C5.519,31.016 32.480,31.016 32.480,31.016 C33.654,31.016 34.608,30.069 34.608,28.906 C34.608,28.906 34.608,15.926 34.608,15.926 C34.608,15.926 29.104,15.926 29.104,15.926 C29.104,15.926 29.104,17.572 29.104,17.572 C29.104,18.122 28.654,18.567 28.099,18.567 C27.545,18.567 27.095,18.122 27.095,17.572 C27.095,17.572 27.095,15.926 27.095,15.926 C27.095,15.926 10.904,15.926 10.904,15.926 C10.904,15.926 10.904,17.572 10.904,17.572 C10.904,18.122 10.454,18.567 9.900,18.567 C9.345,18.567 8.896,18.122 8.896,17.572 C8.896,17.572 8.896,15.926 8.896,15.926 C8.896,15.926 3.391,15.926 3.391,15.926 C3.391,15.926 3.391,28.906 3.391,28.906 ZM18.964,1.988 C14.892,1.988 13.686,3.259 13.372,4.643 C13.372,4.643 24.557,4.643 24.557,4.643 C24.243,3.259 23.037,1.988 18.964,1.988 ZM35.987,12.225 C35.987,9.142 33.456,6.634 30.346,6.634 C30.346,6.634 7.653,6.634 7.653,6.634 C4.543,6.634 2.012,9.142 2.012,12.225 C2.012,12.225 2.012,13.044 2.012,13.044 C2.012,13.536 2.416,13.936 2.911,13.936 C2.911,13.936 8.896,13.936 8.896,13.936 C8.896,13.936 8.896,11.287 8.896,11.287 C8.896,10.737 9.345,10.292 9.900,10.292 C10.454,10.292 10.904,10.737 10.904,11.287 C10.904,11.287 10.904,13.936 10.904,13.936 C10.904,13.936 27.095,13.936 27.095,13.936 C27.095,13.936 27.095,11.287 27.095,11.287 C27.095,10.737 27.545,10.292 28.099,10.292 C28.654,10.292 29.104,10.737 29.104,11.287 C29.104,11.287 29.104,13.936 29.104,13.936 C29.104,13.936 35.088,13.936 35.088,13.936 C35.584,13.936 35.987,13.536 35.987,13.044 C35.987,13.044 35.987,12.225 35.987,12.225 ZM15.438,22.680 C15.438,22.680 17.995,22.619 17.995,22.619 C17.995,22.619 17.995,20.094 17.995,20.094 C17.995,19.543 18.445,19.098 19.000,19.098 C19.554,19.098 20.004,19.543 20.004,20.094 C20.004,20.094 20.004,22.571 20.004,22.571 C20.004,22.571 22.514,22.511 22.514,22.511 C23.019,22.505 23.528,22.932 23.541,23.482 C23.555,24.032 23.116,24.488 22.562,24.502 C22.562,24.502 20.004,24.563 20.004,24.563 C20.004,24.563 20.004,27.258 20.004,27.258 C20.004,27.808 19.554,28.253 19.000,28.253 C18.445,28.253 17.995,27.808 17.995,27.258 C17.995,27.258 17.995,24.611 17.995,24.611 C17.995,24.611 15.486,24.671 15.486,24.671 C15.478,24.671 15.469,24.671 15.461,24.671 C14.918,24.671 14.471,24.241 14.458,23.700 C14.444,23.149 14.883,22.694 15.438,22.680 Z" id="path-1" class="cls-2" fill-rule="evenodd"/>
</svg>
