<svg xmlns="http://www.w3.org/2000/svg" xmlns:xlink="http://www.w3.org/1999/xlink" preserveAspectRatio="xMidYMid" width="38" height="27" viewBox="0 0 38 27">
  <defs>
    <style>

      .cls-2 {
        fill: #2a1e30;
      }
    </style>
  </defs>
  <path d="M37.061,8.266 C35.851,7.040 33.743,7.039 32.533,8.267 C32.494,8.307 32.466,8.355 32.429,8.396 C32.429,8.396 29.866,7.436 29.866,7.436 C29.796,6.686 29.489,5.987 28.958,5.449 C27.748,4.221 25.640,4.221 24.429,5.449 C23.553,6.339 23.306,7.617 23.660,8.741 C23.660,8.741 20.885,11.056 20.885,11.056 C20.004,10.409 18.825,10.269 17.818,10.650 C17.818,10.650 13.766,4.999 13.766,4.999 C14.109,4.473 14.294,3.857 14.294,3.213 C14.294,2.344 13.961,1.527 13.356,0.914 C12.146,-0.313 10.036,-0.312 8.827,0.913 C8.222,1.527 7.889,2.344 7.889,3.213 C7.889,4.081 8.222,4.898 8.827,5.512 C8.870,5.555 8.920,5.587 8.965,5.627 C8.965,5.627 3.007,20.540 3.007,20.540 C2.242,20.583 1.491,20.876 0.933,21.443 C-0.316,22.711 -0.316,24.773 0.932,26.041 C1.537,26.655 2.341,26.993 3.197,26.993 C4.053,26.993 4.857,26.655 5.461,26.041 C6.710,24.773 6.710,22.711 5.462,21.443 C5.374,21.353 5.272,21.284 5.174,21.208 C5.174,21.208 11.066,6.461 11.066,6.461 C11.074,6.461 11.082,6.464 11.091,6.464 C11.382,6.464 11.662,6.411 11.934,6.336 C11.934,6.336 16.137,12.197 16.137,12.197 C15.914,12.645 15.783,13.137 15.783,13.654 C15.783,14.522 16.116,15.340 16.720,15.953 C17.326,16.566 18.130,16.905 18.985,16.905 C19.841,16.905 20.645,16.566 21.249,15.954 C21.855,15.340 22.188,14.522 22.188,13.654 C22.188,13.428 22.163,13.206 22.119,12.989 C22.119,12.989 25.063,10.534 25.063,10.534 C25.553,10.830 26.109,10.999 26.694,10.999 C27.549,10.999 28.353,10.661 28.958,10.048 C29.077,9.926 29.178,9.792 29.275,9.656 C29.275,9.656 31.599,10.527 31.599,10.527 C31.598,10.540 31.595,10.553 31.595,10.566 C31.595,11.435 31.928,12.253 32.532,12.865 C33.138,13.479 33.942,13.818 34.797,13.818 C35.652,13.818 36.456,13.479 37.062,12.865 C37.666,12.251 37.999,11.435 37.999,10.566 C37.999,9.699 37.667,8.882 37.061,8.266 ZM3.866,24.422 C3.509,24.786 2.885,24.786 2.527,24.422 C2.158,24.047 2.158,23.436 2.528,23.062 C2.706,22.880 2.944,22.780 3.197,22.780 C3.450,22.780 3.688,22.880 3.867,23.062 C4.236,23.436 4.236,24.047 3.866,24.422 ZM10.422,2.533 C10.600,2.351 10.838,2.252 11.091,2.252 C11.344,2.252 11.582,2.351 11.761,2.535 C11.940,2.716 12.038,2.956 12.038,3.213 C12.038,3.469 11.940,3.711 11.761,3.893 C11.404,4.255 10.778,4.255 10.422,3.893 C10.243,3.711 10.144,3.469 10.144,3.213 C10.144,2.956 10.243,2.716 10.422,2.533 ZM19.654,14.333 C19.298,14.698 18.674,14.699 18.315,14.332 C18.137,14.151 18.038,13.911 18.038,13.654 C18.038,13.398 18.137,13.156 18.316,12.974 C18.495,12.792 18.733,12.692 18.985,12.692 C19.238,12.692 19.476,12.792 19.655,12.974 C19.834,13.156 19.932,13.398 19.932,13.654 C19.932,13.911 19.834,14.151 19.654,14.333 ZM27.363,8.428 C27.007,8.791 26.381,8.791 26.025,8.428 C25.655,8.054 25.655,7.442 26.024,7.068 C26.203,6.886 26.441,6.787 26.694,6.787 C26.947,6.787 27.185,6.886 27.363,7.068 C27.733,7.443 27.733,8.053 27.363,8.428 ZM35.467,11.246 C35.109,11.609 34.486,11.612 34.127,11.245 C33.949,11.064 33.850,10.824 33.850,10.566 C33.850,10.310 33.949,10.069 34.128,9.887 C34.306,9.705 34.544,9.606 34.797,9.606 C35.050,9.606 35.288,9.705 35.466,9.887 C35.645,10.068 35.744,10.310 35.744,10.566 C35.744,10.824 35.646,11.065 35.467,11.246 Z" id="path-1" class="cls-2" fill-rule="evenodd"/>
</svg>
