<svg xmlns="http://www.w3.org/2000/svg" xmlns:xlink="http://www.w3.org/1999/xlink" preserveAspectRatio="xMidYMid" width="38" height="21" viewBox="0 0 38 21">
  <defs>
    <style>

      .cls-2 {
        fill: #2a1e30;
      }
    </style>
  </defs>
  <path d="M33.945,-0.013 C31.711,-0.013 29.893,1.830 29.893,4.094 C29.893,4.858 30.113,5.565 30.473,6.178 C30.473,6.178 21.796,14.970 21.796,14.970 C21.796,14.970 15.843,2.364 15.843,2.364 C15.843,2.364 5.962,13.248 5.962,13.248 C5.391,12.936 4.748,12.743 4.055,12.743 C1.820,12.743 0.002,14.585 0.002,16.849 C0.002,19.114 1.820,20.956 4.055,20.956 C6.289,20.956 8.107,19.114 8.107,16.849 C8.107,16.024 7.861,15.258 7.446,14.613 C7.446,14.613 15.313,5.948 15.313,5.948 C15.313,5.948 21.211,18.435 21.211,18.435 C21.211,18.435 31.890,7.613 31.890,7.613 C32.495,7.978 33.192,8.201 33.945,8.201 C36.180,8.201 37.998,6.358 37.998,4.094 C37.998,1.830 36.180,-0.013 33.945,-0.013 ZM4.055,18.925 C2.925,18.925 2.006,17.994 2.006,16.849 C2.006,15.705 2.925,14.773 4.055,14.773 C5.184,14.773 6.103,15.705 6.103,16.849 C6.103,17.994 5.184,18.925 4.055,18.925 ZM33.945,6.170 C32.815,6.170 31.897,5.239 31.897,4.094 C31.897,2.949 32.815,2.018 33.945,2.018 C35.075,2.018 35.994,2.949 35.994,4.094 C35.994,5.239 35.075,6.170 33.945,6.170 Z" id="path-1" class="cls-2" fill-rule="evenodd"/>
</svg>
