<svg xmlns="http://www.w3.org/2000/svg" xmlns:xlink="http://www.w3.org/1999/xlink" preserveAspectRatio="xMidYMid" width="37" height="35" viewBox="0 0 37 35">
  <defs>
    <style>

      .cls-2 {
        fill: #2a1e30;
      }
    </style>
  </defs>
  <path d="M30.382,23.736 C30.678,24.307 30.861,24.945 30.861,25.630 C30.861,27.934 28.973,29.808 26.653,29.808 C24.333,29.808 22.445,27.934 22.445,25.630 C22.445,23.326 24.333,21.452 26.653,21.452 C27.456,21.452 28.200,21.688 28.839,22.077 C32.885,17.886 33.781,14.361 33.742,12.016 C33.701,9.498 32.594,7.247 30.624,5.679 C29.082,4.450 27.575,4.007 26.015,4.332 C22.038,5.157 19.106,10.630 19.077,10.686 C18.881,11.056 18.495,11.290 18.074,11.290 C18.072,11.290 18.071,11.290 18.070,11.290 C17.649,11.290 17.263,11.060 17.066,10.692 C17.041,10.646 14.554,6.069 11.052,4.641 C10.472,4.404 10.194,3.744 10.432,3.168 C10.671,2.591 11.333,2.312 11.916,2.552 C14.720,3.696 16.879,6.298 18.063,8.011 C19.420,6.023 22.073,2.846 25.543,2.124 C27.777,1.654 29.968,2.260 32.048,3.917 C34.517,5.886 35.964,8.824 36.016,11.978 C36.062,14.777 35.039,18.949 30.382,23.736 ZM26.653,23.710 C25.586,23.710 24.719,24.571 24.719,25.630 C24.719,26.689 25.586,27.550 26.653,27.550 C27.719,27.550 28.587,26.689 28.587,25.630 C28.587,24.571 27.719,23.710 26.653,23.710 ZM9.414,24.240 C14.634,28.686 15.036,29.103 16.968,31.110 C17.280,31.433 17.632,31.799 18.052,32.232 C18.438,31.817 18.763,31.463 19.051,31.149 C19.853,30.277 20.383,29.700 21.174,28.944 C21.627,28.512 22.346,28.526 22.781,28.974 C23.217,29.423 23.203,30.138 22.750,30.571 C22.013,31.276 21.503,31.831 20.732,32.670 C20.255,33.190 19.682,33.814 18.900,34.643 C18.687,34.868 18.392,34.997 18.081,35.000 C18.077,35.000 18.074,35.000 18.070,35.000 C17.763,35.000 17.470,34.878 17.256,34.659 C16.431,33.820 15.826,33.191 15.324,32.670 C13.457,30.730 13.068,30.326 7.934,25.953 C1.271,20.280 -0.064,15.260 -0.011,12.047 C0.021,10.082 0.600,8.205 1.621,6.584 C1.134,5.902 0.842,5.076 0.842,4.179 C0.842,1.874 2.730,-0.000 5.050,-0.000 C7.370,-0.000 9.258,1.874 9.258,4.179 C9.258,6.482 7.370,8.356 5.050,8.356 C4.464,8.356 3.907,8.236 3.400,8.020 C2.688,9.232 2.287,10.609 2.263,12.083 C2.218,14.812 3.422,19.136 9.414,24.240 ZM5.050,6.098 C6.116,6.098 6.984,5.237 6.984,4.179 C6.984,3.119 6.116,2.258 5.050,2.258 C3.983,2.258 3.116,3.119 3.116,4.179 C3.116,5.237 3.983,6.098 5.050,6.098 Z" id="path-1" class="cls-2" fill-rule="evenodd"/>
</svg>
