<svg xmlns="http://www.w3.org/2000/svg" xmlns:xlink="http://www.w3.org/1999/xlink" preserveAspectRatio="xMidYMid" width="37" height="35" viewBox="0 0 37 35">
  <defs>
    <style>

      .cls-2 {
        fill: #2a1e30;
      }
    </style>
  </defs>
  <path d="M35.057,17.069 C35.057,17.069 32.607,18.074 32.607,18.074 C32.615,18.167 32.638,18.257 32.644,18.350 C32.644,18.350 32.654,29.041 32.654,29.041 C32.654,29.043 32.655,29.044 32.655,29.046 C32.655,29.047 32.654,29.048 32.654,29.050 C32.654,29.050 32.658,33.605 32.658,33.605 C32.658,33.872 32.554,34.129 32.368,34.318 C32.182,34.507 31.929,34.613 31.666,34.613 C31.666,34.613 19.745,34.613 19.745,34.613 C19.745,34.613 19.218,34.613 19.218,34.613 C19.218,34.613 7.296,34.613 7.296,34.613 C7.033,34.613 6.780,34.507 6.594,34.318 C6.408,34.129 6.304,33.872 6.304,33.605 C6.304,33.605 6.308,27.919 6.308,27.919 C6.305,27.916 6.301,27.915 6.298,27.912 C6.298,27.912 1.623,22.961 1.623,22.961 C1.594,22.930 1.566,22.896 1.540,22.861 C-0.540,19.993 -0.530,16.145 1.566,13.286 C3.271,10.961 6.095,9.753 8.924,10.114 C8.924,10.114 9.741,10.220 9.741,10.220 C9.795,10.227 9.838,10.256 9.889,10.272 C10.567,9.569 11.326,8.950 12.154,8.430 C12.165,8.423 12.176,8.417 12.187,8.410 C12.500,8.216 12.809,8.015 13.141,7.850 C14.057,7.396 15.027,7.025 16.022,6.734 C15.998,6.684 15.963,6.642 15.947,6.587 C15.947,6.587 15.486,4.922 15.486,4.922 C15.087,3.479 15.552,1.916 16.673,0.941 C18.179,-0.371 20.388,-0.300 21.808,1.109 C21.808,1.109 21.943,1.242 21.943,1.242 C22.950,2.240 23.332,3.712 22.940,5.084 C22.940,5.084 22.503,6.619 22.503,6.619 C23.651,6.923 24.772,7.329 25.821,7.850 C27.666,8.767 29.212,10.168 30.375,11.863 C30.375,11.863 32.678,10.959 32.678,10.959 C33.500,10.634 34.394,10.664 35.195,11.037 C35.996,11.410 36.599,12.081 36.894,12.923 C37.475,14.586 36.668,16.407 35.057,17.069 ZM3.157,14.491 C1.599,16.616 1.579,19.471 3.102,21.615 C3.102,21.615 6.310,25.012 6.310,25.012 C6.310,25.012 6.315,18.423 6.315,18.423 C6.482,16.091 7.252,13.930 8.455,12.100 C6.406,11.904 4.392,12.807 3.157,14.491 ZM20.557,2.685 C20.557,2.685 20.422,2.552 20.422,2.552 C19.742,1.879 18.685,1.843 17.965,2.472 C17.429,2.938 17.206,3.686 17.397,4.376 C17.397,4.376 17.858,6.041 17.858,6.041 C17.882,6.128 17.876,6.213 17.877,6.299 C18.356,6.213 18.836,6.141 19.317,6.096 C19.373,6.090 19.425,6.109 19.479,6.113 C19.535,6.109 19.587,6.090 19.645,6.096 C19.947,6.124 20.248,6.179 20.550,6.223 C20.550,6.223 20.550,6.223 20.550,6.222 C20.550,6.222 21.034,4.523 21.034,4.523 C21.221,3.866 21.038,3.162 20.557,2.685 ZM19.481,8.106 C17.795,8.266 16.114,8.725 14.568,9.418 C17.591,11.336 21.419,11.335 24.409,9.424 C22.859,8.728 21.173,8.266 19.481,8.106 ZM30.662,18.425 C30.429,15.229 28.805,12.316 26.334,10.519 C24.321,12.092 21.901,12.895 19.470,12.895 C17.056,12.895 14.638,12.109 12.614,10.531 C10.151,12.331 8.532,15.246 8.298,18.498 C8.298,18.498 8.292,28.038 8.292,28.038 C8.292,28.038 30.669,28.038 30.669,28.038 C30.669,28.038 30.662,18.425 30.662,18.425 ZM30.671,30.054 C30.671,30.054 8.291,30.054 8.291,30.054 C8.291,30.054 8.289,32.598 8.289,32.598 C8.289,32.598 19.218,32.598 19.218,32.598 C19.218,32.598 19.745,32.598 19.745,32.598 C19.745,32.598 30.672,32.598 30.672,32.598 C30.672,32.598 30.671,30.054 30.671,30.054 ZM35.023,13.597 C34.909,13.272 34.676,13.014 34.367,12.869 C34.058,12.724 33.711,12.714 33.393,12.838 C33.393,12.838 31.399,13.622 31.399,13.622 C31.763,14.390 32.036,15.206 32.249,16.046 C32.249,16.046 34.313,15.200 34.313,15.200 C34.935,14.945 35.248,14.240 35.023,13.597 Z" id="path-1" class="cls-2" fill-rule="evenodd"/>
</svg>
