<svg xmlns="http://www.w3.org/2000/svg" xmlns:xlink="http://www.w3.org/1999/xlink" preserveAspectRatio="xMidYMid" width="38" height="39" viewBox="0 0 38 39">
  <defs>
    <style>

      .cls-2 {
        fill: #2a1e30;
      }
    </style>
  </defs>
  <path d="M37.629,0.337 C37.158,-0.136 36.393,-0.136 35.921,0.337 C35.921,0.337 33.727,2.536 33.727,2.536 C33.727,2.536 31.604,0.410 31.604,0.410 C31.132,-0.063 30.368,-0.063 29.896,0.410 C29.425,0.883 29.425,1.649 29.896,2.121 C29.896,2.121 32.019,4.248 32.019,4.248 C32.019,4.248 31.165,5.104 31.165,5.104 C31.165,5.104 28.188,2.121 28.188,2.121 C27.716,1.649 26.952,1.649 26.480,2.121 C26.008,2.594 26.008,3.360 26.480,3.833 C26.480,3.833 29.457,6.815 29.457,6.815 C29.457,6.815 28.602,7.671 28.602,7.671 C28.602,7.671 26.480,5.544 26.480,5.544 C26.008,5.071 25.244,5.071 24.772,5.544 C24.301,6.017 24.301,6.783 24.772,7.256 C24.772,7.256 26.895,9.383 26.895,9.383 C26.895,9.383 18.938,17.356 18.938,17.356 C17.164,15.923 14.952,15.012 12.529,14.874 C10.609,13.808 8.123,13.898 6.277,15.092 C5.760,14.862 5.205,14.744 4.636,14.744 C2.362,14.744 0.512,16.599 0.512,18.877 C0.512,19.465 0.637,20.036 0.877,20.564 C-0.185,22.324 -0.294,24.497 0.614,26.370 C0.735,32.394 5.588,37.275 11.668,37.425 C12.483,37.813 13.380,38.016 14.283,38.016 C15.356,38.016 16.414,37.727 17.338,37.190 C17.934,37.513 18.600,37.685 19.280,37.685 C21.554,37.685 23.404,35.831 23.404,33.552 C23.404,32.888 23.240,32.238 22.933,31.652 C24.090,29.798 24.178,27.465 23.125,25.522 C22.994,23.082 22.084,20.673 20.647,18.887 C20.647,18.887 29.455,9.881 29.455,9.881 C29.455,9.881 29.543,9.881 29.543,9.881 C29.543,9.881 29.543,10.238 29.543,10.237 C29.543,10.237 37.672,2.048 37.672,2.048 C38.144,1.575 38.101,0.809 37.629,0.337 ZM20.902,26.502 C21.740,27.870 21.595,29.611 20.542,30.834 C20.147,31.292 20.151,31.973 20.553,32.427 C20.751,32.653 20.989,33.031 20.989,33.552 C20.989,34.497 20.222,35.265 19.280,35.265 C18.754,35.265 18.375,35.024 18.149,34.820 C17.708,34.426 17.046,34.406 16.585,34.780 C15.459,35.690 13.805,35.840 12.537,35.154 C12.360,35.058 12.082,35.012 11.882,35.012 C7.000,35.012 3.027,31.031 3.030,26.113 C3.037,25.897 2.985,25.682 2.880,25.491 C2.150,24.171 2.294,22.560 3.246,21.387 C3.597,20.955 3.609,20.341 3.275,19.896 C3.117,19.685 2.927,19.336 2.927,18.877 C2.927,17.933 3.694,17.165 4.636,17.165 C5.089,17.165 5.436,17.352 5.647,17.508 C6.102,17.847 6.731,17.821 7.158,17.447 C8.359,16.404 10.202,16.255 11.532,17.095 C11.715,17.210 11.925,17.274 12.141,17.281 C16.829,17.415 20.599,21.202 20.724,25.900 C20.729,26.113 20.790,26.321 20.902,26.502 Z" id="path-1" class="cls-2" fill-rule="evenodd"/>
</svg>
