<svg xmlns="http://www.w3.org/2000/svg" xmlns:xlink="http://www.w3.org/1999/xlink" preserveAspectRatio="xMidYMid" width="38" height="38" viewBox="0 0 38 38">
  <defs>
    <style>

      .cls-2 {
        fill: #2a1e30;
      }
    </style>
  </defs>
  <path d="M38.008,19.002 C38.008,29.482 29.482,38.008 19.002,38.008 C8.522,38.008 -0.004,29.482 -0.004,19.002 C-0.004,8.522 8.522,-0.004 19.002,-0.004 C22.795,-0.004 26.316,1.135 29.283,3.059 C29.821,2.736 30.444,2.539 31.116,2.539 C33.093,2.539 34.700,4.146 34.700,6.123 C34.700,6.712 34.544,7.261 34.290,7.752 C36.618,10.905 38.008,14.791 38.008,19.002 ZM31.116,4.475 C30.208,4.475 29.469,5.214 29.469,6.123 C29.469,7.031 30.208,7.770 31.116,7.770 C32.024,7.770 32.763,7.031 32.763,6.123 C32.763,5.214 32.024,4.475 31.116,4.475 ZM32.935,9.193 C32.400,9.512 31.783,9.706 31.116,9.706 C29.140,9.706 27.532,8.099 27.532,6.123 C27.532,5.532 27.690,4.982 27.944,4.490 C25.341,2.878 22.283,1.933 19.002,1.933 C9.591,1.933 1.933,9.590 1.933,19.002 C1.933,28.414 9.591,36.071 19.002,36.071 C28.414,36.071 36.071,28.414 36.071,19.002 C36.071,15.348 34.899,11.972 32.935,9.193 ZM29.138,26.793 C29.138,26.793 25.327,27.933 25.327,27.933 C25.235,27.960 25.142,27.974 25.050,27.974 C24.655,27.974 24.287,27.731 24.142,27.343 C24.142,27.343 19.806,15.702 19.806,15.702 C19.806,15.702 12.071,27.862 12.071,27.862 C11.886,28.152 11.573,28.310 11.253,28.310 C11.075,28.310 10.895,28.261 10.734,28.159 C10.282,27.872 10.150,27.274 10.437,26.822 C10.437,26.822 18.958,13.426 18.958,13.426 C18.958,13.426 17.427,9.318 17.427,9.318 C17.427,9.318 14.121,9.318 14.121,9.318 C13.586,9.318 13.152,8.885 13.152,8.349 C13.152,7.814 13.586,7.381 14.121,7.381 C14.121,7.381 18.100,7.381 18.100,7.381 C18.504,7.381 18.867,7.632 19.007,8.012 C19.007,8.012 25.641,25.817 25.641,25.817 C25.641,25.817 28.583,24.938 28.583,24.938 C29.095,24.788 29.635,25.076 29.788,25.588 C29.941,26.100 29.650,26.640 29.138,26.793 Z" id="path-1" class="cls-2" fill-rule="evenodd"/>
</svg>
