<svg xmlns="http://www.w3.org/2000/svg" xmlns:xlink="http://www.w3.org/1999/xlink" preserveAspectRatio="xMidYMid" width="33" height="37" viewBox="0 0 33 37">
  <defs>
    <style>

      .cls-2 {
        fill: #2a1e30;
      }
    </style>
  </defs>
  <path d="M30.042,31.000 C30.042,31.000 25.275,31.000 25.275,31.000 C25.300,29.000 25.333,21.368 24.755,16.966 C24.191,12.676 20.168,9.230 18.288,7.818 C18.288,7.818 18.727,7.356 18.727,7.356 C20.219,5.733 20.186,3.054 18.651,1.472 C17.847,0.642 16.719,-0.000 15.554,-0.000 C15.546,-0.000 15.538,-0.000 15.530,-0.000 C14.356,-0.000 13.224,0.670 12.424,1.514 C12.424,1.514 9.034,5.179 9.034,5.179 C8.168,4.864 7.246,4.736 6.298,4.736 C4.445,4.736 2.644,5.405 1.226,6.577 C0.722,6.995 0.305,7.403 0.305,7.403 C-0.090,7.780 -0.108,8.404 0.265,8.802 C0.265,8.802 11.200,20.584 11.200,20.584 C11.393,20.790 11.665,21.000 11.950,21.000 C11.960,21.000 11.970,21.000 11.980,21.000 C12.276,21.000 12.553,20.767 12.739,20.541 C12.739,20.541 14.266,18.648 14.266,18.648 C15.895,16.458 16.175,13.622 15.211,11.217 C15.211,11.217 16.916,9.352 16.916,9.352 C18.497,10.523 22.258,13.589 22.736,17.227 C23.292,21.464 23.261,29.000 23.238,31.000 C23.238,31.000 11.914,31.000 11.914,31.000 C10.289,31.000 8.966,32.403 8.966,34.000 C8.966,35.596 10.289,37.000 11.914,37.000 C11.914,37.000 30.042,37.000 30.042,37.000 C31.667,37.000 32.990,35.596 32.990,34.000 C32.990,32.403 31.667,31.000 30.042,31.000 ZM12.654,17.383 C12.654,17.383 11.902,18.292 11.902,18.292 C11.902,18.292 2.458,8.195 2.458,8.195 C2.484,8.174 2.510,8.151 2.537,8.129 C3.589,7.260 4.924,6.780 6.298,6.780 C7.822,6.780 9.263,7.353 10.356,8.393 C10.356,8.393 11.970,9.930 11.970,9.930 C14.048,11.907 14.328,15.129 12.654,17.383 ZM13.387,8.494 C13.387,8.494 11.772,6.956 11.772,6.956 C11.496,6.693 11.198,6.460 10.892,6.243 C10.892,6.243 13.914,2.877 13.914,2.877 C14.340,2.428 14.917,2.000 15.542,2.000 C15.546,2.000 15.550,2.000 15.555,2.000 C16.174,2.000 16.750,2.418 17.177,2.859 C17.982,3.689 17.999,5.092 17.217,5.942 C17.217,5.942 14.157,9.313 14.157,9.313 C13.923,9.011 13.671,8.764 13.387,8.494 ZM30.042,35.000 C30.042,35.000 11.914,35.000 11.914,35.000 C11.411,35.000 11.002,34.494 11.002,34.000 C11.002,33.505 11.411,33.000 11.914,33.000 C11.914,33.000 30.042,33.000 30.042,33.000 C30.545,33.000 30.954,33.505 30.954,34.000 C30.954,34.494 30.545,35.000 30.042,35.000 Z" id="path-1" class="cls-2" fill-rule="evenodd"/>
</svg>
