<svg xmlns="http://www.w3.org/2000/svg" xmlns:xlink="http://www.w3.org/1999/xlink" preserveAspectRatio="xMidYMid" width="38" height="38" viewBox="0 0 38 38">
  <defs>
    <style>

      .cls-2 {
        fill: #2a1e30;
      }
    </style>
  </defs>
  <path d="M34.210,38.006 C33.401,38.006 32.632,37.749 31.973,37.261 C31.876,37.217 31.788,37.156 31.712,37.080 C31.712,37.080 26.674,32.042 26.674,32.042 C25.957,31.325 25.562,30.372 25.562,29.358 C25.562,28.664 25.763,28.022 26.090,27.461 C26.090,27.461 21.793,23.164 21.793,23.164 C19.480,25.162 16.477,26.379 13.188,26.379 C5.915,26.379 -0.002,20.462 -0.002,13.189 C-0.002,5.915 5.915,-0.002 13.188,-0.002 C20.462,-0.002 26.379,5.915 26.379,13.189 C26.379,16.477 25.162,19.480 23.165,21.792 C23.165,21.792 27.462,26.090 27.462,26.090 C28.022,25.763 28.665,25.562 29.358,25.562 C30.371,25.562 31.324,25.956 32.042,26.673 C32.042,26.673 37.080,31.712 37.080,31.712 C37.164,31.796 37.229,31.891 37.276,31.993 C37.754,32.648 38.006,33.409 38.006,34.209 C38.006,36.302 36.303,38.006 34.210,38.006 ZM24.439,13.189 C24.439,6.985 19.392,1.938 13.188,1.938 C6.985,1.938 1.938,6.985 1.938,13.189 C1.938,19.392 6.985,24.438 13.188,24.438 C19.392,24.438 24.439,19.392 24.439,13.189 ZM35.629,33.035 C35.601,33.000 35.574,32.964 35.552,32.927 C35.552,32.927 30.671,28.046 30.671,28.046 C30.320,27.696 29.854,27.503 29.358,27.503 C28.335,27.503 27.503,28.335 27.503,29.358 C27.503,29.854 27.696,30.320 28.046,30.670 C28.046,30.670 32.930,35.554 32.930,35.554 C32.966,35.576 33.001,35.601 33.035,35.629 C33.275,35.828 33.674,36.065 34.210,36.065 C35.233,36.065 36.065,35.232 36.065,34.209 C36.065,33.673 35.828,33.275 35.629,33.035 ZM20.927,10.796 C20.768,10.285 21.055,9.741 21.566,9.583 C22.078,9.424 22.621,9.710 22.780,10.222 C22.780,10.222 22.820,10.353 22.820,10.353 C22.973,10.866 22.680,11.407 22.166,11.559 C22.074,11.587 21.981,11.600 21.889,11.600 C21.471,11.600 21.085,11.328 20.960,10.906 C20.960,10.906 20.927,10.796 20.927,10.796 ZM20.594,8.924 C20.290,8.924 19.990,8.782 19.801,8.515 C18.283,6.371 15.811,5.091 13.188,5.091 C12.652,5.091 12.218,4.657 12.218,4.121 C12.218,3.585 12.652,3.151 13.188,3.151 C16.440,3.151 19.503,4.737 21.385,7.393 C21.694,7.831 21.591,8.436 21.154,8.746 C20.983,8.866 20.788,8.924 20.594,8.924 Z" id="path-1" class="cls-2" fill-rule="evenodd"/>
</svg>
