<svg xmlns="http://www.w3.org/2000/svg" xmlns:xlink="http://www.w3.org/1999/xlink" preserveAspectRatio="xMidYMid" width="40" height="31" viewBox="0 0 40 31">
  <defs>
    <style>

      .cls-2 {
        fill: #2a1e30;
      }
    </style>
  </defs>
  <path d="M39.312,19.178 C36.505,22.745 29.003,31.038 19.987,31.038 C10.970,31.038 3.468,22.745 0.661,19.178 C-0.232,18.044 -0.232,16.458 0.661,15.324 C2.851,12.542 8.738,5.869 16.091,3.986 C16.455,3.890 16.840,4.006 17.097,4.283 C18.833,6.151 19.586,7.171 19.961,7.693 C20.342,7.145 21.093,6.136 22.885,4.269 C23.142,4.003 23.520,3.893 23.879,3.985 C31.233,5.868 37.122,12.541 39.312,15.324 C40.205,16.458 40.205,18.044 39.312,19.178 ZM19.987,28.973 C27.488,28.973 34.004,22.367 37.020,18.735 C37.020,18.735 2.954,18.735 2.954,18.735 C5.970,22.367 12.485,28.973 19.987,28.973 ZM37.699,16.604 C35.697,14.062 30.429,8.068 23.945,6.144 C22.355,7.836 21.800,8.649 21.522,9.057 C21.089,9.692 20.792,9.917 19.987,9.917 C19.111,9.917 18.829,9.646 18.351,8.980 C18.026,8.528 17.444,7.718 16.015,6.149 C9.536,8.076 4.274,14.064 2.274,16.604 C2.258,16.625 2.253,16.649 2.238,16.670 C2.238,16.670 37.735,16.670 37.735,16.670 C37.721,16.649 37.715,16.625 37.699,16.604 ZM33.791,5.836 C33.012,5.836 32.278,5.531 31.727,4.979 C31.175,4.423 30.872,3.687 30.872,2.905 C30.872,2.121 31.175,1.385 31.727,0.832 C32.830,-0.274 34.752,-0.276 35.856,0.832 C36.407,1.385 36.711,2.121 36.711,2.905 C36.711,3.687 36.407,4.423 35.856,4.978 C35.304,5.531 34.571,5.836 33.791,5.836 ZM34.402,2.292 C34.239,2.128 34.022,2.037 33.791,2.037 C33.561,2.037 33.344,2.128 33.180,2.292 C33.017,2.455 32.928,2.673 32.928,2.905 C32.928,3.135 33.018,3.354 33.181,3.518 C33.505,3.844 34.076,3.845 34.402,3.517 C34.565,3.354 34.654,3.135 34.654,2.905 C34.654,2.673 34.565,2.455 34.402,2.292 Z" id="path-1" class="cls-2" fill-rule="evenodd"/>
</svg>
