<svg xmlns="http://www.w3.org/2000/svg" xmlns:xlink="http://www.w3.org/1999/xlink" preserveAspectRatio="xMidYMid" width="34" height="38" viewBox="0 0 34 38">
  <defs>
    <style>

      .cls-2 {
        fill: #2a1e30;
      }
    </style>
  </defs>
  <path d="M33.806,34.135 C33.236,32.717 31.062,30.503 23.229,29.672 C21.820,27.542 20.760,25.028 20.535,22.324 C20.111,17.242 22.486,12.309 27.585,7.601 C28.080,7.802 28.623,7.913 29.193,7.913 C31.470,7.913 33.322,6.140 33.322,3.962 C33.322,1.783 31.470,0.012 29.193,0.012 C26.916,0.012 25.063,1.783 25.063,3.962 C25.063,4.882 25.407,5.718 25.961,6.391 C19.371,12.624 18.129,18.402 18.469,22.481 C18.680,25.016 19.520,27.379 20.694,29.466 C19.559,29.399 18.328,29.357 16.993,29.345 C15.666,29.357 14.442,29.399 13.313,29.465 C14.487,27.378 15.326,25.015 15.537,22.481 C15.877,18.402 14.635,12.624 8.045,6.391 C8.599,5.718 8.943,4.882 8.943,3.962 C8.943,1.783 7.090,0.012 4.813,0.012 C2.536,0.012 0.684,1.783 0.684,3.962 C0.684,6.140 2.536,7.913 4.813,7.913 C5.383,7.913 5.926,7.802 6.421,7.601 C11.520,12.309 13.895,17.242 13.471,22.324 C13.246,25.027 12.187,27.541 10.778,29.671 C2.947,30.501 0.770,32.716 0.199,34.135 C-0.234,35.211 0.049,36.365 0.937,37.146 C1.578,37.710 2.431,38.003 3.310,38.003 C3.876,38.002 4.452,37.881 4.988,37.633 C7.137,36.638 9.835,34.475 11.971,31.548 C13.422,31.424 15.086,31.345 16.993,31.328 C18.909,31.345 20.579,31.424 22.036,31.549 C24.172,34.475 26.869,36.638 29.018,37.633 C30.388,38.268 32.018,38.073 33.069,37.146 C33.956,36.365 34.239,35.211 33.806,34.135 ZM29.193,1.995 C30.327,1.995 31.250,2.878 31.250,3.962 C31.250,5.047 30.327,5.930 29.193,5.930 C28.059,5.930 27.136,5.047 27.136,3.962 C27.136,2.878 28.059,1.995 29.193,1.995 ZM2.756,3.962 C2.756,2.878 3.679,1.995 4.813,1.995 C5.947,1.995 6.870,2.878 6.870,3.962 C6.870,5.047 5.947,5.930 4.813,5.930 C3.679,5.930 2.756,5.047 2.756,3.962 ZM4.085,35.848 C3.378,36.175 2.700,36.004 2.341,35.687 C2.073,35.452 2.004,35.169 2.134,34.847 C2.238,34.587 3.159,32.819 9.073,31.891 C7.414,33.769 5.573,35.160 4.085,35.848 ZM31.665,35.687 C31.306,36.004 30.627,36.175 29.921,35.848 C28.434,35.160 26.593,33.770 24.934,31.893 C30.847,32.821 31.768,34.587 31.872,34.847 C32.002,35.169 31.932,35.452 31.665,35.687 Z" id="path-1" class="cls-2" fill-rule="evenodd"/>
</svg>
