<svg xmlns="http://www.w3.org/2000/svg" xmlns:xlink="http://www.w3.org/1999/xlink" preserveAspectRatio="xMidYMid" width="37" height="35" viewBox="0 0 37 35">
  <defs>
    <style>

      .cls-2 {
        fill: #2a1e30;
      }
    </style>
  </defs>
  <path d="M31.369,0.009 C28.807,0.009 26.722,2.096 26.722,4.661 C26.722,5.690 27.068,6.633 27.635,7.404 C21.496,14.032 17.577,21.470 15.409,30.234 C13.603,26.317 11.344,22.924 7.971,20.121 C8.781,19.283 9.285,18.147 9.285,16.893 C9.285,14.327 7.200,12.239 4.639,12.239 C2.076,12.239 -0.009,14.327 -0.009,16.893 C-0.009,19.458 2.076,21.545 4.639,21.545 C5.098,21.545 5.533,21.457 5.952,21.332 C5.962,21.340 5.968,21.349 5.978,21.357 C10.330,24.659 12.696,29.209 14.652,34.190 C15.023,35.134 16.628,35.422 16.868,34.190 C18.752,24.511 22.624,16.091 29.375,8.847 C29.982,9.138 30.652,9.314 31.369,9.314 C33.931,9.314 36.016,7.227 36.016,4.661 C36.016,2.096 33.931,0.009 31.369,0.009 ZM2.289,16.893 C2.289,15.595 3.343,14.540 4.639,14.540 C5.933,14.540 6.987,15.595 6.987,16.893 C6.987,18.189 5.933,19.244 4.639,19.244 C3.343,19.244 2.289,18.189 2.289,16.893 ZM31.369,7.014 C30.074,7.014 29.020,5.959 29.020,4.661 C29.020,3.365 30.074,2.310 31.369,2.310 C32.664,2.310 33.718,3.365 33.718,4.661 C33.718,5.959 32.664,7.014 31.369,7.014 Z" id="path-1" class="cls-2" fill-rule="evenodd"/>
</svg>
