<svg xmlns="http://www.w3.org/2000/svg" xmlns:xlink="http://www.w3.org/1999/xlink" preserveAspectRatio="xMidYMid" width="32" height="39" viewBox="0 0 32 39">
  <defs>
    <style>

      .cls-2 {
        fill: #2a1e30;
      }
    </style>
  </defs>
  <path d="M31.003,2.037 C30.815,2.038 26.385,2.088 24.390,2.037 C24.148,2.007 24.079,2.106 24.043,2.146 C23.770,2.450 23.740,3.293 23.784,3.658 C23.820,3.945 23.731,4.235 23.541,4.452 C23.351,4.669 23.078,4.793 22.791,4.793 C22.791,4.793 18.192,4.793 18.192,4.793 C18.258,5.412 18.260,5.976 18.247,6.352 C18.247,6.352 24.152,6.352 24.152,6.352 C24.674,6.352 25.108,6.757 25.150,7.283 C25.166,7.492 25.518,12.456 22.506,15.768 C22.084,16.232 21.619,16.639 21.112,16.989 C21.112,16.989 28.421,16.989 28.421,16.989 C29.751,16.989 30.832,18.081 30.832,19.424 C30.832,19.424 30.832,20.615 30.832,20.615 C30.832,21.958 29.751,23.050 28.421,23.050 C28.421,23.050 28.179,23.050 28.179,23.050 C28.179,23.050 28.179,32.931 28.179,32.931 C28.179,32.931 28.421,32.931 28.421,32.931 C29.751,32.931 30.832,34.023 30.832,35.366 C30.832,35.366 30.832,36.557 30.832,36.557 C30.832,37.900 29.751,38.992 28.421,38.992 C28.421,38.992 2.411,38.992 2.411,38.992 C1.082,38.992 0.001,37.900 0.001,36.557 C0.001,36.557 0.001,35.366 0.001,35.366 C0.001,34.023 1.082,32.931 2.411,32.931 C2.411,32.931 2.818,32.931 2.818,32.931 C2.818,32.931 2.818,23.050 2.818,23.050 C2.818,23.050 2.411,23.050 2.411,23.050 C1.082,23.050 0.001,21.958 0.001,20.615 C0.001,20.615 0.001,19.424 0.001,19.424 C0.001,18.081 1.082,16.989 2.411,16.989 C2.411,16.989 9.643,16.989 9.643,16.989 C9.147,16.644 8.690,16.245 8.277,15.789 C5.273,12.476 5.671,7.485 5.689,7.274 C5.735,6.751 6.168,6.352 6.686,6.352 C6.686,6.352 12.436,6.352 12.436,6.352 C12.450,5.332 12.607,2.983 13.723,1.829 C14.677,0.840 16.251,0.957 17.143,1.938 C17.366,2.183 17.536,2.479 17.680,2.793 C17.716,2.789 17.748,2.771 17.786,2.771 C17.786,2.771 21.792,2.771 21.792,2.771 C21.855,2.135 22.046,1.360 22.560,0.787 C23.032,0.262 23.687,0.023 24.443,0.015 C26.400,0.068 30.934,0.014 30.980,0.015 C30.984,0.015 30.988,0.015 30.991,0.015 C31.539,0.015 31.986,0.461 31.993,1.015 C31.999,1.573 31.556,2.031 31.003,2.037 ZM2.411,34.953 C2.186,34.953 2.003,35.139 2.003,35.366 C2.003,35.366 2.003,36.557 2.003,36.557 C2.003,36.784 2.186,36.970 2.411,36.970 C2.411,36.970 28.421,36.970 28.421,36.970 C28.647,36.970 28.830,36.784 28.830,36.557 C28.830,36.557 28.830,35.366 28.830,35.366 C28.830,35.139 28.647,34.953 28.421,34.953 C28.421,34.953 2.411,34.953 2.411,34.953 ZM26.177,32.931 C26.177,32.931 26.177,23.050 26.177,23.050 C26.177,23.050 4.820,23.050 4.820,23.050 C4.820,23.050 4.820,32.931 4.820,32.931 C4.820,32.931 26.177,32.931 26.177,32.931 ZM2.411,19.011 C2.186,19.011 2.003,19.197 2.003,19.424 C2.003,19.424 2.003,20.615 2.003,20.615 C2.003,20.842 2.186,21.028 2.411,21.028 C2.411,21.028 28.421,21.028 28.421,21.028 C28.647,21.028 28.830,20.842 28.830,20.615 C28.830,20.615 28.830,19.424 28.830,19.424 C28.830,19.197 28.647,19.011 28.421,19.011 C28.421,19.011 2.411,19.011 2.411,19.011 ZM7.672,8.374 C7.714,9.791 8.034,12.534 9.762,14.433 C11.051,15.850 12.935,16.567 15.362,16.567 C15.362,16.567 15.362,16.989 15.362,16.989 C15.362,16.989 15.401,16.989 15.401,16.989 C15.401,16.989 15.429,16.567 15.429,16.567 C17.849,16.555 19.735,15.825 21.032,14.399 C22.767,12.492 23.107,9.783 23.160,8.374 C23.160,8.374 7.672,8.374 7.672,8.374 ZM15.668,3.305 C15.567,3.195 15.475,3.153 15.327,3.153 C15.287,3.153 15.241,3.153 15.155,3.242 C14.766,3.644 14.548,4.737 14.470,5.714 C14.470,5.714 16.250,5.714 16.250,5.714 C16.224,4.779 16.057,3.733 15.668,3.305 ZM15.417,24.643 C17.275,24.643 18.787,26.170 18.787,28.047 C18.787,29.924 17.275,31.451 15.417,31.451 C13.558,31.451 12.046,29.924 12.046,28.047 C12.046,26.170 13.558,24.643 15.417,24.643 ZM15.417,29.429 C16.171,29.429 16.785,28.809 16.785,28.047 C16.785,27.285 16.171,26.665 15.417,26.665 C14.662,26.665 14.048,27.285 14.048,28.047 C14.048,28.809 14.662,29.429 15.417,29.429 Z" id="path-1" class="cls-2" fill-rule="evenodd"/>
</svg>
