<svg xmlns="http://www.w3.org/2000/svg" xmlns:xlink="http://www.w3.org/1999/xlink" preserveAspectRatio="xMidYMid" width="35" height="34" viewBox="0 0 35 34">
  <defs>
    <style>

      .cls-2 {
        fill: #2a1e30;
      }
    </style>
  </defs>
  <path d="M33.048,25.257 C32.102,24.320 30.845,23.804 29.509,23.804 C28.633,23.804 27.801,24.046 27.059,24.462 C27.059,24.462 20.762,17.289 20.762,17.289 C21.585,16.282 22.055,15.050 22.055,13.735 C22.055,12.663 21.743,11.643 21.187,10.755 C21.187,10.755 27.407,5.249 27.407,5.249 C27.808,5.456 28.249,5.578 28.714,5.578 C29.474,5.578 30.187,5.285 30.723,4.753 C31.260,4.221 31.556,3.513 31.556,2.762 C31.556,2.010 31.260,1.302 30.724,0.771 C29.650,-0.292 27.778,-0.292 26.705,0.771 C26.169,1.303 25.873,2.010 25.873,2.762 C25.873,3.114 25.944,3.455 26.068,3.774 C26.068,3.774 19.845,9.283 19.845,9.283 C18.838,8.497 17.618,8.048 16.317,8.048 C15.117,8.048 13.980,8.422 13.020,9.095 C13.020,9.095 11.249,7.130 11.249,7.130 C11.459,6.733 11.581,6.295 11.581,5.835 C11.581,5.083 11.286,4.375 10.749,3.844 C9.675,2.780 7.805,2.779 6.731,3.844 C6.194,4.376 5.899,5.083 5.899,5.835 C5.899,6.587 6.195,7.294 6.731,7.825 C7.268,8.357 7.981,8.650 8.740,8.650 C9.096,8.650 9.440,8.580 9.762,8.457 C9.762,8.457 11.605,10.503 11.605,10.503 C10.943,11.446 10.579,12.561 10.579,13.735 C10.579,14.312 10.690,14.867 10.856,15.403 C10.856,15.403 7.061,17.337 7.061,17.337 C7.008,17.277 6.966,17.210 6.908,17.152 C6.144,16.395 5.128,15.978 4.047,15.978 C2.966,15.978 1.950,16.395 1.186,17.152 C0.421,17.911 0.001,18.918 0.001,19.989 C0.001,21.060 0.421,22.067 1.185,22.824 C1.950,23.581 2.966,24.000 4.047,24.000 C5.128,24.000 6.144,23.582 6.908,22.824 C7.673,22.067 8.094,21.060 8.094,19.989 C8.094,19.684 8.051,19.387 7.985,19.098 C7.985,19.098 11.771,17.168 11.771,17.168 C11.926,17.369 12.075,17.575 12.259,17.757 C13.343,18.831 14.784,19.422 16.317,19.422 C17.373,19.422 18.376,19.123 19.258,18.597 C19.258,18.597 25.550,25.765 25.550,25.765 C24.052,27.708 24.177,30.496 25.969,32.272 C26.915,33.209 28.172,33.725 29.509,33.725 C30.845,33.725 32.102,33.209 33.048,32.272 C35.000,30.338 35.000,27.190 33.048,25.257 ZM5.494,21.422 C4.721,22.189 3.374,22.189 2.601,21.422 C2.214,21.039 2.002,20.530 2.002,19.989 C2.002,19.447 2.214,18.938 2.601,18.555 C2.987,18.172 3.501,17.961 4.047,17.961 C4.594,17.961 5.107,18.172 5.494,18.555 C5.880,18.938 6.093,19.447 6.093,19.989 C6.093,20.530 5.880,21.039 5.494,21.422 ZM28.121,2.173 C28.279,2.015 28.490,1.929 28.714,1.929 C28.939,1.929 29.150,2.015 29.309,2.174 C29.467,2.331 29.555,2.539 29.555,2.762 C29.555,2.984 29.467,3.193 29.308,3.351 C28.991,3.666 28.437,3.666 28.121,3.351 C27.962,3.194 27.874,2.984 27.874,2.762 C27.874,2.539 27.961,2.330 28.121,2.173 ZM8.146,6.423 C7.987,6.266 7.900,6.057 7.900,5.835 C7.900,5.613 7.988,5.403 8.146,5.247 C8.304,5.089 8.516,5.003 8.740,5.003 C8.965,5.003 9.176,5.089 9.334,5.246 C9.493,5.404 9.580,5.613 9.580,5.835 C9.580,6.057 9.493,6.265 9.334,6.423 C9.017,6.739 8.464,6.737 8.146,6.423 ZM13.674,16.355 C12.968,15.654 12.580,14.725 12.580,13.735 C12.580,12.747 12.968,11.816 13.674,11.117 C14.380,10.417 15.319,10.031 16.317,10.031 C17.315,10.031 18.253,10.417 18.959,11.117 C19.665,11.816 20.054,12.747 20.054,13.735 C20.054,14.725 19.665,15.654 18.959,16.355 C17.547,17.753 15.086,17.753 13.674,16.355 ZM31.633,30.870 C30.498,31.993 28.519,31.992 27.384,30.870 C26.213,29.709 26.213,27.820 27.384,26.659 C27.952,26.097 28.706,25.787 29.509,25.787 C30.311,25.787 31.066,26.097 31.633,26.659 C32.805,27.820 32.805,29.709 31.633,30.870 Z" id="path-1" class="cls-2" fill-rule="evenodd"/>
</svg>
