<svg xmlns="http://www.w3.org/2000/svg" xmlns:xlink="http://www.w3.org/1999/xlink" preserveAspectRatio="xMidYMid" width="40" height="37" viewBox="0 0 40 37">
  <defs>
    <style>

      .cls-2 {
        fill: #2a1e30;
      }
    </style>
  </defs>
  <path d="M38.873,22.776 C37.975,24.027 36.695,24.867 35.423,25.075 C34.798,27.649 33.526,29.972 31.784,31.873 C31.573,32.136 31.346,32.391 31.084,32.628 C31.057,32.653 31.023,32.660 30.995,32.681 C28.167,35.355 24.343,37.008 20.129,37.008 C15.908,37.008 12.078,35.350 9.249,32.669 C9.233,32.656 9.214,32.651 9.200,32.637 C9.172,32.611 9.150,32.582 9.122,32.555 C6.936,30.439 5.368,27.703 4.720,24.635 C3.193,24.561 1.643,23.466 0.735,21.786 C0.153,20.709 -0.096,19.523 0.036,18.449 C0.182,17.258 0.796,16.294 1.721,15.806 C2.158,15.575 2.640,15.458 3.152,15.458 C3.898,15.458 4.653,15.716 5.344,16.164 C6.777,12.294 9.735,9.056 13.626,7.307 C13.532,6.991 13.484,6.663 13.484,6.330 C13.484,4.388 15.082,2.809 17.047,2.809 C17.330,2.809 17.611,2.842 17.884,2.908 C18.866,1.125 20.750,-0.013 22.855,-0.013 C25.994,-0.013 28.548,2.510 28.548,5.612 C28.548,6.444 28.360,7.253 27.998,7.999 C31.415,9.943 33.900,13.005 35.087,16.593 C35.665,16.324 36.266,16.172 36.854,16.172 C37.520,16.172 38.142,16.362 38.655,16.720 C39.511,17.320 39.998,18.352 39.991,19.552 C39.985,20.635 39.587,21.780 38.873,22.776 ZM4.729,18.276 C4.185,17.747 3.591,17.492 3.152,17.492 C2.982,17.492 2.826,17.528 2.691,17.599 C2.247,17.834 2.117,18.385 2.080,18.693 C2.000,19.347 2.172,20.125 2.551,20.827 C3.080,21.806 3.827,22.354 4.443,22.539 C4.443,22.539 4.443,22.539 4.443,22.539 C4.417,22.179 4.387,21.821 4.387,21.455 C4.387,20.373 4.508,19.310 4.729,18.276 C4.729,18.276 4.729,18.276 4.729,18.276 ZM10.561,31.103 C13.030,33.494 16.406,34.974 20.129,34.974 C24.119,34.974 27.705,33.267 30.209,30.566 C30.825,29.770 31.066,28.852 30.847,28.004 C30.654,27.254 30.142,26.710 29.478,26.548 C29.134,26.465 28.858,26.211 28.747,25.879 C28.636,25.546 28.706,25.179 28.934,24.910 C29.532,24.200 29.934,22.883 29.934,21.634 C29.934,18.967 27.728,16.877 24.913,16.877 C23.281,16.877 21.788,17.589 20.914,18.781 C20.820,18.922 20.689,19.041 20.532,19.122 C20.191,19.296 19.779,19.271 19.466,19.053 C19.050,18.764 18.684,18.495 18.351,18.250 C17.071,17.307 16.486,16.877 15.277,16.877 C12.598,16.877 10.418,19.015 10.418,21.643 C10.418,22.934 10.788,24.230 11.361,24.943 C11.578,25.213 11.642,25.573 11.531,25.900 C11.420,26.225 11.150,26.475 10.812,26.561 C10.205,26.715 9.728,27.244 9.534,27.975 C9.254,29.032 9.640,30.193 10.561,31.103 ZM26.101,9.307 C26.101,9.307 24.971,8.763 24.971,8.763 C24.971,8.763 25.734,7.776 25.734,7.776 C26.228,7.135 26.489,6.386 26.489,5.612 C26.489,3.632 24.859,2.021 22.855,2.021 C21.274,2.021 19.889,3.033 19.409,4.540 C19.409,4.540 19.001,5.818 19.001,5.818 C19.001,5.818 17.865,5.086 17.865,5.086 C17.618,4.927 17.335,4.843 17.047,4.843 C16.218,4.843 15.543,5.510 15.543,6.330 C15.543,6.729 15.712,7.034 15.854,7.220 C15.854,7.220 16.690,8.312 16.690,8.312 C16.690,8.312 15.390,8.787 15.390,8.787 C10.040,10.742 6.446,15.833 6.446,21.455 C6.446,23.452 6.898,25.342 7.687,27.050 C7.980,26.258 8.463,25.595 9.098,25.146 C8.564,24.005 8.359,22.670 8.359,21.643 C8.359,17.893 11.462,14.843 15.277,14.843 C17.169,14.843 18.181,15.588 19.581,16.619 C19.680,16.692 19.782,16.767 19.888,16.845 C21.163,15.577 22.975,14.843 24.913,14.843 C28.817,14.843 31.992,17.889 31.992,21.634 C31.992,22.654 31.776,23.984 31.212,25.131 C31.837,25.561 32.328,26.182 32.635,26.917 C33.386,25.245 33.812,23.399 33.812,21.455 C33.812,16.250 30.858,11.595 26.101,9.307 ZM37.465,18.380 C37.300,18.265 37.094,18.206 36.854,18.206 C36.506,18.206 36.060,18.352 35.608,18.635 C35.777,19.554 35.871,20.495 35.871,21.455 C35.871,21.912 35.841,22.363 35.801,22.810 C35.801,22.810 35.801,22.810 35.801,22.810 C36.274,22.572 36.772,22.188 37.193,21.600 C37.659,20.950 37.928,20.200 37.932,19.540 C37.934,19.230 37.876,18.668 37.465,18.380 ZM17.170,19.571 C18.424,20.809 18.424,22.824 17.172,24.062 C16.564,24.662 15.757,24.993 14.898,24.993 C14.040,24.993 13.232,24.662 12.625,24.062 C11.373,22.824 11.373,20.809 12.625,19.571 C13.841,18.371 15.956,18.371 17.170,19.571 ZM14.081,22.624 C14.518,23.055 15.278,23.055 15.715,22.624 C16.166,22.179 16.166,21.454 15.715,21.009 C15.497,20.795 15.207,20.675 14.898,20.675 C14.590,20.675 14.299,20.795 14.080,21.010 C13.631,21.454 13.631,22.179 14.081,22.624 ZM20.129,26.874 C25.097,26.874 27.238,29.394 27.327,29.501 C27.687,29.936 27.621,30.577 27.181,30.932 C26.990,31.086 26.759,31.162 26.530,31.162 C26.232,31.162 25.936,31.034 25.733,30.788 C25.673,30.720 24.060,28.908 20.129,28.908 C16.190,28.908 14.541,30.769 14.525,30.788 C14.165,31.224 13.517,31.287 13.077,30.932 C12.636,30.577 12.571,29.936 12.931,29.501 C13.019,29.394 15.160,26.874 20.129,26.874 ZM24.867,24.993 C24.009,24.993 23.201,24.662 22.594,24.062 C21.341,22.824 21.341,20.809 22.594,19.571 C23.809,18.371 25.925,18.371 27.139,19.571 C28.392,20.809 28.392,22.824 27.140,24.062 C26.533,24.662 25.725,24.993 24.867,24.993 ZM25.684,21.009 C25.466,20.795 25.176,20.675 24.867,20.675 C24.558,20.675 24.268,20.795 24.049,21.010 C23.599,21.454 23.599,22.179 24.050,22.624 C24.487,23.055 25.247,23.055 25.684,22.624 C26.135,22.179 26.135,21.454 25.684,21.009 Z" id="path-1" class="cls-2" fill-rule="evenodd"/>
</svg>
