<svg xmlns="http://www.w3.org/2000/svg" xmlns:xlink="http://www.w3.org/1999/xlink" preserveAspectRatio="xMidYMid" width="38" height="34" viewBox="0 0 38 34">
  <defs>
    <style>

      .cls-2 {
        fill: #2a1e30;
      }
    </style>
  </defs>
  <path d="M34.162,22.203 C34.162,22.203 33.997,22.199 33.997,22.199 C33.978,22.198 33.952,22.193 33.927,22.189 C33.341,24.779 32.080,27.113 30.340,29.015 C30.136,29.270 29.916,29.519 29.662,29.749 C29.636,29.773 29.603,29.781 29.575,29.801 C26.831,32.401 23.122,34.009 19.033,34.009 C14.939,34.009 11.223,32.396 8.478,29.788 C8.463,29.776 8.444,29.772 8.430,29.758 C8.403,29.733 8.382,29.704 8.355,29.678 C6.276,27.661 4.780,25.062 4.130,22.149 C4.038,22.163 3.951,22.194 3.856,22.199 C3.856,22.199 3.705,22.203 3.705,22.203 C1.762,22.203 0.135,20.230 -0.000,17.711 C-0.064,16.526 0.211,15.380 0.774,14.487 C1.398,13.497 2.339,12.898 3.356,12.845 C3.356,12.845 3.510,12.841 3.510,12.841 C3.996,12.841 4.465,12.967 4.893,13.191 C5.350,12.083 5.938,11.027 6.651,10.047 C5.086,9.060 4.100,7.346 4.100,5.457 C4.100,2.441 6.577,-0.013 9.623,-0.013 C12.269,-0.013 14.486,1.838 15.022,4.302 C17.736,3.560 20.570,3.585 23.257,4.359 C23.771,1.867 26.003,-0.013 28.669,-0.013 C31.714,-0.013 34.192,2.441 34.192,5.457 C34.192,7.397 33.127,9.170 31.484,10.139 C32.155,11.074 32.711,12.079 33.149,13.130 C33.535,12.952 33.945,12.841 34.375,12.841 C34.375,12.841 34.528,12.845 34.528,12.845 C35.544,12.898 36.485,13.497 37.108,14.487 C37.671,15.380 37.939,16.525 37.875,17.711 C37.739,20.230 36.104,22.203 34.162,22.203 ZM3.541,14.819 C3.006,14.846 2.698,15.278 2.538,15.534 C2.195,16.078 2.092,16.833 2.134,17.606 C2.213,19.088 2.909,20.098 3.829,20.204 C3.791,19.768 3.761,19.330 3.761,18.884 C3.761,17.611 3.932,16.352 4.249,15.134 C4.015,14.938 3.782,14.819 3.541,14.819 ZM9.751,28.266 C12.147,30.591 15.422,32.031 19.033,32.031 C22.905,32.031 26.384,30.371 28.812,27.744 C29.410,26.970 29.644,26.078 29.432,25.253 C29.244,24.524 28.748,23.994 28.104,23.837 C27.770,23.756 27.502,23.509 27.394,23.186 C27.287,22.862 27.355,22.506 27.575,22.244 C28.156,21.554 28.546,20.273 28.546,19.058 C28.546,16.465 26.406,14.433 23.675,14.433 C22.091,14.433 20.644,15.124 19.796,16.284 C19.704,16.421 19.577,16.536 19.424,16.616 C19.092,16.786 18.694,16.761 18.390,16.549 C17.987,16.268 17.632,16.006 17.308,15.768 C16.067,14.851 15.500,14.433 14.326,14.433 C11.727,14.433 9.612,16.511 9.612,19.067 C9.612,20.322 9.972,21.583 10.528,22.276 C10.738,22.539 10.800,22.888 10.692,23.206 C10.585,23.523 10.322,23.765 9.995,23.849 C9.406,23.999 8.943,24.514 8.755,25.225 C8.483,26.252 8.858,27.381 9.751,28.266 ZM29.150,10.385 C29.150,10.385 28.148,9.218 28.148,9.218 C28.148,9.218 29.635,8.795 29.635,8.795 C31.142,8.366 32.195,6.993 32.195,5.457 C32.195,3.531 30.613,1.964 28.669,1.964 C26.724,1.964 25.142,3.531 25.142,5.457 C25.155,5.524 25.163,5.587 25.167,5.652 C25.167,5.652 25.254,7.184 25.254,7.184 C25.254,7.184 23.810,6.630 23.810,6.630 C20.794,5.477 17.532,5.441 14.475,6.552 C14.475,6.552 13.082,7.057 13.082,7.057 C13.082,7.057 13.150,5.408 13.150,5.408 C13.149,3.531 11.567,1.964 9.623,1.964 C7.679,1.964 6.097,3.531 6.097,5.457 C6.097,6.951 7.071,8.276 8.520,8.752 C8.520,8.752 9.932,9.217 9.932,9.217 C9.932,9.217 8.963,10.335 8.963,10.335 C6.897,12.720 5.759,15.755 5.759,18.884 C5.759,20.826 6.197,22.664 6.963,24.325 C7.247,23.555 7.716,22.910 8.332,22.473 C7.814,21.363 7.615,20.065 7.615,19.067 C7.615,15.421 10.626,12.455 14.326,12.455 C16.162,12.455 17.144,13.179 18.502,14.182 C18.598,14.252 18.697,14.326 18.799,14.401 C20.037,13.169 21.794,12.455 23.675,12.455 C27.462,12.455 30.543,15.417 30.543,19.058 C30.543,20.050 30.333,21.343 29.786,22.459 C30.392,22.877 30.868,23.481 31.167,24.196 C31.895,22.569 32.308,20.775 32.308,18.884 C32.308,15.777 31.187,12.759 29.150,10.385 ZM35.414,15.728 C35.253,15.473 34.910,15.209 34.422,15.209 C34.422,15.209 34.421,15.209 34.421,15.209 C34.226,15.209 34.028,15.119 33.838,15.209 C34.142,16.404 34.306,17.637 34.306,18.884 C34.306,19.341 34.277,19.791 34.236,20.238 C34.959,20.099 35.810,19.151 35.888,17.703 C35.929,16.930 35.757,16.272 35.414,15.728 ZM14.643,17.137 C16.362,17.137 17.761,18.522 17.761,20.225 C17.761,20.771 17.314,21.214 16.762,21.214 C16.211,21.214 15.763,20.771 15.763,20.225 C15.763,19.612 15.261,19.115 14.643,19.115 C14.024,19.115 13.521,19.612 13.521,20.225 C13.521,20.771 13.074,21.214 12.523,21.214 C11.971,21.214 11.524,20.771 11.524,20.225 C11.524,18.522 12.923,17.137 14.643,17.137 ZM14.466,24.531 C15.007,24.464 15.511,24.852 15.578,25.394 C15.618,25.688 16.060,28.323 19.033,28.323 C22.006,28.323 22.449,25.688 22.490,25.388 C22.563,24.849 23.055,24.468 23.607,24.535 C24.151,24.605 24.538,25.093 24.472,25.633 C24.273,27.247 22.882,30.301 19.033,30.301 C15.185,30.301 13.794,27.247 13.595,25.633 C13.528,25.090 13.918,24.598 14.466,24.531 ZM23.630,19.115 C23.012,19.115 22.509,19.612 22.509,20.225 C22.509,20.771 22.062,21.214 21.511,21.214 C20.959,21.214 20.512,20.771 20.512,20.225 C20.512,18.522 21.911,17.137 23.630,17.137 C25.350,17.137 26.749,18.522 26.749,20.225 C26.749,20.771 26.301,21.214 25.750,21.214 C25.198,21.214 24.751,20.771 24.751,20.225 C24.751,19.612 24.249,19.115 23.630,19.115 Z" id="path-1" class="cls-2" fill-rule="evenodd"/>
</svg>
