<svg xmlns="http://www.w3.org/2000/svg" xmlns:xlink="http://www.w3.org/1999/xlink" preserveAspectRatio="xMidYMid" width="38" height="38" viewBox="0 0 38 38">
  <defs>
    <style>

      .cls-2 {
        fill: #2a1e30;
      }
    </style>
  </defs>
  <path d="M34.164,30.410 C34.498,30.954 34.700,31.587 34.700,32.271 C34.700,34.247 33.093,35.855 31.116,35.855 C30.318,35.855 29.587,35.583 28.991,35.140 C26.085,36.948 22.669,38.008 19.002,38.008 C8.522,38.008 -0.004,29.482 -0.004,19.002 C-0.004,8.522 8.522,-0.004 19.002,-0.004 C29.482,-0.004 38.008,8.522 38.008,19.002 C38.008,23.286 36.566,27.229 34.164,30.410 ZM31.116,33.918 C32.024,33.918 32.763,33.179 32.763,32.271 C32.763,31.362 32.024,30.624 31.116,30.624 C30.208,30.624 29.469,31.362 29.469,32.271 C29.469,33.179 30.208,33.918 31.116,33.918 ZM19.002,1.933 C9.591,1.933 1.933,9.590 1.933,19.002 C1.933,28.414 9.591,36.071 19.002,36.071 C22.220,36.071 25.226,35.166 27.798,33.611 C27.629,33.197 27.532,32.746 27.532,32.271 C27.532,30.295 29.140,28.687 31.116,28.687 C31.704,28.687 32.252,28.843 32.742,29.095 C34.827,26.265 36.071,22.779 36.071,19.002 C36.071,9.590 28.414,1.933 19.002,1.933 ZM23.968,16.641 C23.968,16.641 23.968,24.826 23.968,24.826 C23.968,25.361 23.534,25.795 23.000,25.795 C22.465,25.795 22.031,25.361 22.031,24.826 C22.031,24.826 22.031,16.805 22.031,16.805 C21.043,16.742 19.888,16.476 18.524,15.866 C17.546,15.427 16.704,15.222 15.973,15.156 C15.973,15.156 15.973,24.826 15.973,24.826 C15.973,25.361 15.540,25.795 15.005,25.795 C14.470,25.795 14.037,25.361 14.037,24.826 C14.037,24.826 14.037,15.346 14.037,15.346 C12.770,15.765 12.219,16.635 12.209,16.651 C12.027,16.952 11.708,17.117 11.380,17.117 C11.209,17.117 11.036,17.072 10.879,16.976 C10.422,16.699 10.276,16.103 10.553,15.647 C10.579,15.603 13.236,11.378 19.316,14.098 C23.710,16.066 25.029,13.794 25.083,13.697 C25.340,13.233 25.925,13.055 26.389,13.302 C26.856,13.550 27.042,14.118 26.802,14.589 C26.790,14.614 25.988,16.108 23.968,16.641 Z" id="path-1" class="cls-2" fill-rule="evenodd"/>
</svg>
