<svg xmlns="http://www.w3.org/2000/svg" xmlns:xlink="http://www.w3.org/1999/xlink" preserveAspectRatio="xMidYMid" width="38" height="31" viewBox="0 0 38 31">
  <defs>
    <style>

      .cls-2 {
        fill: #2a1e30;
      }
    </style>
  </defs>
  <path d="M35.019,13.279 C34.291,13.279 33.632,13.008 33.113,12.575 C33.113,12.575 19.721,19.997 19.721,19.997 C19.570,20.081 19.401,20.123 19.233,20.123 C19.065,20.123 18.897,20.081 18.745,19.997 C18.745,19.997 2.362,10.918 2.362,10.918 C2.046,10.743 1.849,10.411 1.849,10.050 C1.849,9.690 2.046,9.358 2.362,9.182 C2.362,9.182 18.745,0.103 18.745,0.103 C19.048,-0.066 19.418,-0.066 19.721,0.103 C19.721,0.103 31.501,6.631 31.501,6.631 C31.984,6.898 32.157,7.504 31.887,7.984 C31.618,8.464 31.008,8.634 30.525,8.367 C30.525,8.367 19.233,2.110 19.233,2.110 C19.233,2.110 4.905,10.050 4.905,10.050 C4.905,10.050 19.233,17.990 19.233,17.990 C19.233,17.990 32.095,10.863 32.095,10.863 C32.062,10.686 32.039,10.505 32.039,10.319 C32.039,8.688 33.376,7.361 35.019,7.361 C36.662,7.361 37.999,8.688 37.999,10.319 C37.999,11.952 36.662,13.279 35.019,13.279 ZM35.019,9.349 C34.480,9.349 34.042,9.784 34.042,10.319 C34.042,10.854 34.480,11.290 35.019,11.290 C35.558,11.290 35.996,10.854 35.996,10.319 C35.996,9.784 35.558,9.349 35.019,9.349 ZM5.960,15.291 C5.960,15.534 5.922,15.767 5.866,15.993 C5.866,15.993 19.233,23.400 19.233,23.400 C19.233,23.400 35.128,14.593 35.128,14.593 C35.612,14.326 36.222,14.498 36.490,14.976 C36.760,15.456 36.587,16.062 36.104,16.329 C36.104,16.329 19.721,25.407 19.721,25.407 C19.570,25.492 19.401,25.534 19.233,25.534 C19.065,25.534 18.897,25.492 18.745,25.407 C18.745,25.407 7.732,19.304 7.732,19.304 C7.732,19.304 4.905,20.872 4.905,20.872 C4.905,20.872 19.233,28.812 19.233,28.812 C19.233,28.812 32.084,21.691 32.084,21.691 C32.062,21.548 32.039,21.406 32.039,21.257 C32.039,19.626 33.376,18.298 35.019,18.298 C36.662,18.298 37.999,19.626 37.999,21.257 C37.999,22.889 36.662,24.217 35.019,24.217 C34.251,24.217 33.558,23.919 33.029,23.444 C33.029,23.444 19.721,30.819 19.721,30.819 C19.570,30.904 19.401,30.945 19.233,30.945 C19.065,30.945 18.897,30.904 18.745,30.819 C18.745,30.819 2.362,21.740 2.362,21.740 C2.046,21.564 1.849,21.232 1.849,20.872 C1.849,20.511 2.046,20.179 2.362,20.003 C2.362,20.003 5.678,18.166 5.678,18.166 C5.678,18.166 4.755,17.655 4.755,17.655 C4.258,18.024 3.648,18.251 2.981,18.251 C1.338,18.251 0.001,16.923 0.001,15.291 C0.001,13.660 1.338,12.332 2.981,12.332 C4.624,12.332 5.960,13.660 5.960,15.291 ZM35.019,22.228 C35.558,22.228 35.996,21.792 35.996,21.257 C35.996,20.722 35.558,20.287 35.019,20.287 C34.480,20.287 34.042,20.722 34.042,21.257 C34.042,21.792 34.480,22.228 35.019,22.228 ZM2.004,15.291 C2.004,15.826 2.442,16.262 2.981,16.262 C3.520,16.262 3.958,15.826 3.958,15.291 C3.958,14.756 3.520,14.321 2.981,14.321 C2.442,14.321 2.004,14.756 2.004,15.291 Z" id="path-1" class="cls-2" fill-rule="evenodd"/>
</svg>
