<svg xmlns="http://www.w3.org/2000/svg" xmlns:xlink="http://www.w3.org/1999/xlink" preserveAspectRatio="xMidYMid" width="36" height="37" viewBox="0 0 36 37">
  <defs>
    <style>

      .cls-2 {
        fill: #2a1e30;
      }
    </style>
  </defs>
  <path d="M35.162,26.921 C34.929,22.507 33.144,17.574 30.270,13.521 C26.931,8.812 22.761,6.149 18.491,5.960 C19.831,5.667 20.836,4.463 20.836,3.022 C20.836,1.363 19.500,0.014 17.859,0.014 C16.218,0.014 14.882,1.363 14.882,3.022 C14.882,4.480 15.913,5.697 17.277,5.971 C8.037,6.562 1.304,18.350 0.822,26.925 C0.368,27.021 -0.000,27.408 -0.000,27.895 C-0.000,27.895 -0.000,35.476 -0.000,35.476 C-0.000,36.035 0.489,36.992 1.042,36.992 C1.042,36.992 34.958,36.992 34.958,36.992 C35.511,36.992 36.000,36.035 36.000,35.476 C36.000,35.476 36.000,27.895 36.000,27.895 C36.000,27.402 35.624,27.011 35.162,26.921 ZM9.423,30.261 C9.423,30.261 13.901,34.971 13.901,34.971 C13.901,34.971 7.689,34.971 7.689,34.971 C7.689,34.971 9.423,30.261 9.423,30.261 ZM5.980,33.311 C5.980,33.311 2.953,28.906 2.953,28.906 C2.953,28.906 7.602,28.906 7.602,28.906 C7.602,28.906 5.980,33.311 5.980,33.311 ZM11.390,28.906 C11.390,28.906 17.602,28.906 17.602,28.906 C17.602,28.906 15.868,33.615 15.868,33.615 C15.868,33.615 11.390,28.906 11.390,28.906 ZM19.423,30.261 C19.423,30.261 23.901,34.971 23.901,34.971 C23.901,34.971 17.689,34.971 17.689,34.971 C17.689,34.971 19.423,30.261 19.423,30.261 ZM21.390,28.906 C21.390,28.906 27.603,28.906 27.603,28.906 C27.603,28.906 25.868,33.615 25.868,33.615 C25.868,33.615 21.390,28.906 21.390,28.906 ZM29.312,30.565 C29.312,30.565 32.338,34.971 32.338,34.971 C32.338,34.971 27.689,34.971 27.689,34.971 C27.689,34.971 29.312,30.565 29.312,30.565 ZM30.953,28.906 C30.953,28.906 34.000,28.906 34.000,28.906 C34.000,28.906 34.000,33.280 34.000,33.280 C34.000,33.280 30.953,28.906 30.953,28.906 ZM16.881,3.022 C16.881,2.478 17.319,2.035 17.857,2.035 C18.396,2.035 18.833,2.478 18.833,3.022 C18.833,3.566 18.396,4.009 17.857,4.009 C17.319,4.009 16.881,3.566 16.881,3.022 ZM18.000,7.963 C25.732,7.963 32.644,18.278 33.157,26.884 C33.157,26.884 2.838,26.884 2.838,26.884 C3.354,16.755 11.519,7.963 18.000,7.963 ZM2.000,31.122 C2.000,31.122 4.338,34.971 4.338,34.971 C4.338,34.971 2.000,34.971 2.000,34.971 C2.000,34.971 2.000,31.122 2.000,31.122 Z" id="path-1" class="cls-2" fill-rule="evenodd"/>
</svg>
