<svg xmlns="http://www.w3.org/2000/svg" xmlns:xlink="http://www.w3.org/1999/xlink" preserveAspectRatio="xMidYMid" width="38" height="22" viewBox="0 0 38 22">
  <defs>
    <style>

      .cls-2 {
        fill: #2a1e30;
      }
    </style>
  </defs>
  <path d="M37.695,2.725 C36.958,0.934 35.570,-0.012 33.681,-0.012 C29.843,-0.012 24.462,4.105 21.147,7.004 C20.526,6.623 19.806,6.403 19.043,6.403 C18.511,6.403 17.991,6.508 17.495,6.714 C16.255,7.233 15.415,8.307 15.122,9.529 C10.374,9.863 2.874,10.915 0.667,14.246 C-0.122,15.436 -0.224,16.831 0.373,18.281 C1.110,20.071 2.498,21.017 4.387,21.017 C8.244,21.017 13.655,16.863 16.966,13.962 C17.581,14.334 18.292,14.549 19.046,14.549 C19.578,14.549 20.099,14.445 20.593,14.238 C21.592,13.823 22.370,13.040 22.783,12.035 C22.861,11.847 22.910,11.652 22.958,11.458 C28.357,11.105 34.990,10.033 37.159,6.759 C37.948,5.570 38.292,4.175 37.695,2.725 ZM2.446,17.416 C2.040,16.429 2.302,15.849 2.533,15.499 C3.995,13.292 10.079,12.168 15.231,11.786 C15.260,11.869 15.272,11.953 15.306,12.035 C15.344,12.127 15.394,12.210 15.437,12.298 C12.117,15.180 7.310,18.759 4.387,18.759 C3.414,18.759 2.834,18.358 2.446,17.416 ZM20.710,11.171 C20.526,11.619 20.180,11.967 19.734,12.152 C18.830,12.532 17.750,12.071 17.379,11.171 C16.999,10.247 17.437,9.184 18.355,8.800 C18.576,8.709 18.807,8.661 19.043,8.661 C19.775,8.661 20.430,9.101 20.710,9.783 C20.895,10.230 20.895,10.723 20.710,11.171 ZM35.535,5.507 C34.076,7.708 28.018,8.833 22.874,9.217 C22.841,9.118 22.824,9.016 22.783,8.918 C22.749,8.835 22.703,8.760 22.664,8.679 C25.983,5.802 30.767,2.246 33.681,2.246 C34.653,2.246 35.234,2.648 35.622,3.589 C36.028,4.576 35.766,5.156 35.535,5.507 Z" id="path-1" class="cls-2" fill-rule="evenodd"/>
</svg>
