<svg xmlns="http://www.w3.org/2000/svg" xmlns:xlink="http://www.w3.org/1999/xlink" preserveAspectRatio="xMidYMid" width="33" height="38" viewBox="0 0 33 38">
  <defs>
    <style>

      .cls-2 {
        fill: #2a1e30;
      }
    </style>
  </defs>
  <path d="M20.427,1.978 C21.678,1.978 23.416,2.317 23.416,3.942 C23.416,5.568 22.026,6.110 22.651,7.668 C22.817,8.080 23.337,8.232 24.012,8.232 C25.892,8.232 28.976,7.059 28.976,7.059 C28.976,7.059 30.763,16.543 28.073,16.543 C26.613,16.543 27.378,14.578 24.667,14.578 C21.956,14.578 21.122,17.356 21.122,19.049 C21.122,20.743 21.609,22.911 24.180,23.182 C24.316,23.196 24.444,23.203 24.566,23.203 C26.694,23.203 26.840,21.144 28.416,21.144 C28.463,21.144 28.510,21.145 28.559,21.149 C30.366,21.285 30.124,27.110 29.568,29.278 C27.715,28.893 25.999,28.722 24.556,28.722 C21.938,28.722 20.219,29.286 20.219,30.159 C20.219,31.514 21.748,31.649 21.748,33.343 C21.748,35.036 18.829,35.985 18.829,35.985 C18.829,35.985 18.555,36.028 18.161,36.028 C17.152,36.028 15.354,35.747 15.354,33.749 C15.354,30.972 16.874,32.191 16.874,30.023 C16.874,29.184 15.812,28.924 14.422,28.924 C12.223,28.924 9.201,29.575 8.264,29.617 C8.403,28.601 9.168,18.507 7.847,17.491 C7.597,17.298 7.356,17.220 7.123,17.220 C6.126,17.220 5.260,18.645 4.303,18.645 C3.121,18.645 2.009,17.152 2.009,15.594 C2.009,14.036 2.635,12.681 4.303,12.681 C5.749,12.681 6.045,13.343 7.140,13.343 C7.308,13.343 7.495,13.327 7.708,13.291 C9.307,13.020 8.195,7.059 8.195,7.059 C8.195,7.059 12.969,8.204 15.933,8.204 C17.014,8.204 17.855,8.051 18.134,7.634 C19.176,6.076 17.508,5.772 17.508,4.146 C17.508,2.520 19.176,1.978 20.427,1.978 M20.427,0.012 C17.567,0.012 15.491,1.874 15.491,4.269 C15.491,5.172 15.775,5.500 16.054,6.483 C16.015,6.483 15.975,6.483 15.933,6.483 C13.702,6.483 9.939,5.575 8.677,5.272 C8.518,5.234 8.356,5.154 8.196,5.154 C7.688,5.154 7.192,5.310 6.814,5.657 C6.315,6.113 6.088,6.769 6.210,7.425 C6.455,8.747 6.581,10.232 6.551,11.172 C6.059,10.969 5.353,10.719 4.303,10.719 C1.724,10.719 -0.008,12.678 -0.008,15.596 C-0.008,18.269 2.006,20.613 4.303,20.613 C5.217,20.613 5.929,20.219 6.490,19.820 C6.743,22.383 6.479,27.792 6.265,29.357 C6.186,29.935 6.373,30.516 6.777,30.946 C7.160,31.353 7.700,31.583 8.264,31.583 C8.295,31.583 8.325,31.583 8.356,31.581 C8.801,31.562 9.403,31.469 10.236,31.341 C11.371,31.166 12.890,30.932 14.106,30.895 C13.657,31.509 13.336,32.370 13.336,33.749 C13.336,36.328 15.230,37.994 18.161,37.994 C18.689,37.994 19.075,37.938 19.148,37.927 C19.256,37.910 19.363,37.884 19.467,37.850 C20.185,37.617 23.765,36.304 23.765,33.343 C23.765,32.168 23.320,31.349 22.894,30.792 C23.313,30.732 23.861,30.688 24.556,30.688 C25.945,30.688 27.532,30.866 29.147,31.201 C29.289,31.231 29.430,31.245 29.570,31.245 C30.476,31.245 31.297,30.646 31.525,29.755 C31.938,28.144 32.583,22.720 30.885,20.425 C30.343,19.692 29.572,19.253 28.714,19.189 C28.612,19.181 28.513,19.178 28.416,19.178 C26.813,19.177 25.889,20.139 25.337,20.714 C24.835,21.236 24.789,21.236 24.566,21.236 C24.513,21.236 24.457,21.233 24.397,21.227 C23.927,21.177 23.140,21.094 23.140,19.049 C23.140,19.024 23.181,16.544 24.667,16.544 C24.925,16.544 25.061,16.572 25.117,16.588 C25.155,16.639 25.213,16.733 25.258,16.806 C25.576,17.315 26.320,18.509 28.073,18.509 C28.981,18.509 29.810,18.124 30.407,17.426 C32.242,15.280 31.541,9.787 30.960,6.703 C30.852,6.126 30.484,5.627 29.958,5.341 C29.655,5.176 29.316,5.092 28.976,5.092 C28.728,5.092 28.479,5.137 28.243,5.227 C27.423,5.538 25.987,5.990 24.877,6.178 C25.142,5.639 25.433,4.904 25.433,3.942 C25.433,2.129 24.122,0.012 20.427,0.012 C20.427,0.012 20.427,0.012 20.427,0.012 Z" id="path-1" class="cls-2" fill-rule="evenodd"/>
</svg>
