<svg xmlns="http://www.w3.org/2000/svg" xmlns:xlink="http://www.w3.org/1999/xlink" preserveAspectRatio="xMidYMid" width="36" height="36" viewBox="0 0 36 36">
  <defs>
    <style>

      .cls-2 {
        fill: #2a1e30;
      }
    </style>
  </defs>
  <path d="M18.824,2.060 C18.824,2.060 22.029,8.222 23.971,8.222 C24.030,8.222 24.089,8.216 24.146,8.204 C26.063,7.803 25.080,6.373 26.291,5.169 C26.730,4.733 27.221,4.560 27.713,4.560 C28.579,4.560 29.446,5.095 30.025,5.671 C30.933,6.574 31.942,8.078 30.731,9.283 C29.520,10.486 28.107,9.884 27.401,11.490 C26.694,13.095 33.912,17.059 33.912,17.059 C33.912,17.059 29.287,23.724 26.918,23.724 C26.641,23.724 26.395,23.633 26.191,23.430 C25.131,22.377 27.150,21.474 25.182,19.517 C24.488,18.827 23.706,18.562 22.930,18.562 C21.504,18.562 20.094,19.458 19.278,20.270 C18.016,21.524 16.755,23.480 18.420,25.537 C19.186,26.483 19.983,26.612 20.739,26.612 C21.023,26.612 21.301,26.593 21.569,26.593 C22.141,26.593 22.668,26.676 23.113,27.192 C24.324,28.597 19.808,32.736 17.790,33.940 C15.248,30.043 12.357,27.626 10.937,27.626 C10.694,27.626 10.494,27.698 10.346,27.844 C9.337,28.848 10.346,30.052 9.084,31.306 C8.695,31.693 8.157,31.827 7.598,31.827 C6.348,31.827 4.997,31.155 4.997,31.155 C4.997,31.155 2.070,29.048 4.139,26.992 C5.009,26.127 5.547,25.980 5.999,25.980 C6.234,25.980 6.446,26.019 6.668,26.019 C7.037,26.019 7.435,25.910 8.018,25.330 C9.633,23.725 3.231,19.868 2.070,18.815 C2.928,18.163 8.805,13.424 8.603,11.719 C8.401,10.013 6.027,10.868 5.170,10.015 C4.312,9.162 4.616,7.254 5.777,6.100 C6.481,5.401 7.295,4.923 8.098,4.923 C8.619,4.923 9.135,5.125 9.612,5.599 C10.823,6.803 10.268,7.555 11.631,8.508 C11.713,8.566 11.812,8.593 11.925,8.593 C13.678,8.593 18.824,2.060 18.824,2.060 M18.823,0.002 C18.190,0.002 17.588,0.290 17.193,0.790 C15.497,2.942 13.526,5.066 12.355,6.050 C12.147,5.549 11.816,4.877 11.077,4.143 C10.235,3.306 9.205,2.864 8.098,2.864 C6.793,2.864 5.484,3.479 4.312,4.644 C3.442,5.510 2.858,6.650 2.670,7.854 C2.447,9.277 2.824,10.595 3.705,11.471 C4.387,12.149 5.224,12.366 5.942,12.473 C4.798,13.829 2.422,15.956 0.812,17.179 C0.325,17.550 0.027,18.116 0.001,18.725 C-0.026,19.334 0.220,19.924 0.673,20.335 C1.011,20.642 1.517,21.008 2.218,21.514 C2.910,22.015 4.390,23.084 5.362,23.972 C4.442,24.126 3.591,24.625 2.674,25.536 C1.447,26.755 1.272,28.035 1.340,28.894 C1.516,31.087 3.405,32.552 3.782,32.823 C3.873,32.889 3.970,32.947 4.070,32.997 C4.254,33.088 5.907,33.886 7.598,33.886 C9.103,33.886 10.033,33.275 10.549,32.762 C11.425,31.891 11.712,30.963 11.817,30.242 C12.814,30.983 14.378,32.494 16.052,35.060 C16.447,35.667 17.112,35.999 17.791,35.999 C18.155,35.999 18.522,35.905 18.855,35.706 C20.355,34.811 24.864,31.260 25.341,28.335 C25.494,27.401 25.261,26.519 24.686,25.852 C23.549,24.534 22.059,24.534 21.569,24.534 C21.415,24.534 21.257,24.539 21.098,24.544 C20.980,24.548 20.860,24.552 20.739,24.552 C20.362,24.552 20.273,24.542 20.033,24.246 C19.729,23.870 19.219,23.240 20.742,21.726 C21.295,21.177 22.223,20.621 22.930,20.621 C23.144,20.621 23.405,20.663 23.717,20.973 C23.905,21.160 23.982,21.279 24.011,21.330 C24.000,21.396 23.973,21.507 23.952,21.594 C23.803,22.200 23.454,23.621 24.726,24.886 C25.308,25.465 26.087,25.783 26.918,25.783 C29.926,25.783 33.659,21.050 35.617,18.228 C35.949,17.750 36.062,17.154 35.928,16.588 C35.794,16.022 35.426,15.538 34.914,15.257 C32.999,14.204 31.070,12.908 30.041,12.022 C30.646,11.816 31.445,11.486 32.196,10.739 C33.547,9.396 34.172,6.881 31.489,4.214 C30.971,3.699 29.566,2.501 27.713,2.501 C26.622,2.501 25.624,2.920 24.826,3.713 C24.152,4.383 23.846,5.099 23.676,5.672 C22.837,4.754 21.596,2.904 20.663,1.114 C20.339,0.491 19.718,0.076 19.016,0.010 C18.952,0.004 18.887,0.002 18.823,0.002 C18.823,0.002 18.823,0.002 18.823,0.002 Z" id="path-1" class="cls-2" fill-rule="evenodd"/>
</svg>
