<svg xmlns="http://www.w3.org/2000/svg" xmlns:xlink="http://www.w3.org/1999/xlink" preserveAspectRatio="xMidYMid" width="38" height="33" viewBox="0 0 38 33">
  <defs>
    <style>

      .cls-2 {
        fill: #2a1e30;
      }
    </style>
  </defs>
  <path d="M36.017,7.047 C36.017,7.047 37.404,15.869 37.404,15.869 C37.490,16.412 37.125,16.924 36.590,17.011 C36.537,17.019 36.485,17.023 36.434,17.023 C36.433,17.023 36.433,17.023 36.432,17.023 C36.045,19.406 34.388,20.661 33.325,21.081 C33.325,21.081 33.325,30.011 33.325,30.011 C33.325,31.661 32.004,33.003 30.379,33.003 C30.379,33.003 7.301,33.003 7.301,33.003 C5.677,33.003 4.355,31.661 4.355,30.011 C4.355,30.011 4.355,21.157 4.355,21.157 C3.310,20.812 1.474,19.537 1.068,17.008 C1.038,17.010 1.011,17.023 0.981,17.023 C0.922,17.023 0.863,17.018 0.804,17.007 C0.270,16.908 -0.084,16.389 0.013,15.846 C0.013,15.846 1.632,6.826 1.632,6.826 C0.690,6.244 0.053,5.202 0.053,4.003 C0.053,2.177 1.515,0.691 3.312,0.691 C5.110,0.691 6.572,2.177 6.572,4.003 C6.572,5.747 5.232,7.166 3.546,7.290 C3.546,7.290 2.740,11.781 2.740,11.781 C3.307,11.263 3.905,10.940 4.355,10.791 C4.355,10.791 4.355,10.531 4.355,10.531 C4.355,8.881 5.677,7.538 7.301,7.538 C7.301,7.538 10.002,7.538 10.002,7.538 C10.002,7.538 10.002,5.052 10.002,5.052 C10.002,2.312 14.050,-0.001 18.840,-0.001 C23.631,-0.001 27.679,2.312 27.679,5.052 C27.679,5.052 27.679,7.538 27.679,7.538 C27.679,7.538 30.379,7.538 30.379,7.538 C32.004,7.538 33.325,8.881 33.325,10.531 C33.325,10.531 33.325,10.867 33.325,10.867 C33.753,11.036 34.278,11.349 34.777,11.808 C34.777,11.808 34.059,7.240 34.059,7.240 C32.587,6.922 31.478,5.592 31.478,4.003 C31.478,2.177 32.940,0.691 34.737,0.691 C36.535,0.691 37.997,2.177 37.997,4.003 C37.997,5.367 37.180,6.540 36.017,7.047 ZM3.312,5.319 C4.027,5.319 4.608,4.729 4.608,4.003 C4.608,3.277 4.027,2.687 3.312,2.687 C2.598,2.687 2.017,3.277 2.017,4.003 C2.017,4.729 2.598,5.319 3.312,5.319 ZM4.355,13.015 C3.755,13.427 2.944,14.287 2.944,15.974 C2.944,17.658 3.753,18.518 4.355,18.932 C4.355,18.932 4.355,13.015 4.355,13.015 ZM18.840,1.994 C15.850,1.994 13.478,3.021 12.480,4.054 C12.480,4.054 25.201,4.054 25.201,4.054 C24.202,3.021 21.831,1.994 18.840,1.994 ZM25.714,6.050 C25.714,6.050 11.966,6.050 11.966,6.050 C11.966,6.050 11.966,7.538 11.966,7.538 C11.966,7.538 25.714,7.538 25.714,7.538 C25.714,7.538 25.714,6.050 25.714,6.050 ZM31.361,10.531 C31.361,9.981 30.920,9.533 30.379,9.533 C30.379,9.533 7.301,9.533 7.301,9.533 C6.760,9.533 6.319,9.981 6.319,10.531 C6.319,10.531 6.319,30.011 6.319,30.011 C6.319,30.561 6.760,31.008 7.301,31.008 C7.301,31.008 30.379,31.008 30.379,31.008 C30.920,31.008 31.361,30.561 31.361,30.011 C31.361,30.011 31.361,10.531 31.361,10.531 ZM33.325,13.154 C33.325,13.154 33.325,18.795 33.325,18.795 C33.895,18.338 34.553,17.489 34.553,15.974 C34.553,14.460 33.896,13.612 33.325,13.154 ZM34.737,2.687 C34.023,2.687 33.442,3.277 33.442,4.003 C33.442,4.729 34.023,5.319 34.737,5.319 C35.452,5.319 36.033,4.729 36.033,4.003 C36.033,3.277 35.452,2.687 34.737,2.687 ZM29.643,29.992 C29.643,29.992 8.038,29.992 8.038,29.992 C7.496,29.992 7.056,29.546 7.056,28.994 C7.056,28.994 7.056,23.009 7.056,23.009 C7.056,22.457 7.496,22.011 8.038,22.011 C8.038,22.011 29.643,22.011 29.643,22.011 C30.185,22.011 30.625,22.457 30.625,23.009 C30.625,23.009 30.625,28.994 30.625,28.994 C30.625,29.546 30.185,29.992 29.643,29.992 ZM11.966,24.006 C11.966,24.006 9.020,24.006 9.020,24.006 C9.020,24.006 9.020,25.004 9.020,25.004 C9.020,25.004 11.966,25.004 11.966,25.004 C11.966,25.004 11.966,24.006 11.966,24.006 ZM11.966,26.999 C11.966,26.999 9.020,26.999 9.020,26.999 C9.020,26.999 9.020,27.997 9.020,27.997 C9.020,27.997 11.966,27.997 11.966,27.997 C11.966,27.997 11.966,26.999 11.966,26.999 ZM17.858,24.006 C17.858,24.006 13.930,24.006 13.930,24.006 C13.930,24.006 13.930,25.004 13.930,25.004 C13.930,25.004 17.858,25.004 17.858,25.004 C17.858,25.004 17.858,24.006 17.858,24.006 ZM17.858,26.999 C17.858,26.999 13.930,26.999 13.930,26.999 C13.930,26.999 13.930,27.997 13.930,27.997 C13.930,27.997 17.858,27.997 17.858,27.997 C17.858,27.997 17.858,26.999 17.858,26.999 ZM23.750,24.006 C23.750,24.006 19.822,24.006 19.822,24.006 C19.822,24.006 19.822,25.004 19.822,25.004 C19.822,25.004 23.750,25.004 23.750,25.004 C23.750,25.004 23.750,24.006 23.750,24.006 ZM23.750,26.999 C23.750,26.999 19.822,26.999 19.822,26.999 C19.822,26.999 19.822,27.997 19.822,27.997 C19.822,27.997 23.750,27.997 23.750,27.997 C23.750,27.997 23.750,26.999 23.750,26.999 ZM28.661,24.006 C28.661,24.006 25.714,24.006 25.714,24.006 C25.714,24.006 25.714,25.004 25.714,25.004 C25.714,25.004 28.661,25.004 28.661,25.004 C28.661,25.004 28.661,24.006 28.661,24.006 ZM28.661,26.999 C28.661,26.999 25.714,26.999 25.714,26.999 C25.714,26.999 25.714,27.997 25.714,27.997 C25.714,27.997 28.661,27.997 28.661,27.997 C28.661,27.997 28.661,26.999 28.661,26.999 ZM24.548,19.285 C22.751,19.285 21.288,17.800 21.288,15.974 C21.288,14.148 22.751,12.663 24.548,12.663 C26.345,12.663 27.807,14.148 27.807,15.974 C27.807,17.800 26.345,19.285 24.548,19.285 ZM24.548,14.658 C23.833,14.658 23.252,15.248 23.252,15.974 C23.252,16.700 23.833,17.290 24.548,17.290 C25.262,17.290 25.843,16.700 25.843,15.974 C25.843,15.248 25.262,14.658 24.548,14.658 ZM18.840,21.014 C18.298,21.014 17.858,20.567 17.858,20.016 C17.858,20.016 17.858,14.030 17.858,14.030 C17.858,13.479 18.298,13.033 18.840,13.033 C19.383,13.033 19.822,13.479 19.822,14.030 C19.822,14.030 19.822,20.016 19.822,20.016 C19.822,20.567 19.383,21.014 18.840,21.014 ZM13.133,19.285 C11.335,19.285 9.873,17.800 9.873,15.974 C9.873,14.148 11.335,12.663 13.133,12.663 C14.930,12.663 16.392,14.148 16.392,15.974 C16.392,17.800 14.930,19.285 13.133,19.285 ZM13.133,14.658 C12.418,14.658 11.837,15.248 11.837,15.974 C11.837,16.700 12.418,17.290 13.133,17.290 C13.847,17.290 14.428,16.700 14.428,15.974 C14.428,15.248 13.847,14.658 13.133,14.658 Z" id="path-1" class="cls-2" fill-rule="evenodd"/>
</svg>
