<svg xmlns="http://www.w3.org/2000/svg" xmlns:xlink="http://www.w3.org/1999/xlink" preserveAspectRatio="xMidYMid" width="37" height="36" viewBox="0 0 37 36">
  <defs>
    <style>

      .cls-2 {
        fill: #2a1e30;
      }
    </style>
  </defs>
  <path d="M28.162,19.388 C25.754,21.737 22.145,21.589 18.986,20.764 C19.392,21.594 19.792,22.302 20.117,22.817 C20.363,23.207 20.303,23.711 19.971,24.034 C19.971,24.034 17.455,26.490 17.455,26.490 C17.257,26.683 16.998,26.779 16.739,26.779 C16.480,26.779 16.221,26.683 16.024,26.490 C15.628,26.104 15.628,25.478 16.024,25.092 C16.024,25.092 17.989,23.173 17.989,23.173 C17.676,22.623 17.221,21.770 16.755,20.741 C16.755,20.741 16.233,21.251 16.233,21.251 C16.233,21.251 16.233,21.251 16.233,21.251 C16.233,21.251 14.956,22.498 14.956,22.498 C14.956,22.498 14.956,22.498 14.956,22.498 C14.956,22.498 14.700,22.748 14.700,22.748 C14.502,22.941 14.243,23.037 13.984,23.037 C13.725,23.037 13.466,22.941 13.268,22.748 C12.873,22.362 12.873,21.736 13.268,21.350 C13.268,21.350 13.524,21.101 13.524,21.101 C13.524,21.101 13.524,21.100 13.524,21.100 C13.524,21.100 14.329,20.315 14.329,20.315 C14.329,20.315 15.228,19.437 15.228,19.437 C14.336,19.049 13.589,18.676 13.091,18.410 C13.091,18.410 11.229,20.227 11.229,20.227 C10.834,20.613 10.193,20.613 9.798,20.227 C9.403,19.841 9.403,19.216 9.798,18.830 C9.798,18.830 12.206,16.479 12.206,16.479 C12.536,16.158 13.048,16.096 13.448,16.333 C13.475,16.350 14.280,16.821 15.504,17.386 C14.611,14.262 14.409,10.687 16.829,8.325 C24.356,0.977 35.025,0.040 35.476,0.003 C35.772,-0.015 36.066,0.086 36.276,0.291 C36.276,0.291 36.395,0.408 36.395,0.408 C36.605,0.613 36.711,0.898 36.687,1.187 C36.650,1.627 35.689,12.040 28.162,19.388 ZM18.261,9.723 C16.230,11.706 16.832,15.325 17.965,18.387 C20.918,19.419 24.609,20.059 26.731,17.990 C32.371,12.484 34.069,4.915 34.521,2.119 C31.654,2.564 23.888,4.229 18.261,9.723 ZM23.000,16.545 C22.177,16.545 21.404,16.232 20.823,15.665 C19.622,14.492 19.622,12.587 20.822,11.414 C21.986,10.279 24.013,10.278 25.177,11.414 C26.377,12.587 26.377,14.492 25.177,15.665 C24.595,16.232 23.822,16.545 23.000,16.545 ZM23.745,12.811 C23.546,12.617 23.281,12.510 23.000,12.510 C22.718,12.510 22.453,12.617 22.254,12.811 C21.843,13.213 21.843,13.866 22.254,14.268 C22.652,14.655 23.347,14.655 23.745,14.268 C24.156,13.866 24.156,13.213 23.745,12.811 ZM11.601,31.457 C10.680,32.357 9.452,32.853 8.143,32.853 C8.143,32.853 8.143,32.853 8.143,32.853 C7.977,32.853 7.811,32.844 7.647,32.829 C7.480,33.233 7.230,33.602 6.909,33.915 C6.299,34.511 5.494,34.849 4.632,34.875 C4.538,35.026 4.427,35.163 4.301,35.286 C3.823,35.752 3.187,36.009 2.512,36.009 C1.836,36.009 1.200,35.752 0.723,35.286 C-0.265,34.323 -0.265,32.755 0.723,31.792 C0.849,31.669 0.988,31.561 1.142,31.470 C1.166,30.641 1.509,29.848 2.126,29.247 C2.446,28.933 2.825,28.691 3.238,28.527 C3.089,27.110 3.587,25.697 4.644,24.666 C5.574,23.759 6.809,23.260 8.123,23.260 C9.437,23.260 10.672,23.759 11.601,24.666 C13.519,26.538 13.519,29.585 11.601,31.457 ZM10.170,26.063 C9.623,25.530 8.896,25.236 8.123,25.236 C7.349,25.236 6.622,25.530 6.076,26.063 C5.301,26.820 5.039,27.929 5.394,28.960 C5.496,29.255 5.449,29.580 5.267,29.837 C5.085,30.093 4.790,30.251 4.470,30.262 C4.122,30.274 3.797,30.409 3.558,30.644 C3.226,30.967 3.094,31.431 3.204,31.886 C3.267,32.146 3.219,32.421 3.070,32.647 C2.921,32.873 2.685,33.030 2.415,33.082 C2.227,33.118 2.172,33.172 2.154,33.189 C1.956,33.382 1.956,33.696 2.154,33.889 C2.282,34.014 2.433,34.033 2.512,34.033 C2.590,34.033 2.741,34.014 2.870,33.888 C2.887,33.872 2.942,33.818 2.980,33.633 C3.033,33.370 3.194,33.139 3.425,32.994 C3.656,32.849 3.940,32.801 4.206,32.864 C4.661,32.967 5.149,32.839 5.478,32.518 C5.717,32.284 5.856,31.969 5.868,31.628 C5.880,31.316 6.041,31.028 6.303,30.850 C6.566,30.674 6.900,30.628 7.202,30.726 C7.506,30.825 7.823,30.876 8.143,30.876 C8.143,30.876 8.143,30.876 8.143,30.876 C8.911,30.876 9.631,30.586 10.170,30.060 C11.299,28.958 11.299,27.165 10.170,26.063 Z" id="path-1" class="cls-2" fill-rule="evenodd"/>
</svg>
