<svg xmlns="http://www.w3.org/2000/svg" xmlns:xlink="http://www.w3.org/1999/xlink" preserveAspectRatio="xMidYMid" width="38" height="38" viewBox="0 0 38 38">
  <defs>
    <style>

      .cls-2 {
        fill: #2a1e30;
      }
    </style>
  </defs>
  <path d="M29.486,19.662 C29.483,19.664 29.481,19.665 29.478,19.667 C29.478,19.667 19.950,29.177 19.950,29.177 C19.762,29.370 19.505,29.246 19.235,29.246 C19.233,29.246 19.231,29.246 19.229,29.246 C18.961,29.246 18.705,29.376 18.516,29.188 C18.516,29.188 8.879,19.707 8.879,19.707 C8.754,19.658 8.636,19.585 8.535,19.485 C8.142,19.093 8.142,18.458 8.535,18.067 C8.535,18.067 18.209,8.434 18.209,8.434 C25.699,0.975 36.314,0.024 36.763,-0.013 C37.061,-0.028 37.349,0.071 37.559,0.279 C37.559,0.279 37.677,0.398 37.677,0.398 C37.886,0.606 37.992,0.895 37.968,1.188 C37.931,1.635 36.975,12.205 29.486,19.662 ZM19.633,9.852 C19.633,9.852 10.686,18.761 10.686,18.761 C10.686,18.761 19.219,27.271 19.219,27.271 C19.219,27.271 28.052,18.246 28.052,18.246 C28.058,18.240 28.066,18.239 28.072,18.233 C33.675,12.645 35.363,4.971 35.813,2.134 C32.960,2.586 25.232,4.276 19.633,9.852 ZM24.349,16.777 C23.530,16.777 22.761,16.459 22.182,15.883 C20.988,14.693 20.988,12.759 22.182,11.569 C23.339,10.417 25.356,10.417 26.515,11.569 C27.709,12.759 27.709,14.693 26.515,15.883 C25.936,16.459 25.167,16.777 24.349,16.777 ZM25.090,12.987 C24.892,12.790 24.629,12.682 24.349,12.682 C24.068,12.682 23.805,12.790 23.607,12.987 C23.198,13.395 23.198,14.058 23.607,14.465 C24.002,14.858 24.693,14.860 25.090,14.465 C25.499,14.058 25.499,13.395 25.090,12.987 ZM11.568,33.346 C10.652,34.258 9.430,34.761 8.129,34.761 C7.963,34.761 7.798,34.753 7.633,34.736 C7.467,35.147 7.220,35.522 6.901,35.840 C6.293,36.445 5.492,36.788 4.634,36.814 C4.540,36.967 4.430,37.106 4.304,37.231 C3.829,37.705 3.196,37.966 2.524,37.966 C1.851,37.966 1.219,37.705 0.743,37.231 C0.268,36.757 0.006,36.128 0.006,35.458 C0.006,34.788 0.268,34.160 0.744,33.686 C0.869,33.560 1.008,33.452 1.161,33.358 C1.185,32.517 1.527,31.713 2.140,31.101 C2.460,30.784 2.836,30.537 3.247,30.371 C3.099,28.933 3.595,27.499 4.646,26.452 C5.570,25.532 6.800,25.024 8.108,25.024 C9.415,25.024 10.644,25.532 11.568,26.452 C13.477,28.353 13.477,31.445 11.568,33.346 ZM10.144,27.871 C9.600,27.329 8.877,27.030 8.108,27.030 C7.338,27.030 6.615,27.329 6.070,27.871 C5.299,28.639 5.039,29.765 5.392,30.811 C5.493,31.112 5.446,31.442 5.265,31.702 C5.083,31.962 4.789,32.121 4.472,32.132 C4.125,32.144 3.803,32.282 3.564,32.519 C3.235,32.847 3.103,33.319 3.213,33.781 C3.276,34.045 3.227,34.324 3.079,34.553 C2.931,34.783 2.696,34.942 2.428,34.995 C2.241,35.031 2.187,35.085 2.169,35.103 C2.040,35.232 2.020,35.381 2.020,35.458 C2.020,35.536 2.040,35.685 2.168,35.813 C2.296,35.941 2.446,35.960 2.524,35.960 C2.602,35.960 2.752,35.941 2.880,35.813 C2.898,35.795 2.953,35.740 2.990,35.554 C3.043,35.287 3.203,35.053 3.433,34.906 C3.663,34.760 3.944,34.712 4.209,34.773 C4.666,34.878 5.149,34.746 5.476,34.422 C5.714,34.185 5.852,33.864 5.864,33.518 C5.875,33.202 6.036,32.909 6.297,32.729 C6.558,32.548 6.890,32.503 7.191,32.602 C8.219,32.946 9.384,32.685 10.144,31.927 C11.267,30.809 11.267,28.989 10.144,27.871 Z" id="path-1" class="cls-2" fill-rule="evenodd"/>
</svg>
