<svg xmlns="http://www.w3.org/2000/svg" xmlns:xlink="http://www.w3.org/1999/xlink" preserveAspectRatio="xMidYMid" width="38" height="35" viewBox="0 0 38 35">
  <defs>
    <style>

      .cls-2 {
        fill: #2a1e30;
      }
    </style>
  </defs>
  <path d="M31.875,17.569 C31.875,17.569 27.958,17.569 27.958,17.569 C27.958,17.569 27.926,11.335 27.926,11.335 C27.926,11.300 27.909,11.322 27.905,11.288 C27.905,11.288 31.346,6.924 31.346,6.924 C31.666,6.524 31.768,6.048 31.768,5.537 C31.768,5.537 31.768,2.113 31.768,2.113 C31.768,0.859 30.886,0.135 29.617,0.135 C29.617,0.135 19.702,0.135 19.702,0.135 C19.589,0.135 19.475,-0.004 19.356,0.013 C19.356,0.013 1.969,2.549 1.969,2.549 C0.836,2.718 0.014,3.784 0.014,4.918 C0.014,6.172 1.046,7.314 2.314,7.314 C2.314,7.314 3.498,7.314 3.498,7.314 C3.498,7.314 7.737,14.831 7.737,14.831 C9.034,17.111 11.482,18.595 14.128,18.595 C14.128,18.595 21.393,18.595 21.393,18.595 C21.393,18.595 21.393,23.443 21.393,23.443 C21.393,23.756 21.436,24.050 21.683,24.245 C21.683,24.245 25.347,27.174 25.347,27.174 C25.347,27.174 25.334,28.776 25.334,28.776 C25.362,32.122 28.113,35.004 31.497,35.004 C31.497,35.004 31.875,35.004 31.875,35.004 C35.288,35.004 37.993,31.941 37.993,28.568 C37.993,28.568 37.993,23.892 37.993,23.892 C37.993,20.519 35.288,17.569 31.875,17.569 ZM4.084,5.263 C4.084,5.263 2.314,5.263 2.314,5.263 C2.190,5.263 2.088,5.004 2.088,4.881 C2.088,4.772 2.171,4.747 2.280,4.730 C2.280,4.730 19.702,2.186 19.702,2.186 C19.702,2.186 29.617,2.186 29.617,2.186 C29.742,2.186 29.693,1.990 29.693,2.113 C29.693,2.113 29.693,5.537 29.693,5.537 C29.693,5.587 29.751,5.636 29.719,5.675 C29.719,5.675 22.617,14.591 22.617,14.591 C22.617,14.591 19.444,8.590 19.444,8.590 C18.330,6.440 16.139,5.263 13.696,5.263 C13.696,5.263 4.123,5.263 4.123,5.263 C4.111,5.263 4.098,5.263 4.084,5.263 ZM13.093,7.314 C13.093,7.314 13.696,7.314 13.696,7.314 C15.357,7.314 16.859,7.981 17.616,9.442 C17.616,9.442 19.295,12.442 19.295,12.442 C19.295,12.442 15.581,12.442 15.581,12.442 C14.229,12.442 13.093,11.520 13.093,10.183 C13.093,10.183 13.093,7.314 13.093,7.314 ZM14.128,16.544 C12.231,16.544 10.475,15.460 9.545,13.826 C9.545,13.826 5.879,7.314 5.879,7.314 C5.879,7.314 11.018,7.314 11.018,7.314 C11.018,7.314 11.018,10.183 11.018,10.183 C11.018,12.651 13.084,14.493 15.581,14.493 C15.581,14.493 20.358,14.493 20.358,14.493 C20.358,14.493 21.032,16.102 21.032,16.102 C21.056,16.149 21.084,16.544 21.114,16.544 C21.114,16.544 14.128,16.544 14.128,16.544 ZM23.346,17.158 C23.346,17.158 25.914,13.889 25.914,13.889 C25.914,13.889 25.924,20.739 25.924,20.739 C25.925,21.054 26.060,21.350 26.311,21.543 C26.311,21.543 30.159,24.510 30.159,24.510 C30.815,25.032 30.916,25.985 30.389,26.634 C29.863,27.283 28.999,27.388 28.342,26.869 C28.342,26.869 23.468,22.949 23.468,22.949 C23.468,22.949 23.468,17.260 23.468,17.260 C23.468,17.224 23.350,17.193 23.346,17.158 ZM35.918,28.568 C35.918,30.810 34.143,32.952 31.875,32.952 C31.875,32.952 31.497,32.952 31.497,32.952 C29.307,32.952 27.515,31.075 27.403,28.933 C27.959,29.248 28.574,29.327 29.189,29.327 C30.246,29.327 31.294,28.832 32.004,27.958 C33.245,26.428 32.999,24.164 31.442,22.922 C31.442,22.922 27.971,20.139 27.971,20.139 C27.971,20.139 27.969,19.620 27.969,19.620 C27.969,19.620 31.875,19.620 31.875,19.620 C34.143,19.620 35.918,21.649 35.918,23.892 C35.918,23.892 35.918,28.568 35.918,28.568 Z" id="path-1" class="cls-2" fill-rule="evenodd"/>
</svg>
