<svg xmlns="http://www.w3.org/2000/svg" xmlns:xlink="http://www.w3.org/1999/xlink" preserveAspectRatio="xMidYMid" width="38" height="35" viewBox="0 0 38 35">
  <defs>
    <style>

      .cls-2 {
        fill: #2a1e30;
      }
    </style>
  </defs>
  <path d="M37.998,17.656 C37.998,16.080 36.692,14.798 35.086,14.798 C33.481,14.798 32.174,16.080 32.174,17.656 C32.174,19.233 33.481,20.516 35.086,20.516 C35.123,20.516 35.158,20.507 35.195,20.505 C35.208,20.657 35.226,20.809 35.226,20.962 C35.226,23.390 33.672,25.606 31.128,27.307 C30.668,25.016 29.881,22.041 28.758,18.372 C28.178,16.480 27.533,14.506 26.839,12.582 C28.415,13.111 29.860,13.784 31.089,14.603 C31.536,14.903 32.144,14.788 32.448,14.348 C32.751,13.909 32.635,13.311 32.187,13.014 C30.443,11.852 28.315,10.963 25.997,10.341 C23.779,4.684 21.163,-0.014 18.594,-0.014 C16.452,-0.014 13.897,3.490 10.977,10.391 C4.520,12.212 0.006,16.258 0.006,20.962 C0.006,23.956 1.852,26.677 4.845,28.737 C3.544,33.970 4.016,34.360 4.478,34.723 C4.645,34.853 4.933,35.009 5.363,35.009 C6.491,35.009 8.457,33.819 11.698,31.713 C13.834,32.253 16.150,32.571 18.594,32.571 C21.626,32.571 24.481,32.107 27.010,31.298 C28.410,32.451 29.379,33.093 30.245,33.093 C30.552,33.093 30.843,33.009 31.086,32.852 C31.612,32.510 31.737,31.322 31.470,29.315 C34.985,27.203 37.182,24.242 37.182,20.962 C37.182,20.550 37.144,20.141 37.074,19.734 C37.639,19.212 37.998,18.477 37.998,17.656 ZM1.962,20.962 C1.962,17.443 5.211,14.368 10.043,12.672 C9.558,13.906 9.063,15.227 8.559,16.639 C7.347,20.036 6.203,23.660 5.350,26.794 C3.233,25.170 1.962,23.154 1.962,20.962 ZM13.940,30.253 C16.369,28.679 19.107,26.974 20.300,26.735 C20.380,26.755 20.464,26.766 20.551,26.766 C21.612,26.766 23.631,28.423 25.261,29.816 C23.216,30.342 20.970,30.650 18.594,30.650 C16.976,30.650 15.417,30.508 13.940,30.253 ZM27.001,28.755 C24.922,26.971 22.777,25.129 20.964,24.875 C20.839,24.817 20.699,24.785 20.551,24.785 C18.891,24.785 16.041,26.568 11.544,29.507 C9.665,30.735 7.215,32.337 5.974,32.890 C6.462,28.422 12.681,8.265 17.228,2.952 C18.078,1.958 18.515,1.907 18.594,1.907 C18.850,1.907 19.372,2.213 20.064,3.070 C24.385,8.422 29.429,26.768 29.728,30.926 C28.995,30.468 27.835,29.471 27.001,28.755 ZM34.131,17.656 C34.131,17.139 34.560,16.719 35.086,16.719 C35.613,16.719 36.041,17.139 36.041,17.656 C36.041,18.173 35.613,18.595 35.086,18.595 C34.560,18.595 34.131,18.173 34.131,17.656 Z" id="path-1" class="cls-2" fill-rule="evenodd"/>
</svg>
