<svg xmlns="http://www.w3.org/2000/svg" xmlns:xlink="http://www.w3.org/1999/xlink" preserveAspectRatio="xMidYMid" width="38" height="36" viewBox="0 0 38 36">
  <defs>
    <style>

      .cls-2 {
        fill: #2a1e30;
      }
    </style>
  </defs>
  <path d="M37.335,15.904 C37.964,15.298 38.186,14.409 37.915,13.584 C37.644,12.758 36.936,12.167 36.009,12.035 C36.009,12.035 29.108,11.426 29.108,11.426 C28.529,11.367 28.022,11.797 27.971,12.367 C27.919,12.937 28.345,13.441 28.922,13.492 C28.922,13.492 35.764,14.093 35.764,14.093 C35.843,14.105 35.896,14.149 35.920,14.224 C35.957,14.336 35.893,14.398 35.872,14.420 C35.872,14.420 28.446,21.577 28.446,21.577 C27.907,22.098 27.661,22.847 27.788,23.580 C27.788,23.580 29.541,33.686 29.541,33.686 C29.546,33.714 29.562,33.802 29.465,33.872 C29.369,33.941 29.289,33.900 29.262,33.886 C29.262,33.886 20.086,29.115 20.086,29.115 C19.417,28.767 18.621,28.767 17.954,29.115 C17.954,29.115 8.777,33.886 8.777,33.886 C8.750,33.900 8.669,33.940 8.574,33.872 C8.477,33.802 8.493,33.714 8.498,33.686 C8.498,33.686 10.250,23.580 10.250,23.580 C10.377,22.847 10.132,22.098 9.592,21.576 C9.592,21.576 2.167,14.420 2.167,14.420 C2.146,14.398 2.081,14.336 2.118,14.224 C2.143,14.149 2.196,14.105 2.273,14.093 C2.273,14.093 12.534,12.619 12.534,12.619 C13.280,12.513 13.925,12.050 14.258,11.381 C14.258,11.381 18.847,2.186 18.847,2.186 C18.860,2.160 18.900,2.080 19.019,2.080 C19.139,2.080 19.179,2.160 19.222,2.241 C19.222,2.241 21.720,6.572 21.720,6.572 C21.143,7.199 20.782,8.023 20.782,8.934 C20.782,10.878 22.381,12.459 24.346,12.459 C26.311,12.459 27.910,10.878 27.910,8.934 C27.910,6.991 26.311,5.410 24.346,5.410 C24.061,5.410 23.788,5.452 23.523,5.514 C23.523,5.514 21.073,1.269 21.073,1.269 C20.684,0.490 19.897,0.006 19.019,0.006 C18.141,0.006 17.355,0.490 16.966,1.269 C16.966,1.269 12.378,10.464 12.378,10.464 C12.350,10.519 12.296,10.559 12.233,10.568 C12.233,10.568 1.971,12.042 1.971,12.042 C1.103,12.167 0.395,12.758 0.124,13.584 C-0.147,14.409 0.075,15.298 0.704,15.904 C0.704,15.904 8.127,23.059 8.127,23.059 C8.173,23.104 8.194,23.168 8.183,23.230 C8.183,23.230 6.430,33.336 6.430,33.336 C6.282,34.191 6.632,35.040 7.342,35.550 C7.743,35.837 8.212,35.984 8.685,35.984 C9.049,35.984 9.415,35.897 9.753,35.721 C9.753,35.721 18.931,30.950 18.931,30.950 C18.986,30.923 19.053,30.923 19.109,30.950 C19.109,30.950 28.285,35.721 28.285,35.721 C29.063,36.126 29.987,36.059 30.697,35.550 C31.407,35.040 31.756,34.191 31.608,33.336 C31.608,33.336 29.855,23.230 29.855,23.230 C29.845,23.168 29.866,23.104 29.910,23.060 C29.910,23.060 37.335,15.904 37.335,15.904 ZM26.148,8.934 C26.148,9.917 25.340,10.716 24.346,10.716 C23.353,10.716 22.544,9.917 22.544,8.934 C22.544,7.952 23.353,7.153 24.346,7.153 C25.340,7.153 26.148,7.952 26.148,8.934 Z" id="path-1" class="cls-2" fill-rule="evenodd"/>
</svg>
