<svg xmlns="http://www.w3.org/2000/svg" xmlns:xlink="http://www.w3.org/1999/xlink" preserveAspectRatio="xMidYMid" width="36" height="30" viewBox="0 0 36 30">
  <defs>
    <style>

      .cls-2 {
        fill: #2a1e30;
      }
    </style>
  </defs>
  <path d="M31.854,19.033 C29.921,19.033 28.307,17.737 27.847,15.997 C27.847,15.997 8.155,15.997 8.155,15.997 C7.695,17.737 6.081,19.033 4.149,19.033 C1.860,19.033 -0.001,17.224 -0.001,14.999 C-0.001,12.776 1.860,10.967 4.149,10.967 C6.081,10.967 7.695,12.262 8.155,14.002 C8.155,14.002 27.847,14.002 27.847,14.002 C28.308,12.262 29.922,10.967 31.854,10.967 C34.142,10.967 36.004,12.776 36.004,14.999 C36.004,17.224 34.142,19.033 31.854,19.033 ZM4.149,12.961 C2.992,12.961 2.051,13.876 2.051,14.999 C2.051,16.124 2.992,17.039 4.149,17.039 C5.305,17.039 6.246,16.124 6.246,14.999 C6.246,13.876 5.305,12.961 4.149,12.961 ZM31.854,12.961 C30.697,12.961 29.756,13.876 29.756,14.999 C29.756,16.124 30.697,17.039 31.854,17.039 C33.010,17.039 33.951,16.124 33.951,14.999 C33.951,13.876 33.010,12.961 31.854,12.961 ZM31.854,8.064 C29.921,8.064 28.307,6.768 27.847,5.027 C27.847,5.027 8.155,5.027 8.155,5.027 C7.695,6.768 6.081,8.064 4.149,8.064 C1.860,8.064 -0.001,6.254 -0.001,4.030 C-0.001,1.807 1.860,-0.003 4.149,-0.003 C6.081,-0.003 7.695,1.293 8.155,3.033 C8.155,3.033 27.847,3.033 27.847,3.033 C28.308,1.293 29.922,-0.003 31.854,-0.003 C34.142,-0.003 36.004,1.807 36.004,4.030 C36.004,6.254 34.142,8.064 31.854,8.064 ZM4.149,1.992 C2.992,1.992 2.051,2.906 2.051,4.030 C2.051,5.155 2.992,6.069 4.149,6.069 C5.305,6.069 6.246,5.155 6.246,4.030 C6.246,2.906 5.305,1.992 4.149,1.992 ZM31.854,1.992 C30.697,1.992 29.756,2.906 29.756,4.030 C29.756,5.155 30.697,6.069 31.854,6.069 C33.010,6.069 33.951,5.155 33.951,4.030 C33.951,2.906 33.010,1.992 31.854,1.992 ZM4.149,21.936 C6.081,21.936 7.695,23.232 8.155,24.972 C8.155,24.972 27.847,24.972 27.847,24.972 C28.308,23.232 29.922,21.936 31.854,21.936 C34.142,21.936 36.004,23.746 36.004,25.969 C36.004,28.193 34.142,30.003 31.854,30.003 C29.921,30.003 28.307,28.707 27.847,26.966 C27.847,26.966 8.155,26.966 8.155,26.966 C7.695,28.707 6.081,30.003 4.149,30.003 C1.860,30.003 -0.001,28.193 -0.001,25.969 C-0.001,23.746 1.860,21.936 4.149,21.936 ZM31.854,28.008 C33.010,28.008 33.951,27.094 33.951,25.969 C33.951,24.845 33.010,23.931 31.854,23.931 C30.697,23.931 29.756,24.845 29.756,25.969 C29.756,27.094 30.697,28.008 31.854,28.008 ZM4.149,28.008 C5.305,28.008 6.246,27.094 6.246,25.969 C6.246,24.845 5.305,23.931 4.149,23.931 C2.992,23.931 2.051,24.845 2.051,25.969 C2.051,27.094 2.992,28.008 4.149,28.008 Z" id="path-1" class="cls-2" fill-rule="evenodd"/>
</svg>
