<svg xmlns="http://www.w3.org/2000/svg" xmlns:xlink="http://www.w3.org/1999/xlink" preserveAspectRatio="xMidYMid" width="36" height="37" viewBox="0 0 36 37">
  <defs>
    <style>

      .cls-2 {
        fill: #2a1e30;
      }
    </style>
  </defs>
  <path d="M34.308,17.861 C34.308,17.861 17.804,34.376 17.804,34.376 C16.748,35.433 15.343,36.016 13.849,36.016 C12.355,36.016 10.951,35.433 9.894,34.376 C9.894,34.376 1.603,26.080 1.603,26.080 C-0.578,23.897 -0.578,20.348 1.603,18.165 C1.603,18.165 18.107,1.650 18.107,1.650 C19.163,0.593 20.568,0.010 22.062,0.010 C23.556,0.010 24.960,0.593 26.017,1.650 C26.017,1.650 34.308,9.946 34.308,9.946 C36.489,12.129 36.489,15.678 34.308,17.861 ZM32.791,11.464 C32.791,11.464 24.500,3.168 24.500,3.168 C23.849,2.517 22.983,2.157 22.062,2.157 C21.141,2.157 20.276,2.517 19.624,3.168 C19.624,3.168 3.120,19.683 3.120,19.683 C1.776,21.028 1.776,23.217 3.120,24.562 C3.120,24.562 11.411,32.858 11.411,32.858 C12.713,34.160 14.984,34.160 16.287,32.858 C16.287,32.858 32.791,16.343 32.791,16.343 C34.135,14.998 34.135,12.809 32.791,11.464 ZM11.268,28.686 C10.066,28.686 8.942,28.152 8.184,27.221 C6.799,25.521 7.054,23.009 8.752,21.623 C9.460,21.046 10.352,20.728 11.263,20.728 C12.465,20.728 13.589,21.262 14.348,22.193 C15.733,23.893 15.478,26.404 13.779,27.791 C13.071,28.368 12.179,28.686 11.268,28.686 ZM12.685,23.549 C12.336,23.120 11.818,22.875 11.263,22.875 C10.838,22.875 10.439,23.018 10.108,23.287 C9.326,23.926 9.209,25.082 9.846,25.865 C10.465,26.624 11.662,26.748 12.423,26.127 C13.205,25.489 13.323,24.332 12.685,23.549 Z" id="path-1" class="cls-2" fill-rule="evenodd"/>
</svg>
