<svg xmlns="http://www.w3.org/2000/svg" xmlns:xlink="http://www.w3.org/1999/xlink" preserveAspectRatio="xMidYMid" width="38" height="37" viewBox="0 0 38 37">
  <defs>
    <style>

      .cls-2 {
        fill: #2a1e30;
      }
    </style>
  </defs>
  <path d="M33.878,36.903 C33.878,36.903 9.956,36.903 9.956,36.903 C7.710,36.903 5.882,35.093 5.882,32.869 C5.882,32.869 5.882,30.102 5.882,30.102 C4.632,29.719 3.958,28.650 3.958,27.620 C3.958,27.098 3.529,26.673 3.002,26.673 C3.002,26.673 2.693,26.673 2.693,26.673 C1.213,26.673 0.009,25.481 0.009,24.016 C0.009,22.551 1.213,21.359 2.693,21.359 C2.693,21.359 5.957,21.359 5.957,21.359 C6.528,16.622 10.604,12.935 15.539,12.935 C15.539,12.935 28.329,12.935 28.329,12.935 C33.653,12.935 37.985,17.224 37.985,22.497 C37.985,22.497 37.985,32.835 37.985,32.835 C37.985,35.079 36.143,36.903 33.878,36.903 ZM5.882,23.363 C5.882,23.363 2.693,23.363 2.693,23.363 C2.329,23.363 2.033,23.656 2.033,24.016 C2.033,24.376 2.329,24.669 2.693,24.669 C2.693,24.669 3.002,24.669 3.002,24.669 C4.394,24.669 5.556,25.623 5.882,26.902 C5.882,26.902 5.882,23.363 5.882,23.363 ZM35.961,22.497 C35.961,18.329 32.537,14.939 28.329,14.939 C28.329,14.939 15.539,14.939 15.539,14.939 C11.330,14.939 7.906,18.329 7.906,22.497 C7.906,22.497 7.906,30.686 7.906,30.686 C7.906,30.686 35.961,30.686 35.961,30.686 C35.961,30.686 35.961,22.497 35.961,22.497 ZM35.961,32.690 C35.961,32.690 7.906,32.690 7.906,32.690 C7.906,32.690 7.906,32.869 7.906,32.869 C7.906,33.988 8.826,34.898 9.956,34.898 C9.956,34.898 33.878,34.898 33.878,34.898 C35.027,34.898 35.961,33.973 35.961,32.835 C35.961,32.835 35.961,32.690 35.961,32.690 ZM27.705,9.312 C28.097,9.694 28.118,10.325 27.741,10.722 C27.540,10.933 27.270,11.042 27.000,11.042 C26.764,11.042 26.528,10.958 26.337,10.789 C26.241,10.704 24.006,8.653 26.139,5.025 C27.393,2.891 26.435,1.857 26.321,1.746 C25.929,1.364 25.909,0.733 26.285,0.337 C26.663,-0.059 27.281,-0.093 27.689,0.270 C27.786,0.355 30.020,2.405 27.888,6.033 C26.633,8.168 27.592,9.202 27.705,9.312 ZM24.013,9.312 C24.404,9.694 24.425,10.325 24.048,10.722 C23.848,10.933 23.577,11.042 23.307,11.042 C23.071,11.042 22.835,10.958 22.644,10.789 C22.548,10.704 20.313,8.653 22.446,5.025 C23.700,2.891 22.742,1.857 22.628,1.746 C22.237,1.364 22.216,0.733 22.592,0.337 C22.970,-0.059 23.587,-0.093 23.996,0.270 C24.093,0.355 26.327,2.405 24.195,6.033 C22.940,8.168 23.899,9.202 24.013,9.312 ZM20.621,9.312 C21.013,9.694 21.034,10.325 20.657,10.722 C20.456,10.933 20.186,11.042 19.916,11.042 C19.680,11.042 19.444,10.958 19.253,10.789 C19.157,10.704 16.921,8.653 19.054,5.025 C20.309,2.891 19.350,1.857 19.237,1.746 C18.845,1.364 18.824,0.733 19.201,0.337 C19.578,-0.059 20.197,-0.093 20.605,0.270 C20.701,0.355 22.936,2.405 20.804,6.033 C19.548,8.168 20.507,9.202 20.621,9.312 ZM16.928,9.312 C17.320,9.694 17.341,10.325 16.964,10.722 C16.763,10.933 16.493,11.042 16.223,11.042 C15.987,11.042 15.751,10.958 15.560,10.789 C15.464,10.704 13.228,8.653 15.361,5.025 C16.616,2.891 15.657,1.857 15.544,1.746 C15.152,1.364 15.132,0.733 15.508,0.337 C15.886,-0.059 16.503,-0.093 16.912,0.270 C17.008,0.355 19.243,2.405 17.111,6.033 C15.855,8.168 16.815,9.202 16.928,9.312 Z" id="path-1" class="cls-2" fill-rule="evenodd"/>
</svg>
