<svg xmlns="http://www.w3.org/2000/svg" xmlns:xlink="http://www.w3.org/1999/xlink" preserveAspectRatio="xMidYMid" width="17" height="38" viewBox="0 0 17 38">
  <defs>
    <style>

      .cls-2 {
        fill: #2a1e30;
      }
    </style>
  </defs>
  <path d="M9.885,38.003 C5.956,38.003 2.760,34.791 2.760,30.841 C2.760,28.550 3.831,26.438 5.651,25.089 C5.651,25.089 5.651,24.726 5.651,24.726 C5.651,24.726 0.987,24.726 0.987,24.726 C0.439,24.726 -0.005,24.280 -0.005,23.728 C-0.005,23.177 0.439,22.731 0.987,22.731 C0.987,22.731 5.651,22.731 5.651,22.731 C5.651,22.731 5.651,19.478 5.651,19.478 C5.651,19.478 0.987,19.478 0.987,19.478 C0.439,19.478 -0.005,19.032 -0.005,18.481 C-0.005,17.930 0.439,17.484 0.987,17.484 C0.987,17.484 5.651,17.484 5.651,17.484 C5.651,17.484 5.651,14.232 5.651,14.232 C5.651,14.232 0.987,14.232 0.987,14.232 C0.439,14.232 -0.005,13.786 -0.005,13.235 C-0.005,12.684 0.439,12.238 0.987,12.238 C0.987,12.238 5.651,12.238 5.651,12.238 C5.651,12.238 5.651,8.986 5.651,8.986 C5.651,8.986 0.987,8.986 0.987,8.986 C0.439,8.986 -0.005,8.540 -0.005,7.989 C-0.005,7.438 0.439,6.992 0.987,6.992 C0.987,6.992 5.651,6.992 5.651,6.992 C5.651,6.992 5.651,4.332 5.651,4.332 C5.651,1.941 7.586,-0.003 9.965,-0.003 C12.343,-0.003 14.278,1.941 14.278,4.332 C14.278,4.332 14.278,25.204 14.278,25.204 C15.998,26.558 17.011,28.627 17.011,30.841 C17.011,34.791 13.814,38.003 9.885,38.003 ZM12.735,26.541 C12.460,26.356 12.294,26.045 12.294,25.712 C12.294,25.712 12.294,4.332 12.294,4.332 C12.294,3.041 11.249,1.991 9.965,1.991 C8.680,1.991 7.635,3.041 7.635,4.332 C7.635,4.332 7.635,25.615 7.635,25.615 C7.635,25.959 7.458,26.279 7.169,26.461 C5.650,27.415 4.744,29.053 4.744,30.841 C4.744,33.690 7.050,36.009 9.885,36.009 C12.720,36.009 15.027,33.690 15.027,30.841 C15.027,29.112 14.170,27.504 12.735,26.541 ZM9.885,34.029 C8.136,34.029 6.713,32.599 6.713,30.841 C6.713,29.436 7.629,28.254 8.887,27.831 C8.771,16.986 8.800,16.931 9.182,16.545 C9.569,16.155 10.198,16.153 10.585,16.542 C10.834,16.791 10.924,17.139 10.855,17.459 C10.797,18.232 10.832,23.970 10.872,27.827 C12.136,28.247 13.057,29.432 13.057,30.841 C13.057,32.599 11.634,34.029 9.885,34.029 ZM9.885,29.648 C9.230,29.648 8.697,30.183 8.697,30.841 C8.697,31.499 9.230,32.035 9.885,32.035 C10.540,32.035 11.073,31.499 11.073,30.841 C11.073,30.183 10.540,29.648 9.885,29.648 Z" id="path-1" class="cls-2" fill-rule="evenodd"/>
</svg>
