<svg xmlns="http://www.w3.org/2000/svg" xmlns:xlink="http://www.w3.org/1999/xlink" preserveAspectRatio="xMidYMid" width="36" height="36" viewBox="0 0 36 36">
  <defs>
    <style>

      .cls-2 {
        fill: #2a1e30;
      }
    </style>
  </defs>
  <path d="M35.994,32.957 C35.994,34.642 34.615,36.013 32.920,36.013 C32.920,36.013 3.084,36.013 3.084,36.013 C1.389,36.013 0.011,34.642 0.011,32.957 C0.011,32.957 0.011,17.292 0.011,17.292 C0.011,17.281 0.016,17.273 0.017,17.263 C0.013,17.131 0.018,17.006 0.043,16.912 C0.043,16.912 1.777,10.427 1.777,10.427 C2.080,9.297 3.316,8.507 4.783,8.507 C4.783,8.507 6.451,8.507 6.451,8.507 C6.869,6.168 8.521,4.180 10.834,3.375 C11.145,3.263 11.494,3.313 11.765,3.505 C12.036,3.696 12.197,4.005 12.197,4.336 C12.197,4.336 12.197,6.893 12.197,6.893 C12.197,6.893 13.904,6.893 13.904,6.893 C13.904,6.893 13.904,4.336 13.904,4.336 C13.904,4.005 14.065,3.696 14.336,3.505 C14.607,3.313 14.954,3.263 15.267,3.375 C17.580,4.180 19.231,6.168 19.649,8.507 C19.649,8.507 21.527,8.507 21.527,8.507 C21.527,8.507 21.527,6.645 21.527,6.645 C21.527,6.103 21.668,5.584 21.934,5.128 C21.669,4.629 21.527,4.074 21.527,3.508 C21.527,1.570 23.117,-0.007 25.071,-0.007 C27.026,-0.007 28.616,1.570 28.616,3.508 C28.616,4.074 28.474,4.629 28.209,5.128 C28.475,5.584 28.616,6.103 28.616,6.645 C28.616,6.645 28.616,8.507 28.616,8.507 C28.616,8.507 31.222,8.507 31.222,8.507 C32.689,8.507 33.924,9.297 34.227,10.427 C34.227,10.427 35.961,16.912 35.961,16.912 C35.986,17.006 35.992,17.131 35.988,17.263 C35.988,17.273 35.994,17.281 35.994,17.292 C35.994,17.292 35.994,32.957 35.994,32.957 ZM3.084,33.975 C3.084,33.975 32.920,33.975 32.920,33.975 C33.485,33.975 33.945,33.519 33.945,32.957 C33.945,32.957 33.945,18.694 33.945,18.694 C33.945,18.694 31.705,18.694 31.705,18.694 C31.705,18.694 31.705,20.732 31.705,20.732 C31.705,21.295 31.246,21.751 30.681,21.751 C30.681,21.751 25.088,21.751 25.088,21.751 C24.523,21.751 24.064,21.295 24.064,20.732 C24.064,20.732 24.064,18.694 24.064,18.694 C24.064,18.694 23.843,18.694 23.843,18.694 C23.843,18.694 11.791,18.694 11.791,18.694 C11.791,18.694 11.791,20.732 11.791,20.732 C11.791,21.295 11.332,21.751 10.767,21.751 C10.767,21.751 5.174,21.751 5.174,21.751 C4.609,21.751 4.150,21.295 4.150,20.732 C4.150,20.732 4.150,18.694 4.150,18.694 C4.150,18.694 2.060,18.694 2.060,18.694 C2.060,18.694 2.060,32.957 2.060,32.957 C2.060,33.519 2.519,33.975 3.084,33.975 ZM23.843,13.271 C23.843,13.271 23.843,12.252 23.843,12.252 C23.843,12.252 23.576,12.252 23.576,12.252 C23.576,12.252 23.576,13.271 23.576,13.271 C23.576,13.271 23.843,13.271 23.843,13.271 ZM9.742,18.694 C9.742,18.694 6.199,18.694 6.199,18.694 C6.199,18.694 6.199,19.713 6.199,19.713 C6.199,19.713 9.742,19.713 9.742,19.713 C9.742,19.713 9.742,18.694 9.742,18.694 ZM29.656,18.694 C29.656,18.694 26.299,18.694 26.299,18.694 C26.299,18.694 26.113,18.694 26.113,18.694 C26.113,18.694 26.113,19.713 26.113,19.713 C26.113,19.713 29.656,19.713 29.656,19.713 C29.656,19.713 29.656,18.694 29.656,18.694 ZM6.399,10.545 C6.399,10.545 4.783,10.545 4.783,10.545 C4.180,10.545 3.803,11.040 3.761,11.197 C3.761,11.197 2.457,16.273 2.457,16.273 C2.457,16.273 9.459,16.273 9.459,16.273 C9.459,16.273 9.459,15.298 9.459,15.298 C7.769,14.236 6.657,12.501 6.399,10.545 ZM15.953,6.047 C15.953,6.047 15.953,7.912 15.953,7.912 C15.953,8.475 15.494,8.931 14.929,8.931 C14.929,8.931 11.172,8.931 11.172,8.931 C10.606,8.931 10.148,8.475 10.148,7.912 C10.148,7.912 10.148,6.046 10.148,6.046 C9.059,6.909 8.389,8.233 8.389,9.667 C8.389,11.418 9.370,13.001 10.948,13.798 C11.292,13.971 11.508,14.322 11.508,14.706 C11.508,14.706 11.508,16.273 11.508,16.273 C11.508,16.273 14.593,16.273 14.593,16.273 C14.593,16.273 14.593,14.706 14.593,14.706 C14.593,14.322 14.809,13.971 15.153,13.798 C16.731,13.001 17.711,11.419 17.711,9.667 C17.711,8.233 17.042,6.909 15.953,6.047 ZM23.125,15.308 C23.125,15.308 22.552,15.308 22.552,15.308 C21.986,15.308 21.527,14.852 21.527,14.289 C21.527,14.289 21.527,10.545 21.527,10.545 C21.527,10.545 19.701,10.545 19.701,10.545 C19.443,12.501 18.331,14.236 16.642,15.298 C16.642,15.298 16.642,16.273 16.642,16.273 C16.642,16.273 23.125,16.273 23.125,16.273 C23.125,16.273 23.125,15.308 23.125,15.308 ZM26.567,6.645 C26.567,6.365 26.451,6.103 26.240,5.906 C25.836,5.527 25.810,4.896 26.180,4.485 C26.357,4.289 26.567,3.961 26.567,3.508 C26.567,2.693 25.896,2.031 25.071,2.031 C24.247,2.031 23.576,2.693 23.576,3.508 C23.576,3.961 23.786,4.289 23.962,4.484 C24.334,4.896 24.307,5.527 23.902,5.906 C23.692,6.103 23.576,6.365 23.576,6.645 C23.576,6.645 23.576,10.214 23.576,10.214 C23.576,10.214 26.567,10.214 26.567,10.214 C26.567,10.214 26.567,6.645 26.567,6.645 ZM26.567,12.252 C26.567,12.252 26.299,12.252 26.299,12.252 C26.299,12.252 26.299,13.271 26.299,13.271 C26.299,13.271 26.567,13.271 26.567,13.271 C26.567,13.271 26.567,12.252 26.567,12.252 ZM32.243,11.196 C32.202,11.040 31.825,10.545 31.222,10.545 C31.222,10.545 28.616,10.545 28.616,10.545 C28.616,10.545 28.616,14.289 28.616,14.289 C28.616,14.852 28.157,15.308 27.591,15.308 C27.591,15.308 27.223,15.308 27.223,15.308 C27.223,15.308 27.223,16.273 27.223,16.273 C27.223,16.273 33.548,16.273 33.548,16.273 C33.548,16.273 32.243,11.196 32.243,11.196 ZM12.203,12.284 C11.821,11.819 11.891,11.133 12.359,10.754 C12.827,10.374 13.517,10.444 13.898,10.909 C14.280,11.375 14.210,12.060 13.742,12.440 C13.274,12.820 12.584,12.750 12.203,12.284 Z" id="path-1" class="cls-2" fill-rule="evenodd"/>
</svg>
