<svg xmlns="http://www.w3.org/2000/svg" xmlns:xlink="http://www.w3.org/1999/xlink" preserveAspectRatio="xMidYMid" width="24" height="37" viewBox="0 0 24 37">
  <defs>
    <style>

      .cls-2 {
        fill: #2a1e30;
      }
    </style>
  </defs>
  <path d="M21.844,37.003 C21.844,37.003 12.140,37.003 12.140,37.003 C12.140,37.003 11.855,37.003 11.855,37.003 C11.855,37.003 2.151,37.003 2.151,37.003 C0.957,37.003 -0.013,36.024 -0.013,34.819 C-0.013,34.819 -0.013,32.927 -0.013,32.927 C-0.013,32.439 0.152,31.960 0.452,31.576 C0.452,31.576 7.974,21.953 7.974,21.953 C8.004,21.914 8.017,21.867 8.013,21.819 C8.013,21.819 7.712,18.685 7.712,18.685 C7.704,18.601 7.641,18.532 7.559,18.517 C7.559,18.517 6.961,18.412 6.961,18.412 C5.924,18.226 5.173,17.321 5.173,16.261 C5.173,15.056 6.143,14.077 7.337,14.077 C7.337,14.077 11.855,14.077 11.855,14.077 C11.855,14.077 12.140,14.077 12.140,14.077 C12.140,14.077 16.659,14.077 16.659,14.077 C17.852,14.077 18.823,15.056 18.823,16.261 C18.823,17.321 18.071,18.226 17.035,18.411 C17.035,18.411 16.436,18.518 16.436,18.518 C16.354,18.532 16.291,18.601 16.283,18.685 C16.283,18.685 15.983,21.820 15.983,21.820 C15.978,21.868 15.992,21.915 16.021,21.952 C16.021,21.952 23.544,31.576 23.544,31.576 C23.844,31.961 24.009,32.440 24.009,32.927 C24.009,32.927 24.009,34.819 24.009,34.819 C24.009,36.024 23.038,37.003 21.844,37.003 ZM14.469,23.189 C14.121,22.746 13.960,22.190 14.014,21.626 C14.014,21.626 14.314,18.492 14.314,18.492 C14.408,17.519 15.139,16.722 16.092,16.552 C16.092,16.552 16.692,16.445 16.692,16.445 C16.780,16.430 16.845,16.353 16.845,16.261 C16.845,16.158 16.761,16.073 16.659,16.073 C16.659,16.073 12.140,16.073 12.140,16.073 C12.140,16.073 11.855,16.073 11.855,16.073 C11.855,16.073 7.337,16.073 7.337,16.073 C7.234,16.073 7.151,16.158 7.151,16.261 C7.151,16.353 7.215,16.430 7.305,16.446 C7.305,16.446 7.903,16.551 7.903,16.551 C8.857,16.722 9.588,17.520 9.681,18.493 C9.681,18.493 9.982,21.627 9.982,21.627 C10.036,22.191 9.874,22.747 9.526,23.190 C9.526,23.190 5.498,28.342 5.498,28.342 C11.774,28.098 15.065,26.681 16.515,25.807 C16.515,25.807 14.469,23.189 14.469,23.189 ZM17.134,26.668 C17.134,26.668 17.168,26.642 17.168,26.642 C17.168,26.642 17.168,26.642 17.168,26.642 C17.168,26.642 17.134,26.668 17.134,26.668 ZM22.030,32.927 C22.030,32.886 22.016,32.844 21.990,32.811 C21.990,32.811 17.748,27.384 17.748,27.384 C15.907,28.554 11.821,30.326 3.912,30.372 C3.912,30.372 2.005,32.812 2.005,32.812 C1.979,32.846 1.965,32.886 1.965,32.927 C1.965,32.927 1.965,34.819 1.965,34.819 C1.965,34.922 2.048,35.007 2.151,35.007 C2.151,35.007 11.855,35.007 11.855,35.007 C11.855,35.007 12.140,35.007 12.140,35.007 C12.140,35.007 21.844,35.007 21.844,35.007 C21.947,35.007 22.030,34.922 22.030,34.819 C22.030,34.819 22.030,32.927 22.030,32.927 ZM17.456,10.583 C17.456,11.938 16.364,13.040 15.021,13.040 C13.678,13.040 12.586,11.938 12.586,10.583 C12.586,9.229 13.678,8.126 15.021,8.126 C16.364,8.126 17.456,9.229 17.456,10.583 ZM14.564,10.583 C14.564,10.838 14.769,11.044 15.021,11.044 C15.273,11.044 15.478,10.838 15.478,10.583 C15.478,10.329 15.273,10.122 15.021,10.122 C14.769,10.122 14.564,10.329 14.564,10.583 ZM14.484,7.451 C12.447,7.451 10.790,5.780 10.790,3.725 C10.790,1.670 12.447,-0.001 14.484,-0.001 C16.521,-0.001 18.177,1.670 18.177,3.725 C18.177,5.780 16.521,7.451 14.484,7.451 ZM14.484,1.995 C13.538,1.995 12.769,2.770 12.769,3.725 C12.769,4.679 13.538,5.455 14.484,5.455 C15.430,5.455 16.199,4.679 16.199,3.725 C16.199,2.770 15.430,1.995 14.484,1.995 ZM11.760,9.308 C11.760,10.955 10.433,12.295 8.801,12.295 C7.169,12.295 5.841,10.955 5.841,9.308 C5.841,7.662 7.169,6.322 8.801,6.322 C10.433,6.322 11.760,7.662 11.760,9.308 ZM8.801,8.318 C8.260,8.318 7.819,8.762 7.819,9.308 C7.819,9.854 8.260,10.299 8.801,10.299 C9.342,10.299 9.782,9.854 9.782,9.308 C9.782,8.762 9.342,8.318 8.801,8.318 Z" id="path-1" class="cls-2" fill-rule="evenodd"/>
</svg>
