<svg xmlns="http://www.w3.org/2000/svg" xmlns:xlink="http://www.w3.org/1999/xlink" preserveAspectRatio="xMidYMid" width="38" height="38" viewBox="0 0 38 38">
  <defs>
    <style>

      .cls-2 {
        fill: #2a1e30;
      }
    </style>
  </defs>
  <path d="M19.002,38.008 C8.522,38.008 -0.004,29.482 -0.004,19.002 C-0.004,8.522 8.522,-0.004 19.002,-0.004 C29.482,-0.004 38.008,8.522 38.008,19.002 C38.008,29.482 29.482,38.008 19.002,38.008 ZM19.002,1.933 C9.591,1.933 1.933,9.590 1.933,19.002 C1.933,28.414 9.591,36.071 19.002,36.071 C28.414,36.071 36.071,28.414 36.071,19.002 C36.071,9.590 28.414,1.933 19.002,1.933 ZM33.617,19.971 C33.082,19.971 32.648,19.538 32.648,19.002 C32.648,11.478 26.527,5.357 19.002,5.357 C18.467,5.357 18.034,4.924 18.034,4.388 C18.034,3.853 18.467,3.420 19.002,3.420 C27.594,3.420 34.585,10.410 34.585,19.002 C34.585,19.538 34.151,19.971 33.617,19.971 ZM27.173,19.002 C27.173,23.508 23.507,27.173 19.002,27.173 C14.497,27.173 10.832,23.508 10.832,19.002 C10.832,14.497 14.497,10.832 19.002,10.832 C23.507,10.832 27.173,14.497 27.173,19.002 ZM12.769,19.002 C12.769,22.439 15.565,25.236 19.002,25.236 C22.440,25.236 25.236,22.439 25.236,19.002 C25.236,15.565 22.440,12.769 19.002,12.769 C15.565,12.769 12.769,15.565 12.769,19.002 ZM22.030,19.002 C22.030,20.671 20.672,22.030 19.002,22.030 C17.333,22.030 15.975,20.671 15.975,19.002 C15.975,17.333 17.333,15.975 19.002,15.975 C20.672,15.975 22.030,17.333 22.030,19.002 ZM17.912,19.002 C17.912,19.604 18.401,20.093 19.002,20.093 C19.604,20.093 20.093,19.604 20.093,19.002 C20.093,18.401 19.604,17.912 19.002,17.912 C18.401,17.912 17.912,18.401 17.912,19.002 ZM19.002,9.092 C18.467,9.092 18.034,8.658 18.034,8.123 C18.034,7.588 18.467,7.155 19.002,7.155 C25.535,7.155 30.850,12.470 30.850,19.002 C30.850,19.538 30.416,19.971 29.881,19.971 C29.346,19.971 28.913,19.538 28.913,19.002 C28.913,13.538 24.467,9.092 19.002,9.092 Z" id="path-1" class="cls-2" fill-rule="evenodd"/>
</svg>
