<svg xmlns="http://www.w3.org/2000/svg" xmlns:xlink="http://www.w3.org/1999/xlink" preserveAspectRatio="xMidYMid" width="38" height="38" viewBox="0 0 38 38">
  <defs>
    <style>

      .cls-2 {
        fill: #2a1e30;
      }
    </style>
  </defs>
  <path d="M18.946,-0.004 C8.448,-0.004 -0.003,8.522 -0.003,19.002 C-0.003,20.314 0.475,21.594 0.475,22.831 C0.475,22.834 0.475,22.836 0.475,22.838 C0.475,22.843 0.390,22.846 0.391,22.851 C2.178,31.492 9.814,38.008 18.991,38.008 C29.488,38.008 38.006,29.482 38.006,19.002 C38.006,8.522 29.443,-0.004 18.946,-0.004 ZM35.994,18.034 C35.994,18.034 28.283,18.034 28.283,18.034 C28.283,18.034 35.834,16.470 35.834,16.470 C35.911,16.985 35.965,17.506 35.994,18.034 ZM35.439,14.573 C35.439,14.573 21.781,17.401 21.781,17.401 C21.781,17.401 31.617,7.582 31.617,7.582 C33.401,9.553 34.727,11.935 35.439,14.573 ZM30.238,6.220 C30.238,6.220 24.817,11.632 24.817,11.632 C24.817,11.632 29.019,5.241 29.019,5.241 C29.441,5.549 29.847,5.875 30.238,6.220 ZM19.877,1.980 C22.600,2.128 25.155,2.904 27.395,4.182 C27.395,4.182 19.877,15.615 19.877,15.615 C19.877,15.615 19.877,1.980 19.877,1.980 ZM14.401,2.565 C14.401,2.565 17.162,15.854 17.162,15.854 C17.162,15.854 7.579,6.287 7.579,6.287 C9.512,4.563 11.834,3.273 14.401,2.565 ZM6.207,7.657 C6.207,7.657 11.846,13.286 11.846,13.286 C11.846,13.286 5.182,8.919 5.182,8.919 C5.504,8.481 5.846,8.061 6.207,7.657 ZM4.119,10.538 C4.119,10.538 15.555,18.034 15.555,18.034 C15.555,18.034 1.897,18.034 1.897,18.034 C2.051,15.317 2.835,12.771 4.119,10.538 ZM1.897,19.971 C1.897,19.971 9.368,19.971 9.368,19.971 C9.368,19.971 2.050,21.486 2.050,21.486 C1.977,20.987 1.926,20.482 1.897,19.971 ZM2.440,23.384 C2.440,23.384 15.819,20.614 15.819,20.614 C15.819,20.614 6.142,30.275 6.142,30.275 C4.413,28.321 3.132,25.975 2.440,23.384 ZM7.507,31.652 C7.507,31.652 12.818,26.349 12.818,26.349 C12.818,26.349 8.690,32.627 8.690,32.627 C8.281,32.319 7.886,31.994 7.507,31.652 ZM17.937,36.020 C15.162,35.857 12.568,35.037 10.302,33.704 C10.302,33.704 17.937,22.095 17.937,22.095 C17.937,22.095 17.937,36.020 17.937,36.020 ZM17.937,10.046 C17.937,10.046 16.298,2.159 16.298,2.159 C16.837,2.075 17.383,2.017 17.937,1.984 C17.937,1.984 17.937,10.046 17.937,10.046 ZM18.946,19.862 C18.432,19.862 18.015,19.446 18.015,18.933 C18.015,18.420 18.432,18.004 18.946,18.004 C19.460,18.004 19.877,18.420 19.877,18.933 C19.877,19.446 19.460,19.862 18.946,19.862 ZM19.877,36.024 C19.877,36.024 19.877,28.924 19.877,28.924 C19.877,28.924 21.323,35.886 21.323,35.886 C20.847,35.953 20.365,35.998 19.877,36.024 ZM23.226,35.508 C23.226,35.508 20.379,21.805 20.379,21.805 C20.379,21.805 30.311,31.719 30.311,31.719 C28.312,33.502 25.897,34.817 23.226,35.508 ZM31.682,30.350 C31.682,30.350 26.589,25.265 26.589,25.265 C26.589,25.265 32.614,29.214 32.614,29.214 C32.319,29.606 32.009,29.985 31.682,30.350 ZM33.690,27.602 C33.690,27.602 22.046,19.971 22.046,19.971 C22.046,19.971 35.994,19.971 35.994,19.971 C35.837,22.743 35.021,25.337 33.690,27.602 Z" id="path-1" class="cls-2" fill-rule="evenodd"/>
</svg>
