<svg xmlns="http://www.w3.org/2000/svg" xmlns:xlink="http://www.w3.org/1999/xlink" preserveAspectRatio="xMidYMid" width="38" height="35" viewBox="0 0 38 35">
  <defs>
    <style>

      .cls-2 {
        fill: #2a1e30;
      }
    </style>
  </defs>
  <path d="M34.016,26.167 C34.016,26.167 33.858,26.163 33.858,26.163 C33.391,26.139 32.958,26.003 32.560,25.793 C30.684,28.891 27.799,31.292 24.361,32.537 C24.325,32.554 24.288,32.564 24.250,32.577 C23.425,32.869 22.572,33.093 21.692,33.245 C21.814,33.400 21.904,33.582 21.917,33.793 C21.950,34.320 21.569,34.783 21.048,34.848 C20.228,34.952 19.535,35.000 18.868,35.000 C18.201,35.000 17.508,34.952 16.688,34.848 C16.167,34.783 15.786,34.320 15.819,33.793 C15.833,33.564 15.933,33.366 16.072,33.206 C15.322,33.064 14.593,32.864 13.884,32.619 C13.727,32.600 13.586,32.547 13.461,32.463 C10.084,31.189 7.256,28.795 5.418,25.724 C4.993,25.973 4.525,26.137 4.015,26.163 C4.015,26.163 3.857,26.166 3.857,26.166 C1.834,26.166 0.139,24.161 -0.003,21.600 C-0.069,20.392 0.219,19.225 0.808,18.317 C1.005,18.012 1.241,17.758 1.492,17.531 C1.491,17.521 1.485,17.511 1.485,17.500 C1.485,7.851 9.283,0.001 18.868,0.001 C28.428,0.001 36.206,7.810 36.247,17.424 C36.551,17.674 36.835,17.960 37.066,18.317 C37.655,19.225 37.943,20.392 37.876,21.601 C37.734,24.161 36.039,26.167 34.016,26.167 ZM14.988,30.887 C16.262,31.276 17.611,31.489 19.010,31.489 C20.376,31.489 21.694,31.282 22.941,30.911 C22.941,30.911 22.941,27.637 22.941,27.637 C22.941,27.637 14.988,27.637 14.988,27.637 C14.988,27.637 14.988,30.887 14.988,30.887 ZM13.000,30.093 C13.000,30.093 13.000,26.637 13.000,26.637 C13.000,26.083 13.445,25.636 13.994,25.636 C13.994,25.636 23.935,25.636 23.935,25.636 C24.484,25.636 24.929,26.083 24.929,26.637 C24.929,26.637 24.929,30.137 24.929,30.137 C29.348,28.029 32.483,23.634 32.848,18.630 C32.848,18.630 5.172,18.630 5.172,18.630 C5.535,23.634 8.629,27.968 13.000,30.093 ZM2.494,19.330 C2.125,19.900 1.938,20.691 1.983,21.499 C2.074,23.146 3.026,24.252 3.857,24.252 C3.857,24.252 3.909,24.250 3.909,24.250 C4.116,24.240 4.320,24.144 4.514,24.000 C3.784,22.356 3.332,20.566 3.194,18.687 C2.855,18.848 2.621,19.135 2.494,19.330 ZM18.868,2.003 C17.520,2.003 16.217,2.194 14.969,2.523 C14.972,2.556 14.988,2.584 14.988,2.618 C14.988,2.618 14.988,10.047 14.988,10.047 C14.988,10.047 18.798,12.236 18.798,12.236 C18.798,12.236 22.941,10.027 22.941,10.027 C22.941,10.027 22.941,2.618 22.941,2.618 C22.941,2.600 22.950,2.586 22.951,2.569 C21.649,2.207 20.283,2.003 18.868,2.003 ZM24.929,3.268 C24.929,3.268 24.929,10.629 24.929,10.629 C24.929,10.999 24.726,11.339 24.401,11.513 C24.401,11.513 19.247,14.263 19.247,14.263 C19.101,14.341 18.941,14.380 18.781,14.380 C18.611,14.380 18.441,14.336 18.288,14.248 C18.288,14.248 13.501,11.498 13.501,11.498 C13.191,11.320 13.000,10.988 13.000,10.629 C13.000,10.629 13.000,3.178 13.000,3.178 C7.706,5.385 3.889,10.624 3.505,16.629 C3.505,16.629 34.231,16.629 34.231,16.629 C33.852,10.624 30.121,5.517 24.929,3.268 ZM35.379,19.362 C35.270,19.193 35.075,18.963 34.820,18.805 C34.669,20.671 34.204,22.447 33.469,24.078 C33.630,24.176 33.796,24.246 33.964,24.254 C33.964,24.254 34.016,24.260 34.016,24.260 C34.848,24.260 35.799,23.161 35.890,21.515 C35.935,20.707 35.749,19.932 35.379,19.362 ZM21.804,23.027 C21.184,23.027 20.681,22.521 20.681,21.896 C20.681,21.272 21.184,20.765 21.804,20.765 C22.425,20.765 22.928,21.272 22.928,21.896 C22.928,22.521 22.425,23.027 21.804,23.027 ZM15.459,23.027 C14.838,23.027 14.335,22.521 14.335,21.896 C14.335,21.272 14.838,20.765 15.459,20.765 C16.079,20.765 16.582,21.272 16.582,21.896 C16.582,22.521 16.079,23.027 15.459,23.027 ZM20.953,30.640 C20.953,30.640 16.976,30.640 16.976,30.640 C16.427,30.640 15.982,30.192 15.982,29.639 C15.982,29.086 16.427,28.638 16.976,28.638 C16.976,28.638 20.953,28.638 20.953,28.638 C21.502,28.638 21.947,29.086 21.947,29.639 C21.947,30.192 21.502,30.640 20.953,30.640 Z" id="path-1" class="cls-2" fill-rule="evenodd"/>
</svg>
