<svg xmlns="http://www.w3.org/2000/svg" xmlns:xlink="http://www.w3.org/1999/xlink" preserveAspectRatio="xMidYMid" width="35" height="38" viewBox="0 0 35 38">
  <defs>
    <style>

      .cls-2 {
        fill: #2a1e30;
      }
    </style>
  </defs>
  <path d="M33.417,6.784 C33.268,6.501 32.992,6.305 32.674,6.257 C32.354,6.206 32.032,6.311 31.805,6.538 C31.805,6.538 25.335,12.945 25.335,12.945 C25.335,12.945 22.312,9.951 22.312,9.951 C22.312,9.951 28.924,3.404 28.924,3.404 C29.143,3.187 29.250,2.882 29.213,2.576 C29.176,2.272 29.000,2.000 28.735,1.841 C26.742,0.638 24.450,0.001 22.106,0.001 C18.712,0.001 15.523,1.398 13.124,3.773 C10.814,6.061 9.594,9.101 9.434,12.106 C9.434,12.106 9.414,12.106 9.414,12.106 C9.406,12.106 9.432,13.268 9.456,13.848 C9.548,16.018 9.608,17.407 7.926,19.073 C7.926,19.073 6.506,20.457 6.506,20.457 C5.810,19.953 4.982,19.659 4.104,19.659 C3.011,19.659 1.984,20.075 1.212,20.840 C0.439,21.605 0.014,22.620 0.014,23.701 C0.014,24.783 0.439,25.799 1.211,26.563 C1.984,27.328 3.011,27.750 4.104,27.750 C5.197,27.750 6.224,27.328 6.996,26.562 C7.769,25.798 8.194,24.780 8.194,23.699 C8.194,23.096 8.049,22.518 7.798,21.988 C7.798,21.988 9.357,20.445 9.357,20.445 C11.667,18.158 11.575,15.981 11.477,13.676 C11.458,13.207 11.443,12.707 11.443,12.195 C11.539,9.616 12.570,7.066 14.554,5.102 C16.570,3.104 19.253,2.004 22.106,2.004 C23.638,2.004 25.144,2.328 26.526,2.946 C26.526,2.946 20.167,9.243 20.167,9.243 C19.772,9.634 19.772,10.268 20.167,10.659 C20.167,10.659 24.619,15.069 24.619,15.069 C24.809,15.257 25.066,15.362 25.335,15.362 C25.603,15.362 25.860,15.257 26.050,15.069 C26.050,15.069 32.191,8.988 32.191,8.988 C33.603,12.823 32.674,17.139 29.693,20.092 C28.334,21.438 26.668,22.359 24.856,22.830 C23.706,23.118 22.709,23.200 22.714,23.200 C22.096,23.230 21.515,23.221 20.959,23.213 C18.736,23.181 16.635,23.152 14.363,25.402 C14.363,25.402 3.368,36.289 3.368,36.289 C2.973,36.680 2.973,37.314 3.368,37.705 C3.566,37.901 3.825,37.999 4.083,37.999 C4.342,37.999 4.601,37.901 4.799,37.705 C4.799,37.705 13.648,28.942 13.648,28.942 C13.648,28.942 13.637,28.932 13.637,28.932 C13.766,28.825 13.882,28.711 13.981,28.612 C13.981,28.612 15.793,26.818 15.793,26.818 C17.461,25.167 18.846,25.184 20.930,25.215 C21.526,25.223 22.148,25.233 22.840,25.199 C22.926,25.192 24.959,25.031 26.804,24.320 C26.815,24.315 26.822,24.306 26.833,24.301 C28.419,23.676 29.879,22.740 31.123,21.508 C35.069,17.601 35.991,11.684 33.417,6.784 ZM5.566,25.146 C4.785,25.921 3.423,25.921 2.642,25.146 C2.251,24.760 2.036,24.245 2.036,23.699 C2.036,23.152 2.251,22.637 2.642,22.250 C3.033,21.864 3.552,21.651 4.104,21.651 C4.656,21.651 5.175,21.864 5.566,22.250 C5.957,22.637 6.171,23.152 6.171,23.699 C6.171,24.245 5.957,24.760 5.566,25.146 Z" id="path-1" class="cls-2" fill-rule="evenodd"/>
</svg>
