<svg xmlns="http://www.w3.org/2000/svg" xmlns:xlink="http://www.w3.org/1999/xlink" preserveAspectRatio="xMidYMid" width="32" height="37" viewBox="0 0 32 37">
  <defs>
    <style>

      .cls-2 {
        fill: #2a1e30;
      }
    </style>
  </defs>
  <path d="M13.986,6.041 C15.544,4.493 17.616,3.641 19.819,3.641 C22.023,3.641 24.094,4.493 25.652,6.041 C27.211,7.590 28.069,9.647 28.069,11.836 C28.069,14.026 27.211,16.083 25.652,17.630 C24.094,19.178 22.023,20.030 19.819,20.030 C17.616,20.030 15.544,19.178 13.986,17.630 C12.428,16.083 11.570,14.026 11.570,11.836 C11.570,9.647 12.428,7.590 13.986,6.041 ZM15.401,16.225 C16.582,17.396 18.150,18.042 19.819,18.042 C21.488,18.042 23.057,17.396 24.237,16.225 C25.417,15.053 26.067,13.493 26.067,11.836 C26.067,10.178 25.417,8.620 24.237,7.447 C23.057,6.275 21.488,5.629 19.819,5.629 C18.150,5.629 16.582,6.275 15.401,7.447 C14.221,8.620 13.571,10.178 13.571,11.836 C13.571,13.493 14.221,15.053 15.401,16.225 ZM19.865,23.857 C18.566,23.857 17.294,23.653 16.074,23.250 C13.864,25.127 2.733,35.672 1.682,36.717 C1.487,36.911 1.231,37.008 0.974,37.008 C0.718,37.008 0.462,36.911 0.267,36.717 C-0.124,36.329 -0.124,35.699 0.266,35.311 C0.636,34.944 4.307,31.445 7.934,28.036 C15.506,20.922 15.506,20.915 16.266,21.206 C17.414,21.646 18.625,21.868 19.865,21.868 C25.383,21.868 29.873,17.408 29.873,11.927 C29.873,6.445 25.383,1.985 19.865,1.985 C14.413,1.985 9.924,6.450 9.857,11.939 C9.845,12.831 9.973,13.562 10.086,14.208 C10.290,15.376 10.483,16.479 9.706,17.722 C9.451,18.131 8.880,18.711 8.060,19.466 C8.261,19.948 8.366,20.468 8.366,21.004 C8.366,22.078 7.945,23.088 7.180,23.847 C6.416,24.607 5.399,25.026 4.318,25.026 C3.237,25.026 2.220,24.607 1.456,23.847 C0.691,23.088 0.270,22.078 0.270,21.004 C0.270,19.930 0.691,18.921 1.456,18.161 C2.878,16.747 5.274,16.666 6.834,17.884 C7.398,17.360 7.865,16.898 8.005,16.673 C8.365,16.097 8.299,15.605 8.114,14.548 C7.993,13.854 7.842,12.990 7.855,11.915 C7.936,5.343 13.323,-0.004 19.865,-0.004 C26.487,-0.004 31.874,5.348 31.874,11.927 C31.874,18.505 26.487,23.857 19.865,23.857 ZM4.318,18.972 C3.772,18.972 3.257,19.183 2.871,19.567 C2.485,19.951 2.272,20.461 2.272,21.004 C2.272,21.547 2.485,22.058 2.871,22.441 C3.644,23.210 4.992,23.210 5.765,22.441 C6.151,22.058 6.364,21.547 6.364,21.004 C6.364,20.461 6.151,19.951 5.765,19.567 C5.378,19.183 4.864,18.972 4.318,18.972 Z" id="path-1" class="cls-2" fill-rule="evenodd"/>
</svg>
